<?xml version="1.0" encoding="utf-8" ?><svg xmlns="http://www.w3.org/2000/svg" xmlns:xlink="http://www.w3.org/1999/xlink" width="1024" height="1024" viewBox="0 0 1024 1024"><path fill="#1E706A" d="M500.776 194.209C509.21 193.568 522.492 194.222 530.994 194.621C588.616 197.327 653.942 220.251 699.791 255.836C691.109 265.537 677.446 278.244 667.955 287.867L641.535 314.665C638.06 318.181 629.407 327.379 625.918 329.495C624.875 329.607 623.696 329.503 622.764 328.962C610.918 322.079 598.469 315.951 585.552 311.309C531.593 292.143 472.274 294.874 420.304 318.918C370.864 342.172 330.914 385.952 311.965 437.261C270.759 548.84 328.04 673.266 441.034 713.182C493.976 731.848 552.139 728.919 602.938 705.028C654.569 680.532 694.351 636.525 713.531 582.693C731.377 531.169 729.006 474.794 706.899 424.95C704.686 419.946 702.112 414.506 699.472 409.72C695.72 402.918 690.637 395.717 687.307 388.788C691.483 382.862 702.44 372.177 707.987 366.352C719.136 354.631 730.478 343.095 742.008 331.75C747.471 326.309 754.14 319.193 759.791 314.267C762.411 316.891 763.562 318.285 765.82 321.245C805.183 374.852 824.787 427.621 829.257 494.12C834.129 576.873 806.205 658.214 751.532 720.525C685.014 796.354 587.163 837.106 486.443 828.774C417.761 823.04 352.775 795.245 301.19 749.539C256.057 709.368 223.156 657.293 206.258 599.282C175.894 491.583 202.829 381.758 276.804 298.468C324.566 245.634 388.688 210.371 458.887 198.336C473.716 195.764 485.817 195.116 500.776 194.209Z"/><path fill="#1E706A" d="M874.182 23.0359C881.067 22.963 884.797 27.874 885.414 34.2053C887.316 53.7404 889.773 74.8327 890.05 94.4006C893.925 90.99 898.215 88.1414 903.429 87.345C908.154 86.5894 912.984 87.7661 916.832 90.6102C921.122 93.8306 923.913 98.6609 924.562 103.986C925.496 111.588 922.442 116.552 918.178 122.227C928.873 123.599 940.568 122.941 951.356 123.865C959.751 124.585 977.648 122.761 984.01 128.711C986.336 130.882 987.706 133.886 987.819 137.066C988.032 145.067 975.43 155.853 969.801 161.573L945.48 186.239L882.35 250.562C877.441 255.537 869.74 262.98 863.172 265.393C850.532 269.776 836.048 266.418 822.935 266.157C813.317 265.965 803.938 265.986 794.379 265.248C789.087 264.839 780.186 264.224 775.798 267.588C767.748 273.763 760.48 281.516 753.341 288.76L715.626 327.542L570.023 477.412C561.712 486.491 551.815 495.341 543.29 504.41C537.353 510.725 526.882 523.042 519.258 526.16C514.317 528.194 508.752 528.079 503.898 525.844C499.119 523.656 494.524 518.979 493.076 513.925C489.095 500.026 499.008 491.381 507.574 482.801C511.403 479.019 515.152 475.157 518.821 471.219C542.777 446.27 566.998 421.576 591.479 397.141L680.841 306.004C696.73 290.015 712.518 273.925 728.204 257.737C731.967 253.82 746.151 240.58 747.055 236.341C749.884 223.068 746.307 201.501 746.3 187.789C746.295 176.417 743.506 165.095 746.352 154.499C747.01 152.074 747.948 149.734 749.148 147.526C752.477 141.389 760.869 133.939 765.907 128.76L794.526 99.7671L840.579 52.8942C848.92 44.5147 863.145 26.4025 874.182 23.0359Z"/><path fill="#1E706A" d="M508.749 401.714C522.453 400.622 537.185 403.955 549.879 408.9C547.649 411.871 544.795 414.932 542.14 417.542C527.56 431.872 513.378 446.758 498.908 461.18C492.068 467.997 483.164 474.989 477.998 483.049C468.5 497.867 467.817 520.393 480.095 533.905C493.583 549.632 514.457 554.062 532.669 543.475C542.043 538.052 549.203 529.927 556.671 522.177C568.021 510.396 579.106 498.389 590.724 486.84C597.819 479.787 603.962 472.125 611.574 465.439C613.319 468.211 614.36 470.282 615.494 473.377C625.963 501.942 624.778 529.595 612.779 557.133C608.205 566.839 602.542 576.229 595.444 584.308C575.34 607.112 546.925 620.893 516.57 622.563C488.029 624.159 458.958 612.351 437.906 593.372C415.889 573.513 402.784 545.634 401.543 516.009C398.779 461.16 441.03 410.188 494.965 402.871C499.653 402.235 504.046 401.945 508.749 401.714Z"/><path fill="#1E706A" d="M490.636 0L533.322 0C540.271 2.04371 552.015 1.33208 559.492 2.19461C570.05 3.41247 580.422 4.62277 590.937 6.31241C640.878 14.0781 689.41 29.1216 734.988 50.9632C748.708 57.4884 767.864 67.6442 780.55 76.1459C770.25 87.273 758.057 98.6261 747.389 109.518C732.26 124.964 724.543 130.227 718.674 151.635C694.133 138.972 673.951 128.659 647.515 119.376C562.478 90.2185 470.303 89.2772 384.688 116.692C277.275 150.946 193.209 223.734 141.729 323.647C92.3952 421.593 83.3934 534.967 116.653 639.47C150.609 744.131 224.619 831.093 322.503 881.348C421.298 931.972 536.227 941.014 641.722 906.461C746.753 871.729 833.685 796.696 883.393 697.868C932.316 602.286 940.068 483.927 906.71 382.247C896.445 350.955 882.47 322.094 865.77 293.806C884.503 287.972 887.545 282.677 901.275 269.532C914.357 257.006 926.63 242.95 939.659 230.606C944.574 236.193 954.194 253.398 957.988 260.238C987.42 312.655 1007.49 369.802 1017.3 429.112C1019.22 440.843 1020.43 451.973 1021.61 463.739C1022.36 471.217 1022.42 486.096 1024 492.758L1024 534.733C1021.81 544.162 1021.99 557.912 1020.92 567.896C1018.52 589.073 1014.95 610.1 1010.22 630.881C979.812 757.428 902.466 867.699 793.835 939.38C734.491 978.586 667.603 1004.95 597.466 1016.76C584.928 1018.99 572.298 1020.67 559.614 1021.8C553.861 1022.3 539.809 1022.83 535.293 1024L491.782 1024C487.905 1022.97 474.14 1022.52 469.312 1022.12C456.739 1021.06 444.212 1019.52 431.757 1017.51C361.756 1006.4 294.815 980.912 235.152 942.654C122.087 870.128 42.1221 756.005 12.5568 624.972C6.67561 599.94 3.27417 572.725 1.49136 547.036C1.20674 542.935 0.966042 538.702 0 534.708L0 493.048C1.24362 488.147 1.67131 473.352 2.08597 467.494C3.02419 455.416 4.441 443.379 6.33306 431.413C17.181 362.234 42.2399 296.052 79.9308 237.036C151.58 124.848 263.973 44.8446 393.437 13.8769C414.474 9.05929 435.772 5.46686 457.225 3.11775C466.511 2.11841 482.236 2.0782 490.636 0Z"/></svg>