<?xml version="1.0" encoding="utf-8" ?><svg xmlns="http://www.w3.org/2000/svg" xmlns:xlink="http://www.w3.org/1999/xlink" width="1024" height="1024" viewBox="0 0 1024 1024"><path fill="#1E706A" d="M831.862 251.23C840.081 251.046 857.338 251.706 865.075 254.138C906.124 267.039 993.185 285.798 976.304 345.708C965.122 385.393 913.25 405.919 878.867 420.656C865.629 426.222 852.494 432.031 839.469 438.08C831.063 441.95 823.381 445.31 815.366 449.975C823.608 448.648 832.964 446.317 841.257 444.544C857.322 441.124 873.405 437.793 889.507 434.551C925.434 427.119 974.109 416.287 1005.74 440.865C1015.28 448.324 1021.4 459.314 1022.72 471.347C1026.47 502.667 998.516 539.147 979.783 562.791C946.341 604.088 919.267 620.45 865.296 620.994C821.656 621.434 792.389 611.83 751.772 597.616C752.732 590.746 753.761 583.633 754.343 576.656C759.638 513.096 742.48 438.974 689.14 398.871C680.9 392.676 671.696 387.997 662.904 382.631C668.901 374.485 675.515 366.819 681.624 358.834C721.899 306.195 760.349 255.744 831.862 251.23Z"/><path fill="#1E706A" d="M277.249 632.991C280.291 633.32 281.221 639.775 282.164 642.346C299.924 690.77 341.099 732.834 394.63 736.992C415.781 738.635 445.47 732.034 461.495 717.514C459.991 734.084 456.903 756.234 452.97 772.642C452.195 775.878 442.736 789.839 440.277 793.429C413.162 833.012 395.779 881.76 417.746 928.097C420.686 934.292 425.022 940.399 428.755 946.367C421.604 954.297 410.616 962.538 401.727 967.912C373.845 984.766 303.452 1004.63 272.337 995.708C260.757 992.37 251.008 984.51 245.29 973.901C233.96 952.872 237.466 930.61 244.009 908.98C252.369 883.627 269.618 860.205 284.076 837.63C294.75 820.826 305.23 803.899 315.513 786.853C310.359 790.479 297.241 804.954 292.087 810.346C277.666 825.426 263.139 840.404 248.507 855.279C229.03 875.13 214.777 891.531 187.382 900.836C155.415 911.694 125.78 901.522 116.287 866.996C104.874 825.488 108.494 761.137 128.496 722.831C156.766 668.69 223.123 649.267 277.249 632.991Z"/><path fill="#1E706A" d="M742.773 633.007C749.429 634.284 760.469 638.255 767.131 640.303C795.911 649.152 820.675 658.652 845.847 675.56C877.923 697.104 897.508 723.858 904.417 762.655C910.206 799.975 914.82 851.446 895.13 884.939C883.791 904.227 860.362 907.437 840.502 902.921C811.158 896.248 796.785 879.256 776.34 859.751C761.173 845.34 746.508 830.411 732.37 814.989C724.294 806.313 712.708 792.768 703.477 786.403C704.99 789.137 706.849 791.867 708.604 794.455C722.89 815.52 735.381 837.72 749.057 859.168C758.641 874.198 767.694 887.791 774.014 904.626C779.507 919.27 781.838 934.912 780.853 950.521C778.311 987.266 752.64 1000.78 718.946 997.572C681.223 993.98 618.88 977.62 593.64 948.136C598.559 941.052 603.479 934.274 606.984 926.42C625.024 886.34 614.544 843.94 592.617 807.934C589.333 802.541 572.137 777.147 570.886 772.617C565.85 754.377 563.782 729.274 562.017 710.118C567.821 714.001 573.825 718.075 580.102 720.984C638.948 748.246 702.066 711.817 730.797 658.941C735.678 649.958 738.511 641.916 742.773 633.007Z"/><path fill="#1E706A" d="M607.53 398.186C622.415 397.236 637.308 399.905 650.937 405.965C731.469 441.591 746.227 560.522 714.545 634.157C703.402 660.055 678.524 689.372 651.215 699.025C611.601 713.029 571.959 699.451 556.681 658.7C552.889 645.91 551.367 631.943 556.259 619.39C571.158 581.163 609.423 578.719 627.028 615.803C627.119 612.552 627.21 609.118 626.968 605.871C625.045 579.998 594.568 582.236 594.201 554.503C593.744 519.976 624.519 529.11 621.802 491.009C615.427 505.28 606.611 516.399 590.089 518.882C579.664 520.486 569.168 517.068 560.948 510.537C535.298 490.155 536.719 449.142 555.936 424.973C569.165 408.335 587.089 400.478 607.53 398.186ZM604.573 424.714C609.432 426.499 614.478 428.083 619.279 429.949C661.013 446.17 689.478 492.343 697.931 535.107C698.399 537.462 698.567 539.558 699.899 541.494L700.462 541.294C701.353 537.304 701.031 532.494 701.118 528.274C702.074 482.097 672.219 428.21 622.456 423.189C620.427 422.984 618.379 422.95 616.339 423.214C612.779 423.622 607.996 424.032 604.573 424.714Z"/><path fill="#1E706A" d="M408.277 405.224C444.874 403.072 479.504 430.999 482.765 467.803C483.417 475.162 483.332 482.692 481.497 489.879C478.184 503.36 469.567 514.931 457.602 521.969C449.462 526.759 439.745 528.098 430.613 525.687C421.167 523.142 412.614 516.363 407.268 508.258C405.75 505.957 404.881 503.698 403.472 501.288L402.833 501.175C400.687 503.711 403.145 514.194 404.366 517.496C407.301 525.44 413.945 530.412 420.004 535.869C433.698 547.561 433.417 574.261 418.707 584.949C402.573 596.672 396.608 602.933 396.996 623.874C400.832 615.762 403.849 610.16 411.027 604.421C426.499 591.973 448.202 596.09 459.834 611.662C470.504 625.948 472.107 641.187 469.747 658.382C455.538 718.469 386.334 726.371 344.531 689.146C313.18 661.228 298.581 623.682 295.14 582.507C291.15 534.849 300.513 483.335 331.885 445.797C351.829 421.934 377.195 407.611 408.277 405.224ZM324.235 551.394C326.53 546.211 326.722 541.921 328.069 536.638C341.625 486.408 368.534 446.617 421.142 432.223C415.689 430.92 408.445 430.216 402.844 430.712C382.176 432.253 363.543 443.436 350.459 459.058C329.524 484.054 321.449 515.651 323.875 547.653C323.963 548.903 324.083 550.15 324.235 551.394Z"/><path fill="#1E706A" d="M512.047 708.813C517.041 730.35 531.499 761.044 544.201 779.443C576.471 826.185 618.596 887.662 567.331 939.314C552.848 953.755 533.251 961.897 512.799 961.972C506.137 961.959 502.114 961.716 495.473 960.262C474.284 955.527 455.869 942.516 444.329 924.126C437.832 913.85 434.35 902.033 433.271 890.033C429.393 846.92 458.453 812.807 479.856 778.842C492.315 759.072 506.791 731.678 512.047 708.813ZM504.876 941.384C510.348 941.724 517.911 941.436 523.358 940.543L522.76 940.33C513.652 937.172 505.279 937.097 496.746 931.749C464.8 911.729 465.997 874.417 476.715 842.578C479.727 833.63 500.169 785.326 498.557 781.819C493.485 789.961 489.143 798.824 484.05 806.824C466.526 834.353 446.033 862.345 453.929 896.952C459.261 920.325 481.228 938.945 504.876 941.384Z"/><path fill="#1E706A" d="M483.762 37.647C541.75 54.7726 593.023 100.203 593.188 164.501C593.266 171.028 592.809 177.55 591.822 184.002C589.845 196.32 582.758 216.032 588.171 227.911C588.868 229.442 591.702 231.778 593.485 231.801C608.896 231.993 608.725 210.694 610.753 199.906C613.513 182.961 620.658 172.871 634.043 163.188C626.668 195.212 639.758 209.249 650.324 237.321C660.57 264.541 660.84 297.539 648.02 324.016C635.888 349.072 615.608 367.291 590.126 378.27C582.073 381.74 573.661 384.225 565.401 387.15C570.119 383.464 577.813 379.428 583.006 375.657C599.408 363.747 614.814 347.84 623.393 329.34C639.252 295.138 636.145 265.602 624.305 231.543C616.771 244.272 610.041 253.967 593.515 254.012C579.442 254.051 569.581 243.147 565.991 230.417C560.13 209.636 570.48 188.688 570.123 167.791C569.936 139.108 559.742 116.059 539.643 95.8224C532.008 87.9598 526.791 84.4665 518.085 78.0913C517.337 88.1495 517.233 94.3698 514.581 104.199C504.003 143.395 465.554 162.245 457.092 202.896C454.969 213.092 455.118 223.458 455.191 233.811C432.277 239.312 417.218 225.775 407.658 206.388C403.982 214.808 400.527 221.416 397.225 230.289C388.396 253.942 386.345 279.591 391.303 304.347C397.56 334.889 418.697 365.892 444.751 382.965C425.402 375.608 411.299 368.984 396.502 353.948C375.82 332.933 365.657 305.289 366.118 276.009C366.911 225.764 389.764 180.508 425.081 145.726C422.102 154.579 421.195 166.102 421.574 175.399C422.186 190.459 426.098 200.018 436.973 210.162C437.015 140.518 504.877 129.486 493.679 63.1751C492.24 54.6543 487.615 45.3825 483.762 37.647Z"/><path fill="#1E706A" d="M525.884 128.785C530.452 132.685 534.721 139.247 537.587 144.476C555.256 176.713 529.485 207.285 539.072 238.091C549.043 266.026 574.736 276.735 581.934 306.999C591.436 346.956 564.27 382.949 524.941 392.172C542.526 381.831 555.471 368.14 560.651 347.872C562.524 340.265 562.984 332.379 562.009 324.606C556.334 276.094 500.411 275.059 518.604 205.258C500.242 219.017 486.992 239.397 479.988 261.096C473.664 283.073 475.034 304.207 483.158 325.406C464.118 323.87 456.705 318.823 442.411 306.929C441.55 313.437 441.702 324.604 442.566 331.016C446.544 360.541 458.956 373.675 481.036 390.77C476.203 389.013 471.112 387.207 466.523 384.879C418.442 360.486 414.207 303.003 436.02 258.752C436.13 259.804 436.256 260.853 436.4 261.901C438.786 279.132 446.955 289.067 460.355 299.163C459.727 296.331 459.194 293.48 458.757 290.612C453.741 255.73 465.835 224.525 490.571 200.216C514.195 177 531.103 164.91 525.884 128.785Z"/><path fill="#1E706A" d="M579.4 559.094C579.686 559.274 579.972 559.453 580.258 559.632C581.466 564.514 583.375 570.246 585.119 574.696C529.159 584.472 534.08 658.319 536.383 701.111C537.06 713.708 537.238 727.628 539.591 739.999C538.341 736.528 537.757 734.917 536.014 731.69C529.579 718.786 524.883 705.086 522.048 690.948C515.891 660.126 518.006 614.651 535.947 588.037C546.024 573.013 561.653 562.603 579.4 559.094Z"/><path fill="#1E706A" d="M443.901 566.245C450.282 566.689 457.368 569.042 462.973 571.929C494.088 588.199 503.188 622.072 504.749 654.579C506.029 681.248 501.62 704.866 489.366 728.698C487.124 733.045 486.362 734.818 484.8 739.455C487.957 695.171 503.115 601.849 446.209 583.436C444.164 582.775 441.668 582.177 439.565 581.621C441.859 576.35 442.786 571.865 443.901 566.245Z"/><path fill="#1E706A" d="M503.324 252.375C503.777 255.427 503.632 263.128 504.128 267.244C505.598 282.861 516.834 293.537 526.547 304.935C544.224 325.677 543.735 350.206 522.192 367.877C521.387 368.388 521.371 368.353 520.48 368.712C520.242 367.092 523.034 363.075 523.69 361.058C526.143 353.521 527.127 346.166 525.436 338.396C520.925 317.672 498.914 308.495 494.866 286.972C492.054 272.025 495.584 264.367 503.324 252.375Z"/><path fill="#1E706A" d="M440.122 540.097C463.976 539.675 488.082 557.814 497.362 579.014C500.712 586.668 501.637 593.586 502.638 601.71C501.451 601.034 496.259 590.808 494.711 588.529C482.019 569.844 466.109 557.307 443.932 552.729C442.731 547.369 442.21 545.173 440.122 540.097Z"/><path fill="#1E706A" d="M583.361 532.166L583.856 532.742C582.75 537.065 581.594 541.376 580.388 545.673C571.784 547.74 567.33 548.891 559.233 553.296C543.386 561.918 527.609 580.169 522.513 597.574C522.129 597.527 522.389 597.595 521.915 597.029C522.81 561.473 549.297 537.385 583.361 532.166Z"/><path fill="#1E706A" d="M0 458.656C2.16978 455.294 4.31471 450.948 6.83454 448.005C36.0348 413.902 95.0453 426.991 131.855 434.409C149.566 437.919 167.223 441.694 184.821 445.734C187.387 446.311 202.379 450.346 203.174 449.57C201.541 446.769 190.549 442.79 187.14 440.95C143.625 417.458 67.1114 401.615 46.1207 352.203C21.6765 294.662 96.0129 271.574 136.124 258.74C218.725 230.665 280.494 280.924 326.561 343.8C337.693 358.994 351.253 374.719 362.456 390.441C347.575 397.908 334.65 406.128 322.727 417.778C282.632 456.954 267.637 515.279 269.095 569.931C269.34 579.096 270.745 588.355 271.001 597.316C251.76 603.48 229.528 611.374 209.887 615.679C172.788 623.811 128.354 626.496 93.6859 608.647C57.1432 589.833 32.6112 554.393 10.8778 520.684C8.75905 517.398 7.21346 514.455 5.50541 511.033C4.20079 508.419 1.32462 500.728 0 498.879L0 458.656Z"/></svg>