<?xml version="1.0" encoding="utf-8" ?><svg xmlns="http://www.w3.org/2000/svg" xmlns:xlink="http://www.w3.org/1999/xlink" width="1024" height="1024" viewBox="0 0 1024 1024"><path fill="#296E65" d="M520.834 268.16C567.31 264.704 571.208 313.264 612.296 323.726C636.81 330.518 665.417 318.584 686.176 337.949C703.291 353.915 694.958 378.516 695.986 399.043C696.954 418.352 705.943 433.496 720.532 445.928C732.296 455.952 747.559 464.59 750.458 481.129C754.944 507.682 726.888 521.84 723.287 547.872C719.18 565.138 731.348 579.684 731.239 595.784C731.025 627.409 694.003 611.762 679.969 637.531C666.163 662.879 688.604 685.835 669.587 704.843C642.497 731.92 612.202 690.085 584.433 689.445C550.444 687.615 540.964 722.758 509.526 723.045C487.486 723.011 476.074 705.837 459.472 694.853C441.546 682.898 419.01 680.16 398.742 687.475C388.768 691.069 380.322 695.764 369.685 697.748C359.299 699.685 348.553 698.58 339.856 692.456C319.333 678 326.837 653.952 329.348 633.368C330.414 624.629 329.389 614.736 326.763 606.379C323.256 595.222 316.641 584.46 308.285 576.316C295.514 563.866 276.735 553.51 273.526 534.382C268.424 503.977 292.174 493.847 306.75 473.091C317.678 457.529 319.69 438.225 315.246 420.182C313.646 413.689 311.876 406.882 310.395 400.368C308.743 393.097 309.342 381.725 313.842 375.516C321.129 365.459 337.894 364.852 349.048 363.203C367.917 360.413 379.244 349.791 384.485 331.619C386.346 325.169 388.217 316.288 392.38 310.944C402.817 297.547 419.989 304.893 433.798 306.467C440.596 307.242 448.308 307.417 454.88 305.621C483.765 297.722 487.442 272.218 520.834 268.16ZM541.356 426.318C541.591 437.074 540.987 447.064 541.081 457.431C538.17 455.789 536.017 454.363 532.573 454.267C530.648 454.214 529.474 454.691 528.498 453.713C528.55 447.595 528.973 433.349 527.843 427.961C524.206 424.605 499.659 410.195 494.771 408.161C490.127 409.979 464.322 424.468 461.912 428.176C460.419 430.473 460.687 462.788 461.689 464.944C463.542 468.934 488.575 482.682 493.705 485.247L498.875 483.849L499.02 510.884C502.591 513.985 527.943 528.468 532.736 530.44C536.74 529.36 562.088 513.872 565.942 510.928C566.158 500.837 565.85 490.338 566.201 480.379C571.146 482.921 579.446 488.244 583.627 489.993C590.192 488.008 603.783 478.458 611.222 474.66C613.137 473.529 612.777 473.297 614.411 473.616C615.439 475.487 614.936 479.915 615.038 482.484C623.129 488.31 633.916 493.039 641.1 498.981C646.875 503.757 638.249 530.142 646.234 534.531C655.354 539.544 666.945 548.091 676.426 551.958C683.867 548.898 702.174 537.95 709.012 533.097C709.397 523.684 710.647 501.484 708.816 493.353C700.774 486.731 690.196 483.115 682.501 477.268C681.071 467.729 683.357 453.706 681.389 445.24C680.441 441.167 652.807 426.592 648.431 424.653C641.157 427.669 633.42 433.162 626.29 436.711C626.233 433.163 625.413 427.7 628.098 424.898C634.668 418.041 652.501 416.188 652.087 404.855C651.673 393.508 652.641 381.888 651.841 370.835C646.402 362.976 633.432 358.45 625.436 353.063C622.773 351.269 618.668 349.045 615.741 347.851C610.262 349.597 590.456 362.15 584.13 365.827C577.75 362.392 557.151 348.661 551.989 347.919C546.672 350.673 518.842 365.502 516.743 370.363C515.655 372.884 515.348 407.348 516.793 410.113C518.739 413.835 535.615 420.813 541.356 426.318ZM396.318 450.165C349.498 457.116 334.835 501.027 341.361 543.263C353.015 618.684 430.195 673.301 505.256 660.781C506.892 660.518 508.517 660.199 510.131 659.825C542.354 652.734 574.469 632.654 567.09 594.824C564.962 583.914 557.114 574.128 547.638 568.319C521.397 554.22 493.256 569.425 469.642 544.897C458.95 533.792 453.651 528.441 450.811 512.279C446.941 490.252 446.679 469.677 425.294 456.615C417.862 452.075 405.471 448.513 396.318 450.165ZM437.099 423.886C447.179 416.581 433.819 400.603 424.543 400.925C422.998 402.101 418.809 406.032 420.68 408.441C424.493 413.347 428.088 418.134 431.558 423.286C433.854 424.303 434.525 424.052 437.099 423.886ZM311.966 508.915C305.958 513.772 304.742 528.316 309.311 534.717C310.401 536.244 312.601 536.616 314.379 537.046C316.366 536.239 317.082 536.138 318.456 534.599C319.195 532.824 319.186 524.997 319.188 522.492C319.192 514.837 322.14 508.753 311.966 508.915ZM685.198 593.965C692.187 588.742 701.199 570.504 686.057 572.029C681.14 576.037 669.61 595.397 685.198 593.965ZM638.592 502.799C634.011 499.071 608.893 484.067 604.178 483.49C599.088 485.81 575.53 499.724 571.905 503.088C571.3 508.401 569.852 536.118 572.768 541.063C574.659 544.271 597.388 555.975 601.72 559.094C602.606 559.732 604.543 560.144 605.715 560.329C610.138 558.66 637.005 543.693 638.012 540.557C639.693 535.322 639.219 508.858 638.592 502.799ZM517.126 694.766C523.609 694.045 536.265 691.201 536.585 682.263C536.668 679.94 532.03 678.239 529.943 677.94C528.023 678.825 526.287 679.582 524.207 680.328C519.911 681.87 512.656 682.059 510.655 686.834C509.956 688.502 510.747 690.511 511.601 691.973C512.772 693.979 514.953 694.332 517.126 694.766ZM413.741 371.861C417.428 371.276 419.973 367.854 419.471 364.155C418.97 360.456 415.606 357.834 411.897 358.251C409.421 358.53 407.291 360.127 406.329 362.424C405.367 364.722 405.724 367.361 407.263 369.32C408.802 371.279 411.28 372.251 413.741 371.861ZM598.215 613.816C601.778 612.79 603.846 609.081 602.845 605.511C601.845 601.94 598.151 599.846 594.573 600.822C590.96 601.807 588.841 605.546 589.851 609.153C590.862 612.759 594.616 614.852 598.215 613.816ZM532.79 307.032C531.344 307.899 528.15 310.593 528.015 312.133C527.465 318.405 538.792 318.848 542.535 320.498C546.425 322.214 547.847 324.427 551.979 324.764C553.555 323.94 556.462 321.747 556.751 320.073C558.546 309.662 539.051 306.645 532.79 307.032ZM356.907 632.012C351.375 635.651 352.984 641.094 355.213 646.311C360.216 658.017 375.516 670.291 388.532 670.01C391.304 667.957 394.509 661.681 391.383 660.031C382.983 655.6 379.03 655.872 371.684 648.367C366.96 643.54 365.14 631.901 359.389 631.933C358.561 631.945 357.734 631.971 356.907 632.012ZM476.325 327.186C457.089 329.727 447.526 343.058 449.946 361.896C450.641 367.305 457.166 372.074 460.782 365.647C463.673 357.653 460.034 353.437 465.68 345.31L466.172 344.82C472.747 338.37 483.267 337.779 488.248 344.087C500.37 359.437 509.189 346.086 497.38 335.307C492.443 330.801 483.298 326.242 476.325 327.186ZM389.276 391.255C367.826 392.806 352.28 406.898 352.397 429.632C352.421 434.377 355.368 436.972 360.012 437.137C366.323 433.825 364.574 430.096 365.679 423.567C367.04 415.529 370.705 412.131 376.776 407.367C382.216 403.098 394.192 405.809 395.97 399.213C397.323 394.19 394.356 391.262 389.276 391.255ZM639.419 608.994C637.83 610.325 636.159 611.527 635.86 613.737C634.789 621.658 649.882 633.271 634.062 647.762C629.833 651.636 624.172 654.053 618.379 653.629C614.155 653.32 605.284 649.29 601.868 652.426C600.385 653.788 600.348 656.122 600.495 657.978C600.626 659.637 601.31 660.956 602.586 662.016C604.267 663.414 606.939 664.128 608.981 664.88C619.468 667.115 628.325 667.187 637.692 661.162C645.69 656.025 651.283 647.885 653.21 638.576C654.198 633.675 653.979 628.398 652.687 623.581C650.745 616.346 648.432 608.182 639.419 608.994Z"/><path fill="#296E65" d="M389.415 472.466C392.514 472.366 395.303 472.997 396.772 476.011C399.745 482.112 389.279 487.124 385.482 490.302C383.363 492.108 381.511 494.207 379.983 496.536C374.647 504.598 373.709 513.569 373.447 523.005C373.287 528.738 374.845 534.289 369.09 537.311C358.848 536.868 359.462 528.378 359.964 520.222C361.187 500.367 370.597 480.915 389.415 472.466Z"/><path fill="#296E65" d="M372.825 553.019C380.95 553.061 387.661 566.971 377.862 571.604C369.284 570.583 363.067 558.862 372.825 553.019Z"/><path fill="#296E65" d="M582.886 406.378C585.962 406.303 612.681 422.349 615.234 425.25C615.966 433.766 615.292 449.946 615.12 459.076C610.878 462.114 587.987 475.832 583.963 477.597C578.926 475.44 557.302 462.359 552.477 458.984C551.947 449.073 551.973 434.209 552.642 424.5C560.179 419.281 574.522 411.354 582.886 406.378ZM559.867 428.663C558.872 432.564 557.869 450.241 560.008 454.568C560.512 455.588 562.205 456.141 563.3 456.544C563.422 456.395 564.64 454.926 564.64 454.925C565.812 447.539 564.824 440.175 565.667 432.672C570.662 429.549 584.323 423.327 585.882 418.818C585.515 416.193 584.933 416.066 582.629 414.915C574.786 419.207 567.183 423.484 559.867 428.663Z"/><path fill="#296E65" d="M614.375 360.969C618.812 361.258 635.886 372.33 639.462 375.09C642.063 377.098 640.973 399.792 640.919 404.581C634.999 407.74 629.3 412.153 623.067 414.498C621.138 415.223 620.096 414.517 618.387 413.566C610.756 408.958 596.213 401.64 589.996 395.898C588.528 394.543 589.489 379.193 589.806 377.686C590.667 373.594 609.565 363.753 614.375 360.969ZM598.869 383.535C603.006 381.47 616.195 375.506 617.864 371.335C618.158 370.6 617.786 370.111 617.487 369.254C616.433 368.434 616.38 368.188 615.207 367.865C610.114 370.514 599.205 375.469 596.272 380.072C596.074 381.885 595.89 381.07 596.804 382.61C597.667 383.068 597.951 383.33 598.869 383.535Z"/><path fill="#296E65" d="M551.738 360.943C555.418 360.852 573.932 373.093 578.455 375.915C578.995 381.578 579.347 388.923 578.452 394.553C578.081 396.891 574.624 398.688 572.644 399.84C565.512 403.988 558.348 408.114 551.194 412.238L545.864 415.296C539.939 412.514 532.76 407.97 527.271 404.339C526.727 396.44 526.974 383.973 527.173 375.946C532.724 371.696 545.31 364.735 551.738 360.943Z"/><path fill="#296E65" d="M493.385 421.418C497.539 421.217 514.264 431.48 517.47 434.478C518.014 440.071 518.161 454.782 517.652 460.302C511.915 464.154 502.925 468.994 496.743 472.566C492.274 473.275 476.962 462.835 472.302 459.944C471.762 452.367 471.961 442.116 472.197 434.437C476.35 430.83 488.017 424.49 493.385 421.418ZM477.831 436.552C477.59 441.538 476.69 452.407 478.419 456.655C479.411 457.691 479.53 457.62 480.88 458.198C485.518 454.434 483.177 445.907 483.801 439.907C487.48 437.823 495.181 434.327 496.911 430.985C496.883 428.683 496.53 428.251 494.5 426.953C490.822 429.026 480.905 434.327 477.831 436.552Z"/><path fill="#296E65" d="M530.816 466.423C535.677 466.502 550.439 475.463 554.81 478.546C555.242 486.73 554.978 496.845 554.978 505.17C547.844 509.506 540.659 513.758 533.425 517.926C530.276 517.742 513.959 507.108 510.099 504.732C509.081 497.652 509.451 486.761 509.677 479.462C513.32 475.994 526.002 469.149 530.816 466.423ZM515.072 481.764C514.931 487.002 513.71 497.382 516.454 502.073C517.089 503.159 518.778 502.947 519.87 502.772C520.269 496.853 520.052 491.125 520.387 485.421C524.18 483.222 536.48 478.077 534.588 473.16C533.13 472.285 533.158 472.087 531.539 471.849C527.816 473.933 518.248 479.293 515.072 481.764Z"/><path fill="#296E65" d="M647.241 437.907C652.46 438.538 666.007 447.253 670.647 450.695C671.352 456.447 670.952 470.267 670.92 476.611C664.081 481.074 656.546 485.326 649.506 489.612C646.096 489.441 631.062 479.38 626.227 476.857C625.8 470.125 625.957 457.031 626.255 450.273C631.491 446.263 641.315 441.145 647.241 437.907ZM631.684 453.404C631.573 458.573 630.637 469.025 632.67 473.106C634.21 474.342 633.757 473.952 636.123 474.118C638.065 469.724 637.473 462.382 637.507 457.327C641.464 454.271 650.432 451.279 651.205 446.668C650.396 445.139 649.308 444.308 647.593 443.839C642.336 446.858 636.676 449.999 631.684 453.404Z"/><path fill="#296E65" d="M675.928 487.433C681.499 489.31 694.201 496.619 698.463 500.553C699.116 507.365 698.626 519.014 698.497 525.984C693.754 529.613 682.603 535.879 677.072 539.115C674.448 538.778 657.642 528.376 654.333 526.333C653.952 518.802 653.829 507.756 654.337 500.264C658.035 497.404 671.616 489.314 675.928 487.433Z"/><path fill="#296E65" d="M603.824 496.441C607.55 496.298 624.489 506.637 627.741 509.201C628.331 515.683 627.971 527.999 627.864 534.884C624.83 537.211 609.525 545.83 605.641 547.931C602.521 546.961 586.869 537.348 582.363 534.828C582.09 527 582.092 516.271 582.427 508.556C589.609 504.604 596.742 500.566 603.824 496.441ZM587.952 511.568C587.88 515.398 587.196 529.254 588.553 531.701C590.468 532.426 591.102 532.281 593.212 532.261C594.48 528.457 594.124 519.934 594.091 515.538C598.152 512.865 605.607 509.375 607.92 505.954C608.183 504.17 608.368 504.969 607.33 503.48C605.56 502.681 605.596 502.713 603.653 502.476C598.855 504.61 592.367 508.677 587.952 511.568Z"/><path fill="#296E65" d="M427.101 17.6934C449.996 15.4323 474.031 35.9575 483.324 55.3369C501.504 93.2503 505.857 141.276 510.394 182.699C512.052 175.796 512.342 167.327 513.268 160.011C517.632 125.542 519.689 83.7725 537.713 53.4007C546.276 38.9708 562.735 22.1483 579.607 18.7098C593.334 15.9121 606.612 19.4394 618.258 26.9861C623.957 31.0216 631.424 36.7184 635.871 42.0315C653.605 63.2215 677.003 89.3924 689.84 113.613C696.238 125.843 700.929 138.893 703.78 152.398C705.727 161.269 705.835 167.493 706.274 176.175C707.985 209.965 697.997 240.659 683.757 270.871C679.793 279.281 674.691 289.479 669.632 297.349C667.71 300.841 666.268 303.237 664.046 306.539C651.071 304.619 626.863 308.115 615.464 303.23C583.659 289.601 577.899 254.107 536.688 248.536C516.228 245.198 492.934 251.586 477.578 265.915C456.93 285.181 451.298 290.216 422.013 283.928C392.987 277.696 370.831 293.011 366.067 323.168C364.6 319.705 360.246 313.931 357.979 310.619C355.074 306.325 352.291 301.95 349.633 297.499C332.753 269.663 318.874 237.691 314.682 205.209C306.756 143.779 328.811 108.016 366.062 62.1634C382.03 42.5077 400.353 20.7089 427.101 17.6934Z"/><path fill="#296E65" d="M827.42 251.233C837.375 250.538 857.913 251.517 867.671 254.458C899.158 263.947 953.701 278.72 972.1 307.699C978.832 318.302 979.937 333.651 976.461 345.408C961.621 391.873 905.985 408.151 865.991 426.343C849.58 433.808 831.199 440.937 815.947 449.555C825.298 448.296 836.567 445.148 845.976 443.377C870.863 438.691 897.496 432.054 922.359 428.019C948.509 424.182 982.333 422.262 1004.23 439.542C1045.28 471.943 1010.6 521.964 987.764 552.763C967.308 580.437 938.899 609.942 903.924 617.383C869.964 624.608 829.891 621.569 796.505 612.371C781.941 608.359 766.81 602.674 752.291 598.117C752.081 591.778 751.917 588.063 750.4 581.986C748.7 575.172 742.805 560.441 743.449 553.686C745.92 532.586 766.853 520.434 770.448 499.004C774.04 481.687 768.723 459.547 754.962 447.684C731.966 427.858 710.76 416.328 716.781 381.43C720.109 362.137 716.866 345.819 705.515 328.924C707.964 325.291 711.696 320.946 714.541 317.511C743.78 282.205 780.362 255.316 827.42 251.233Z"/><path fill="#296E65" d="M307.3 624.066C308.313 623.853 307.818 623.788 308.776 624.33C310.049 629.846 307.509 641.238 306.672 647.154C305.032 658.747 304.656 669.155 307.44 680.579C310.589 693.497 320.104 705.211 331.608 711.715C349.071 721.589 368.665 720.583 387.032 713.778C393.183 711.499 401.684 707.66 407.656 706.097L408.323 705.926C410.12 712.449 410.666 719.418 412.958 726.961C422.362 757.912 436.946 772.931 458.729 794.405C456.511 796.89 452.356 800.321 449.771 802.73C423.809 826.825 408.74 860.425 408.015 895.838C407.622 909.082 409.543 929.694 415.735 941.415C417.922 945.555 420.398 948.226 423.59 951.621C404.424 971.9 362.101 986.734 335.524 992.427C313.575 996.856 280.72 1003.38 260.956 990.812C224.963 967.93 237.28 911.555 256.608 880.763C263.566 868.2 274.438 852.607 282.347 840.321C293.621 822.785 304.546 805.027 315.116 787.058C309.85 791.364 302.381 799.634 297.384 804.739L250.717 853.264C228.944 875.816 213.116 894.051 181.586 902.693C148.849 911.666 121.613 896.053 114.806 862.434C105.826 818.298 107.759 758.38 130.64 718.627C155.407 675.599 210.347 652.374 255.911 639.308C272.971 634.416 290.121 628.106 307.3 624.066Z"/><path fill="#296E65" d="M734.208 631.002C739.502 630.927 752.741 635.63 758.196 637.309C790.681 647.309 819.878 657.185 848.122 676.81C878.795 698.123 898.722 725.359 904.738 763.193C910.327 798.342 914.739 854.792 894.599 885.862C888.395 895.434 876.981 902.745 865.872 904.336C846.836 907.062 825.568 900.456 809.672 889.991C798.245 882.467 791.839 874.605 782.324 865.735C763.669 848.503 746.516 829.964 728.97 811.65C722.069 804.446 712.502 792.599 704.388 787.236C707.287 792.802 714.809 803.559 718.398 809.315L745.388 853.135C753.151 865.475 761.485 877.435 767.957 890.467C777.118 909.077 781.911 926.598 781.125 947.538C780.575 962.208 776.036 975.921 765.166 986.341C753.715 997.317 739.155 998.248 724.086 997.983C688.646 997.362 622.149 978.144 597.594 951.863C608.478 940.761 611.052 930.759 612.881 915.363C617.08 879.802 606.569 844.069 583.782 816.446C577.095 808.254 568.787 801.39 563.281 794.404C563.913 792.231 581.08 775.749 584.562 771.264C598.189 753.714 603.128 742.592 610.27 721.98C618.27 726.51 625.447 730.021 634.352 732.321C647.951 735.832 663.068 733.876 675.027 726.489C692.586 715.642 700.553 696.492 697.741 676.31C696.727 669.023 694.564 658.409 696.293 651.412C699.076 640.154 712.632 639.833 721.709 636.726C726.836 634.971 729.486 633.679 734.208 631.002Z"/><path fill="#296E65" d="M579.443 709.638C583.641 709.138 586.554 710.041 590.61 711.023C583.87 748.366 553.935 777.118 523.919 796.883C482.023 824.469 441.761 854.269 449.06 910.651C450.452 921.405 457.216 930.829 443.778 936.014C435.889 936.167 432.837 931.015 431.41 923.837C427.454 903.928 427.649 884.204 433.93 864.847C452.005 809.144 508.93 791.077 546.846 753.029C554.688 745.333 561.166 735.34 565.947 725.463C570.866 715.302 566.715 712.189 579.443 709.638Z"/><path fill="#296E65" d="M539.025 803.354C543.623 803.502 563.273 824.39 567.173 829.026C570.379 832.83 573.317 836.852 575.965 841.064C591.882 866.403 596.667 895.035 590.422 924.179C588.587 932.744 584.348 937.703 575.251 935.299C565.573 929.388 572.664 917.652 573.03 908.653C573.231 903.692 574.036 898.612 573.63 893.61C571.724 870.086 561.102 848.558 543.94 832.417C536.906 825.63 530.069 820.687 523.236 814.444C526.254 811.375 535.09 805.929 539.025 803.354Z"/><path fill="#296E65" d="M429.781 704.661C435.898 705.654 444.773 707.923 449.391 712.297C452.292 715.045 454.222 723.529 456.312 727.476C466.445 746.619 481.106 761.683 498.819 773.703C496.532 775.46 493.712 777.364 491.33 779.061C488.058 781.408 484.844 783.824 481.323 785.774C455.374 764.211 433.619 739.718 429.781 704.661Z"/><path fill="#296E65" d="M462.902 891.099L525.362 891.098C536.075 891.095 549.062 890.771 559.591 891.267C559.851 893.995 560.627 901.262 559.56 903.602L558.557 903.831C547.164 903.899 467.264 905.026 462.218 903.196C460.43 900.671 460.525 893.313 462.902 891.099Z"/><path fill="#296E65" d="M472.661 861.054C496.702 860.617 521.034 861.155 545.093 861.043C552.238 861.01 553.572 867.572 555.188 873.526L548.625 873.668C523.474 874.4 491.012 874.298 465.906 873.542C467.029 869.344 469.512 864.078 472.661 861.054Z"/><path fill="#296E65" d="M483.204 742.113L538.155 742.07C536.225 744.543 533.6 747.121 531.386 749.412L524.929 754.45C518.989 755.354 507.811 755.116 501.615 755.057C494.444 754.988 487.735 747.394 483.204 742.113Z"/><path fill="#296E65" d="M499.399 831.121C506.453 830.744 514.963 830.818 522.022 831.096C527.49 834.498 531.247 838.846 535.632 843.499L521.436 843.607C509.479 843.682 497.522 843.58 485.567 843.302C489.307 839.355 494.946 834.188 499.399 831.121Z"/><path fill="#296E65" d="M204.84 450.127L204.228 449.725C198.961 446.304 188.258 441.612 182.158 438.776C169.139 432.611 155.977 426.754 142.682 421.209C105.187 405.585 53.4026 386.382 42.6766 341.844C39.7642 329.75 41.4678 317.24 48.2261 306.654C51.6366 301.268 55.9541 296.513 60.9873 292.601C83.0312 275.138 128.131 259.684 155.088 253.334C189.766 245.165 228.442 254.899 257.901 274.185C278.768 287.847 295.747 306.264 311.812 325.184C316.74 330.988 323.898 339.208 327.953 345.537C313.621 350.106 301.707 353.838 294.408 368.339C280.442 396.084 299.149 417.668 296.798 443.91C295.185 461.922 276.959 473.827 267.128 486.004C259.67 495.242 254.772 506.279 252.925 518.007C251.401 528.122 252.032 535.785 255.019 545.517C261.444 566.457 277.143 576.412 292.662 590.307C240.901 607.369 199.887 624.369 143.496 621.523C75.9658 618.114 39.8145 567.668 7.44129 514.716C4.21778 509.444 2.64635 503.753 0 498.458L0 459.003C2.71204 454.95 4.88592 450.348 7.82168 446.594C15.5932 436.656 31.6493 429.714 43.7327 427.383C76.0374 421.151 111.747 430.147 143.621 436.621C163.3 440.618 185.458 445.309 204.84 450.127Z"/></svg>