<?xml version="1.0" encoding="utf-8" ?><svg xmlns="http://www.w3.org/2000/svg" xmlns:xlink="http://www.w3.org/1999/xlink" width="1024" height="1024" viewBox="0 0 1024 1024"><path fill="#1E706A" d="M511.882 228.393C516.413 230.584 538.885 249.228 544.374 253.614L611.937 307.282L896.693 534.333C897.17 539.002 896.976 546.468 896.978 551.33L896.978 579.939L896.97 671.701L896.958 967.958C855.282 967.103 811.024 967.921 769.092 967.858L769.068 604.004C745.036 603.24 717.366 603.897 693.103 603.897L552.546 603.966C553.403 609.57 552.955 636.392 552.942 643.75L552.881 967.929L127.102 967.848L127.128 535.025C131.652 530.862 140.613 524.177 145.619 520.241C155.846 512.231 166.006 504.137 176.099 495.96L299.932 397.308L456.708 271.935C474.68 257.707 493.673 242.027 511.882 228.393ZM255.113 795.141C300.643 794.568 346.558 795.443 392.107 795.057C409.554 794.91 428.823 795.565 446.083 795.022L446.051 603.963L331.109 603.901C306.002 603.902 280.076 603.575 255.025 603.97L254.999 725.405C255.003 748.396 254.644 772.255 255.113 795.141Z"/><path fill="#1E706A" d="M512.007 72.9339C517.765 75.2176 533.47 89.1284 538.962 93.5984L582.966 129.407L665.505 195.702C678.302 206.023 693.088 217.256 705.309 228.018C705.745 218.018 705.264 204.145 705.206 193.861L705.092 129.076C719.375 128.636 736.096 129.032 750.555 129.031L839.888 129.012C840.352 152.117 839.955 176.701 839.958 199.906L839.967 335.507C879.282 366.41 918.347 397.631 957.157 429.166L999.866 463.385C1006.86 469.029 1016.73 476.552 1023.06 482.643C1020.01 488.078 1011.92 498.007 1007.93 503.057L989.989 526.038C984.594 532.878 978.63 540.116 973.847 547.331C970.209 544.039 965.032 540.162 961.117 536.969C951.341 528.934 941.488 520.992 931.561 513.146L855.927 452.708L568.563 223.116C563.265 218.246 554.674 212.103 548.921 207.55L512.036 178.221L266.99 374.216L140.727 475.172C110.82 499.14 80.6675 523.774 50.4724 547.292C47.9517 544.708 43.9612 539.226 41.6262 536.184L26.5398 516.529C20.3866 508.52 5.30813 490.214 1.05629 482.623C7.50737 476.718 19.4255 467.765 26.4621 462.16L79.0039 420.265L275.593 262.552L440.211 130.307C452.943 120.123 465.574 109.525 478.429 99.4223C488.871 91.2163 500.96 80.0224 512.007 72.9339Z"/></svg>