<?xml version="1.0" encoding="utf-8" ?><svg xmlns="http://www.w3.org/2000/svg" xmlns:xlink="http://www.w3.org/1999/xlink" width="1024" height="1024" viewBox="0 0 1024 1024"><path fill="#1E706A" d="M504.831 293.219C511.228 292.765 520.239 293.203 526.563 293.656C559.076 295.858 590.651 305.489 618.858 321.807C670.171 351.173 707.769 399.661 723.432 456.67C756.305 580.888 672.503 706.158 547.093 727.357C542.638 728.11 528.779 729.611 526.575 732.12C514.227 746.176 526.392 779.63 517.867 794.59C512.39 799.181 505.113 796.498 503.536 789.515C502.713 785.87 503.369 781.628 503.103 778.275C502.176 766.559 506.719 738.875 496.423 731.315C493.87 729.44 467.624 725.654 462.837 724.493C304.399 686.051 238.227 495.108 347.076 369.797C378.848 332.888 421.883 307.461 469.541 297.44C482.578 294.808 491.777 294.149 504.831 293.219ZM521.73 713.229C633.057 707.835 718.903 613.163 713.409 501.84C707.916 390.518 613.167 304.757 501.85 310.35C390.673 315.935 305.044 410.538 310.53 521.72C316.016 632.902 410.543 718.615 521.73 713.229Z"/><path fill="#1E706A" d="M506.051 323.015C610.223 319.738 697.351 401.484 700.714 505.654C704.077 609.825 622.402 697.02 518.235 700.468C413.946 703.92 326.628 622.13 323.261 517.839C319.895 413.547 401.756 326.296 506.051 323.015ZM546.652 676.061C551.361 672.033 553.906 669.342 556.705 663.236C561.586 652.232 559.535 635.088 576.516 635.5C581.954 635.941 587.013 640.04 591.855 641.896C614.745 650.673 643.191 634.35 645.156 609.543C646.4 593.838 640.686 594.286 656.493 587.285C681.249 576.322 675.439 535.069 648.111 531.441C644.962 530.978 636.7 531.242 635.569 528.776C630.984 518.78 628.584 509.046 617.333 503.967C612.428 501.752 605.471 499.31 599.302 500.207C589.465 501.204 581.653 504.086 575.171 511.991C572.953 514.698 571.202 517.755 569.99 521.037C568.783 524.346 567.686 536.187 564.003 536.282C561.048 536.358 554.953 533.877 551.877 533.266C528.139 528.225 505.564 546.642 505.943 571.015C506.072 576.206 507.318 581.307 509.597 585.972C513.479 593.937 522.627 602.425 514.579 611.658C511.425 615.089 506.923 617.092 503.133 619.722C493.001 626.753 487.959 636.653 488.15 648.85C488.469 669.239 505.191 684.591 525.386 683.929C533.25 683.671 540.309 680.678 546.652 676.061ZM404.627 435.515L404.267 436.072C402.033 439.481 399.12 442.513 397.088 445.895C385.999 464.356 392.879 488.86 410.621 500.362C421.265 507.263 431.391 508.054 443.248 505.939C462.313 501.237 474.299 486.751 474.993 466.914C475.267 459.073 471.877 455.738 479.739 450.163C509.257 429.231 505.796 384.637 475.242 366.475C465.378 360.665 453.812 358.436 442.496 360.163C428.565 362.464 416.859 368.68 408.454 380.271C400.653 390.974 397.393 404.324 399.384 417.418C400.458 424.156 403.504 429.637 404.627 435.515ZM416.22 630.038C443.602 622.825 454.239 594.014 436.376 570.911C430.254 562.993 417.92 561.854 415.95 549.807C412.428 535.457 402.33 525.15 386.751 525.211C356.762 528.155 355.892 553.985 358.832 577.968C361.784 602.051 385.538 634.335 412.555 630.611C413.78 630.438 415.002 630.247 416.22 630.038ZM626.473 476.769C670.246 469.146 664.268 407.605 629.499 393.32C617.313 388.313 607.972 383.628 594.34 385.19C584.388 386.448 575.828 389.237 569.401 397.534C564.386 403.967 562.145 412.136 563.178 420.228C564.153 427.519 567.819 434.734 573.86 439.016C577.366 441.734 582.068 443.707 584.806 447.296C587.673 451.053 588.752 456.178 591.095 460.263C598.11 472.495 612.76 478.582 626.473 476.769ZM534.251 519.973C557.679 517.976 575.047 497.357 573.034 473.931C571.021 450.505 550.39 433.151 526.965 435.18C503.563 437.207 486.23 457.813 488.241 481.217C490.252 504.62 510.846 521.968 534.251 519.973ZM478.508 570.264C485.216 567.81 490.969 564.244 494.167 557.455C496.262 553.102 496.495 548.084 494.814 543.555C491.626 535.026 485.113 533.151 478.712 528.282C469.568 521.327 466.346 514.481 453.366 516.108C423.831 527.74 437.51 580.102 478.508 570.264ZM369.986 424.331C364.351 426.028 361.162 431.976 362.868 437.608C364.573 443.241 370.526 446.42 376.156 444.706C381.773 442.995 384.944 437.058 383.243 431.438C381.541 425.818 375.609 422.638 369.986 424.331ZM476.649 591.767C472.847 592.72 469.855 595.65 468.823 599.431C467.79 603.212 468.878 607.256 471.669 610.008C474.459 612.76 478.517 613.793 482.284 612.709C487.969 611.073 491.294 605.182 489.757 599.469C488.22 593.756 482.388 590.33 476.649 591.767ZM452.739 667.787C462.752 666.9 470.166 658.089 469.328 648.072C468.491 638.055 459.717 630.597 449.696 631.385C439.604 632.178 432.083 641.028 432.926 651.115C433.769 661.203 442.656 668.68 452.739 667.787ZM660.56 476.707C648.471 477.669 639.424 488.205 640.301 500.3C641.179 512.395 651.653 521.515 663.753 520.721C675.973 519.919 685.202 509.32 684.316 497.106C683.43 484.893 672.767 475.737 660.56 476.707ZM528.312 340.185C518.279 341.429 512.536 344.295 506.022 351.728C499.512 359.157 501.34 373.851 509.803 377.99C517.242 381.629 529.278 390.49 536.3 393.375C572.381 401.95 568.028 336.161 528.312 340.185ZM358.732 472.208C346.629 474.159 338.394 485.545 340.331 497.65C342.268 509.755 353.645 518.003 365.752 516.08C377.879 514.154 386.143 502.754 384.203 490.63C382.263 478.505 370.854 470.254 358.732 472.208Z"/><path fill="#1E706A" d="M598.709 512.162C604.532 511.958 606.384 512.597 611.592 514.879C623.107 519.926 620.492 532.836 629.843 539.572C636.384 544.284 645.037 541.927 651.937 546.067C655.588 548.259 658.522 551.94 659.298 556.201C663.817 581.033 640.647 573.934 634.549 588.421C630.31 598.492 636.82 607.282 629.166 618.991C622.391 629.356 610.024 634.351 598.283 630.786C587.991 627.662 582.105 621.236 569.364 624.453C564.968 625.563 561.794 627.231 558.181 629.927C547.433 637.947 549.994 650.883 544.429 660.065C523.007 691.32 482.129 653.064 509.083 630.698C515.585 625.303 521.118 624.11 525.961 616.138C527.93 612.903 529.19 609.286 529.657 605.528C531.968 587.23 507.935 577.303 522.739 555.964C525.412 552.095 529.039 548.982 533.269 546.926C548.01 539.802 556.964 550.794 567.257 548.184C588.052 542.912 571.296 516.934 598.709 512.162ZM556.278 605.072L556.725 604.624C568.068 593.431 580.692 610.581 582.175 595.969C582.703 590.763 569.539 587.514 564.817 588.164C554.815 589.549 543.757 595.145 542.767 606.655C542.444 610.414 545.61 614.416 549.652 612.538C553.776 610.98 554.167 608.298 556.278 605.072ZM598.789 583.441C606.39 581.138 604.017 576.205 603.095 569.814C604.305 567.604 605.006 566.417 607.021 564.859C612.951 560.275 616.587 552.209 605.731 551.586C591.935 554.963 584.231 579.923 598.789 583.441Z"/><path fill="#1E706A" d="M443.352 372.132C450.584 371.563 456.147 371.567 463.04 374.163C487.858 383.509 496.734 415.889 477.87 435.417C473.455 439.987 466.463 444.55 464.039 450.553C460.634 458.986 464.624 468.923 460.438 477.44C456.492 486.022 450.94 490.169 442.673 493.76C442.077 493.939 441.475 494.096 440.868 494.232C425.019 497.719 408.455 488.178 404.772 471.813C402.217 460.464 406.971 452.283 413.452 443.401C420.077 434.323 413.576 426.703 411.794 417.98C409.802 407.842 411.855 397.327 417.514 388.682C423.611 379.53 432.701 374.219 443.352 372.132ZM432.125 414.725C436.178 409.933 434.298 403.122 439.755 398.806C444.685 394.907 463.424 393.412 452.201 383.713C450.602 382.331 447.035 382.826 445.003 383.082C432.602 386.913 421.647 395.551 422.55 410.401C422.872 415.691 427.742 416.647 432.125 414.725Z"/><path fill="#1E706A" d="M383.9 537.566C405.294 534.871 401.255 556.25 410.141 566.444C416.104 573.286 424.115 573.089 429.853 583.029C432.981 588.525 433.773 595.047 432.051 601.133C429.883 608.518 424.981 613.012 418.589 616.663C398.048 624.545 381.325 604.821 374.284 587.601C369.936 576.969 368.369 557.88 372.453 546.967C374.304 542.022 379.062 539.173 383.9 537.566Z"/><path fill="#1E706A" d="M593.737 397.162C605.508 396.727 608.93 398.105 620.025 402.653C631.037 406.999 638.059 412.436 642.398 423.649C649.185 441.185 646.156 457.122 626.894 464.27C604.418 467.56 602.902 453.727 594.702 439.463C591.255 433.468 576.115 429.723 575.238 418.653C574.233 405.966 582.511 398.97 593.737 397.162Z"/><path fill="#1E706A" d="M528.441 447.475C539.277 446.654 549.718 451.724 555.772 460.748C561.826 469.773 562.559 481.356 557.69 491.071C552.82 500.786 543.102 507.131 532.249 507.681C515.757 508.518 501.658 495.938 500.616 479.458C499.574 462.978 511.976 448.723 528.441 447.475Z"/><path fill="#1E706A" d="M456.049 528.007C463.592 527.907 465.332 534.093 470.299 537.301C478.849 542.823 492.441 549.978 476.347 558.279C472.697 559.486 469.116 560.058 465.282 559.425C460.469 558.642 456.182 555.935 453.406 551.926C448.47 544.688 447.877 533.241 456.049 528.007Z"/><path fill="#1E706A" d="M528.497 352.088C536.847 351.875 543.966 355.226 547.407 363.119C550.678 370.623 550.06 386.467 537.835 380.82C533.048 377.569 527.674 374.102 522.472 371.555C507.769 364.359 516.271 354.355 528.497 352.088Z"/><path fill="#1E706A" d="M360.418 484.251C365.798 483.256 370.977 486.778 372.028 492.148C373.079 497.517 369.611 502.732 364.253 503.839C360.736 504.566 357.101 503.348 354.732 500.649C352.363 497.951 351.627 494.188 352.803 490.796C353.979 487.403 356.887 484.904 360.418 484.251Z"/><path fill="#1E706A" d="M660.569 488.908C665.869 487.873 671.001 491.341 672.018 496.644C673.035 501.947 669.549 507.067 664.243 508.066C658.962 509.059 653.872 505.594 652.861 500.317C651.849 495.04 655.296 489.939 660.569 488.908Z"/><path fill="#1E706A" d="M449.905 643.77C452 643.32 454.175 644.032 455.598 645.634C457.021 647.236 457.471 649.481 456.775 651.508C456.08 653.534 454.347 655.03 452.241 655.422C449.046 656.015 445.967 653.933 445.329 650.747C444.69 647.562 446.729 644.454 449.905 643.77Z"/><path fill="#1E706A" d="M583.559 357.877C587.362 357.095 591.093 359.497 591.956 363.283C592.82 367.068 590.499 370.85 586.732 371.794C584.223 372.423 581.569 371.646 579.797 369.761C578.024 367.877 577.409 365.182 578.19 362.715C578.971 360.249 581.025 358.398 583.559 357.877Z"/><path fill="#1E706A" d="M526.455 408.086C528.941 407.534 531.532 408.371 533.226 410.274C534.919 412.177 535.449 414.848 534.611 417.253C533.82 419.526 531.919 421.236 529.575 421.783C525.783 422.669 521.994 420.3 521.129 416.503C520.265 412.707 522.653 408.931 526.455 408.086Z"/><path fill="#1E706A" d="M578.367 653.512C588.666 653.105 591.211 661.868 581.929 667.532C572.925 666.545 569.86 658.954 578.367 653.512Z"/><path fill="#1E706A" d="M424.658 18.1504C484.875 15.6355 497.34 87.6719 503.968 133.222C506.495 149.784 508.619 166.405 510.336 183.07C512.153 175.866 512.616 166.402 513.639 158.856C517.972 125.696 519.443 88.7007 535.198 58.6131C547.094 36.5516 568.15 14.1892 595.548 18.2807C623.114 22.3972 639.452 45.4925 655.71 65.681C667.166 79.9054 679.258 94.5186 688.263 110.495C692.955 118.993 696.776 127.944 699.667 137.211C716.01 189.991 700.573 239.381 675.851 286.291C672.405 293.212 660.784 313.776 655.966 318.301C648.005 312.782 640.289 307.117 631.968 302.138C607.818 287.978 581.334 278.243 553.762 273.39C501.972 264.432 446.123 272.83 399.617 297.776C385.729 305.225 377.549 312.096 365.231 320.79C360.027 315.169 354.398 305.634 350.4 298.951C333.898 271.365 319.013 239.084 315.06 206.848C308.472 153.114 321.227 120.97 353.008 79.543C358.792 72.0509 364.72 64.6712 370.789 57.408C385.002 40.1858 400.941 21.2672 424.658 18.1504Z"/><path fill="#1E706A" d="M296.496 626.534L298.005 626.495C300.944 627.658 301.547 630.938 303.029 633.458C335.88 689.319 390.856 730.356 453.622 746.408C459.861 748.003 466.251 748.792 472.404 750.586L473.038 750.776C475.67 758.047 476.151 780.22 476.538 788.972C464.502 794.389 454.565 799.231 444.852 807.592C410.896 836.824 399.534 889.597 420.95 929.434C422.574 932.455 429.214 943.2 429.033 945.69C427.122 948.899 423.484 951.856 420.463 954.357C387.282 981.713 341.945 993.402 299.832 997.616C274.019 1000.2 250.708 992.198 241.802 965.716C233.503 941.039 240.185 914.267 251.184 891.365C256.037 880.441 266.576 864.596 273.318 854.276C282.681 840.103 291.797 825.768 300.663 811.278C305.412 803.552 311.189 794.41 315.263 786.451C310.304 790.778 304.387 797.532 299.566 802.465L254.161 849.202C234.489 869.504 216.667 890.856 189.387 900.142C112.008 925.274 107.388 845.947 111.115 791.745C115.372 729.843 138.423 691.363 194.876 662.854C228.156 646.047 261.649 638.38 296.496 626.534Z"/><path fill="#1E706A" d="M829.687 251.226C840.624 250.912 852.317 251.484 863.039 253.803C892.169 260.103 954.243 280.327 970.345 305.483C977.811 317.148 979.79 330.293 976.733 343.8C967.615 384.084 913.021 406.12 879.018 420.582C865.435 426.258 851.954 432.176 838.582 438.332C832.231 441.274 822.187 445.812 816.445 449.523L815.819 449.932C823.307 448.816 834.607 445.895 842.338 444.261C857.815 441.008 873.313 437.855 888.831 434.802C924.5 427.469 973.625 416.059 1005.14 440.407C1014.74 447.89 1020.95 458.905 1022.37 470.993C1024.93 492.028 1015.38 512.012 1003.96 528.985C998.142 537.629 992.682 545.986 986.234 554.202C984.329 557.312 980.478 561.682 978.216 564.553C957.791 590.488 932.119 611.398 899.035 618.296C886.666 621.253 874.312 620.796 861.808 621.02C838.377 621.44 815.903 617.737 793.378 611.284C775.608 606.193 757.873 599.192 739.95 594.085C743.576 579.409 747.623 570.359 750.516 553.92C761.036 494.811 748.819 433.91 716.316 383.431C711.935 376.51 705.041 366.122 699.75 360.1C688.363 347.139 689.617 348.69 700.052 335.406C735.538 290.23 769.796 257.431 829.687 251.226Z"/><path fill="#1E706A" d="M724.485 626.865C735.847 630.012 748.621 634.717 760.154 638.231C795.576 649.022 826.296 659.852 855.883 682.774C889.999 709.205 902.414 740.066 907.343 782.102C910.285 814.599 912.601 860.22 893.109 887.693C880.228 905.85 856.98 907.361 837.497 902.133C810.637 894.925 794.579 878.067 775.769 859.05C763.966 847.117 751.54 835.724 740.221 823.264C729.535 811.995 715.849 795.974 704.18 786.475C709.066 795.322 715.237 803.549 720.115 812.21C734.592 837.914 753.242 862.992 766.968 888.862C776.725 906.943 781.578 927.264 781.044 947.802C780.678 961.5 775.908 975.994 765.745 985.571C754.057 996.585 739.78 998.617 724.224 997.905C683.415 996.038 621.089 977.944 592.761 947.506C593.998 944.231 600.136 935.037 602.319 931.057C611.173 914.57 615.134 895.897 613.736 877.235C611.129 845.955 598.045 823.765 574.514 803.911C576.968 799.113 578.856 796.164 580.133 790.789C583.33 777.327 576.653 762.846 564.466 756.366C560.891 754.466 556.89 753.48 553.637 751.114C553.624 749.959 559.601 748.81 560.959 748.545C620.189 736.973 672.636 700.961 708.337 652.802C714.465 644.535 718.602 635.747 724.196 627.296L724.485 626.865Z"/><path fill="#1E706A" d="M487.021 810.564C489.71 810.516 489.319 810.131 491.358 811.255C493.403 814.451 485.732 835.752 484.571 842.434C489.931 846.391 503.343 852.696 507.022 856.011C511.671 860.2 501.293 881.81 508.575 889.06C509.401 889.432 510.27 889.834 511.171 889.613C517.982 887.939 543.965 864.019 547.264 859.558C547.439 852.66 544.73 842.276 543.085 835.28C547.352 832.519 551.967 830.339 556.809 828.797C559.89 827.831 564.068 826.993 566.771 828.92C576.319 835.728 585.358 853.349 587.733 864.3C592.816 887.734 589.743 906.072 577.768 926.032C567.311 941.926 551.6 953.637 533.382 959.118C513.697 965.032 492.424 962.093 474.512 952.229C456.211 942.327 442.655 925.488 436.888 905.495C431.206 885.091 433.802 863.27 444.112 844.768C453.45 828.244 468.831 815.983 487.021 810.564ZM557.36 926.816C567.528 922.155 574.812 900.468 575.272 889.832C575.574 882.849 576.42 876.043 567.623 875.972C560.851 879.803 563.916 890.829 561.685 897.472C560.435 901.194 558.876 904.526 557.003 907.974C554.761 912.781 548.777 919.046 551.587 924.474C552.414 926.071 555.652 926.972 557.36 926.816ZM566.917 866.589C575.013 862.156 571.164 852.17 562.444 852.519C554.752 857.492 559.332 866.76 566.917 866.589Z"/><path fill="#1E706A" d="M547.649 775.46C575.048 774.707 531.462 822.8 530.656 830.668C529.986 837.213 533.146 846.362 534.183 853.156C531.342 856.03 527.225 858.991 523.762 861.097L522.214 861.45L521.722 860.952C521.678 859.469 522.585 855.254 523.118 853.797C526.329 845.015 510.406 836.695 513.438 829.819C521.063 812.529 532.242 796.232 542.074 780.075C543.275 778.101 545.716 776.574 547.649 775.46Z"/><path fill="#1E706A" d="M0 459.936C3.817 453.123 7.06277 446.002 13.4751 441.197C47.0451 416.038 94.9269 426.909 132.494 434.608C147.612 437.569 162.688 440.746 177.715 444.14C181.421 444.964 202.004 450.08 203.681 449.917C202.884 446.405 149.118 423.803 142.707 421.019C106.41 405.255 56.9756 387.645 43.9093 345.763C26.1295 288.773 108.581 267.421 147.981 255.529C183.234 244.888 220.566 253.193 251.918 270.741C278.356 285.642 303.376 314.884 322.297 338.511C324.076 340.732 330.422 348.265 331.191 350.355C330.651 352.6 328.734 354.776 327.245 356.53C279.853 412.345 261.123 484.826 274.114 556.564C275.324 563.529 276.99 570.407 279.101 577.154C280.383 581.238 283.212 589.179 284.022 592.891C272.823 597.556 260.031 600.982 248.46 604.824C210.493 617.434 171.912 625.46 131.797 620.339C84.738 614.332 52.2826 581.047 26.5558 544.008C17.4192 530.854 7.87067 517.801 2.08306 502.706C1.55578 501.332 0.725449 499.043 0 497.905L0 459.936Z"/></svg>