<?xml version="1.0" encoding="utf-8" ?><svg xmlns="http://www.w3.org/2000/svg" xmlns:xlink="http://www.w3.org/1999/xlink" width="1024" height="1024" viewBox="0 0 1024 1024"><path fill="#1E706A" d="M381.094 341.592C347.496 301.208 317.01 246.419 313.762 193.369C310.131 148.575 326.032 112.667 353.942 78.3415C374.543 53.0046 403.171 7.93686 442.441 19.6476C490.143 33.8726 497.892 94.8601 504.456 136.76C506.855 152.075 509.349 168.335 510.242 183.841C512.231 176.45 512.306 168.443 513.328 160.859C518.507 122.411 519.253 77.6048 543.357 45.2711C552.39 33.1546 566.612 20.4976 582.136 18.3398C596.603 16.3289 611.217 21.1423 622.651 29.9612C642.213 45.0499 680.998 95.6623 692.05 118.418C698.498 131.693 703.285 147.37 705.174 162.054C713.814 229.196 675.414 295.608 636.045 346.845C629.831 346.12 623.71 344.447 617.464 345.967C596.117 351.163 610.149 369.612 605.855 375.118C604.198 377.242 600.413 377.674 597.914 378.141C586.161 380.564 574.581 383.01 568.772 394.985C566.969 398.702 566.509 401.433 566.23 405.487C565.508 415.992 573.177 425.331 570.382 435.795C567.56 445.716 554.359 446.741 546.825 450.961C538.815 455.446 533.683 462.319 531.341 471.1C530.326 474.863 528.897 483.836 530.848 487.576C531.522 488.869 533.902 489.987 535.4 489.986C545.409 489.979 540.787 475.111 546.901 467.066C555.358 455.935 565.192 460.059 575.136 451.018C583.688 443.244 585.09 433.215 582.677 422.535C581.506 417.356 578.396 409.392 579.173 404.256C581.796 386.915 603.337 394.017 613.069 384.708C619.5 378.557 619.206 373.795 619.606 366.124C638.321 367.037 657.969 378.927 667.159 395.268C662.161 395.873 652.526 398.425 653.225 405.019C656.681 411.103 668.439 406.919 673.85 407.025C691.896 407.378 704.104 420.832 710.179 436.512C685.354 436.005 672.755 459.793 691.242 477.539C697.247 484.162 702.507 488.614 704.669 497.877C706.451 505.514 687.785 534.521 709.674 529.477C712.657 528.79 710.795 522.602 711.568 520.574C716.785 506.818 719.357 500.885 713.592 486.84C708.73 474.996 683.214 460.071 701.196 449.666L701.773 449.339C722.492 447.95 742.863 473.268 743.692 492.795C744.162 503.867 744.516 516.234 733.758 522.835C730.159 525.043 725.434 527.548 726.135 532.199C726.353 533.715 727.198 535.07 728.464 535.933C736.086 541.227 747.632 527.26 751.306 522.092C752.718 524.501 754.054 526.996 754.966 529.644C764.306 556.771 757.674 593.201 731.429 608.54C713.132 619.234 691.038 615.622 671.066 613.625C664.872 613.006 658.769 612.906 652.588 612.805C654.266 607.986 655.751 603.103 657.04 598.167C655.782 595.18 654.89 593.242 651.83 591.869C645.505 591.409 643.999 601.707 641.51 605.798C639.038 609.861 635.01 615.125 630.781 617.35C613.248 626.578 605.283 611.712 595.329 604.024C590.355 600.104 584.596 597.298 578.444 595.796C545.012 587.811 542.73 617.02 526.502 618.593C516.391 619.573 496.851 610.513 488.138 616.97C486.838 617.934 486.065 619.081 485.92 620.722C485.784 622.27 486.061 623.495 487.069 624.695C490.559 626.163 496.34 624.5 500.451 625.917C515.942 631.256 530.015 635.587 543.962 623.87C546.548 621.502 549.509 618.478 551.723 615.798C560.676 604.954 573.302 604.694 584.719 611.758C589.597 614.775 596.983 620.579 598.714 626.432C598.934 627.175 599.081 628.163 598.328 628.81C583.227 638.618 563.834 641.357 547.994 649.086C524.935 660.338 502.581 673.122 476.396 675.642C455.999 677.605 426.767 670.889 410.746 657.477C400.974 649.402 394.841 637.75 393.718 625.122C392.896 615.167 397.548 597.935 405.047 591.007C422.653 574.74 442.234 552.922 467.496 550.413C476.048 549.563 489.538 549.941 496.509 546.252C515.465 536.221 518.5 525.443 541.529 522.637C548.99 521.783 556.541 522.164 563.879 523.763C567.581 524.575 577.593 529.74 579.216 528.874C592.03 522.041 579.576 515.389 573.914 512.824C580.279 506.125 583.075 504.742 588.366 496.446C594.633 487.079 593.882 472.963 604.012 466.535C610.746 462.262 624.028 463.37 621.987 473.951C621.2 478.028 616.443 484.199 618.433 487.968C624.955 491.848 637.483 478.469 634.961 469.421C630.845 454.653 617.868 449.368 604.223 452.871C585.834 457.591 584.34 476.856 577.129 490.899C564.266 514.509 539.83 502.182 518.945 511.877C501.007 520.203 491.452 541.489 470.113 528.968C439.443 510.973 474.623 476.325 445.548 457.568C426.72 445.421 396.803 455.891 393.638 479.414C390.297 506.253 379.124 498.664 359.584 501.912C345.652 504.227 334.41 523.034 338.244 536.698C339.595 541.481 342.277 545.781 345.98 549.096C358.253 560.022 368.022 552.265 381.267 555.571C388.717 557.43 392.404 564.225 398.482 567.753C401.235 569.351 403.026 568.404 405.848 567.421C390.378 578.149 383.613 591.091 377.536 608.263C369.826 610.728 356.758 610.572 348.296 610.753C318.834 611.383 273.358 592.371 274.03 557.404C274.129 552.243 275.975 547.498 280.011 543.943C283.239 541.074 287.536 539.717 291.826 540.21C308.596 542.074 308.662 561.568 318.015 572.145C327.395 583.239 341.519 589.219 355.857 590.057C360.051 590.303 362.117 589.084 364.08 585.516C365.341 583.224 364.056 579.49 362.083 578.345C360.274 577.296 354.99 577.424 352.907 577.054C339.781 574.726 327.336 568.272 322.49 555.085C319.241 548.129 315.376 540.598 309.555 535.479C296.974 524.416 279.676 525.765 268.854 538.312C256.9 508.097 273.473 458.404 311.966 456.316C315.562 456.121 320.692 458.781 320.339 462.894C319.652 470.913 324.966 477.49 331.753 470.557C333.682 468.609 332.84 462.9 332 459.914C326.414 440.062 309.264 443.039 294.069 447.453C300.247 423.967 314.153 411.375 334.072 399.475C329.092 420.45 339.853 437.166 362.2 426.135C369.44 422.561 376.876 428.003 378.503 435.263C382.088 451.265 358.407 452.909 353.524 465.868C351.82 470.391 350.475 472.762 351.932 477.527C353.501 482.719 359.025 480.398 361.199 477.233C363.204 474.315 364.3 471.293 366.817 468.708C374.411 460.798 385.848 458.264 389.8 446.998C396.018 429.273 381.77 409.176 362.313 413.434C358.48 414.273 350.18 417.887 346.848 416.673C342.785 410.912 346.157 400.794 349.001 395.029C359.873 372.994 381.102 360.727 404.791 358.318C399.056 367.927 389.288 372.297 390.493 387.611C391.251 397.251 397.513 400.65 403.78 406.064C412.395 412.846 404.474 417.693 404.741 423.642C405.023 429.917 415.06 428.576 417.445 422.554C420.2 415.598 421.565 410.113 417.562 403.077C413.787 396.443 405.272 394.539 402.994 387.247C400.836 378.478 412.791 370.305 416.128 362.881C418.239 358.874 419.834 351.77 418.051 347.277C412.065 332.198 391.098 338.342 381.094 341.592ZM367.007 296.198C371.787 300.89 398.868 317.223 405.273 318.406C409.595 317.047 439.4 300.269 441.713 296.719C444.061 293.114 443.312 261.722 442.891 255.59C438.651 249.496 428.72 245.102 422.282 241.181C418.266 238.735 408.708 232.185 404.499 231.903C399.341 234.114 368.256 251.066 367.563 255.167C365.763 265.807 366.397 284.988 367.007 296.198ZM559.615 363.835L560.301 363.729C570.598 362.22 585.126 365.749 591.522 354.141C595.287 347.308 605.83 326.767 603.922 319.868C599.983 305.627 585.173 287.051 568.996 289.071C565.395 290.304 561.093 291.817 557.39 292.567C547.482 294.459 539.066 293.701 534.128 304.304C532.499 307.8 531.237 313.435 529.775 316.337C526.499 322.842 524.029 323.704 523.765 331.674C523.46 340.861 526.219 346.623 532.727 352.98C542.303 362.889 546.017 364.989 559.615 363.835ZM472.177 394.09C480.135 392.118 499.823 382.254 504.001 375.227C505.511 372.64 506.451 369.761 506.76 366.782C507.361 361.332 505.959 356.291 505.498 350.937C505.112 346.206 505.98 340.987 504.579 336.376C502.716 330.241 497.876 326.271 492.351 323.497C483.862 319.236 476.487 312.964 466.335 314.184C453.106 315.965 452.937 319.149 443.608 327.802C441.203 330.032 437.726 331.683 435.463 334.764C430.342 341.736 429.219 350.012 430.443 358.218C432.334 370.895 438.564 372.691 446.854 380.127C449.866 382.829 452.596 387.274 456.346 389.882C461.304 393.33 466.273 394.16 472.177 394.09ZM548.304 553.573C549.455 550.444 552.498 544.824 551.522 542.445C550.252 541.664 550.039 541.485 548.404 541.883C526.323 547.25 533.433 574.524 512.226 580.552C505.582 582.44 497.734 582.238 491.401 579.277C487.344 577.282 482.981 569.409 478.092 570.326C476.015 572.905 477.55 577.618 478.393 580.439C473.882 582.149 468.946 583.858 465.046 586.961C456.835 593.497 455.165 601.359 445.094 606.401C437.881 611.375 427.466 599.17 423.01 606.982C422.405 608.042 422.413 610.538 422.972 611.519C425.849 616.568 433.079 618.211 438.253 619.336C435.647 633.2 439.464 643.502 451.611 650.986C459.285 654.52 466.805 655.197 475.691 652.272C477.423 651.701 496.604 644.815 488.121 636.481C486.252 634.645 476.788 638.946 474.918 639.829C462.074 646.188 446.164 637.584 450.268 622.257C451.669 617.026 458.771 612.055 462.179 608.005C465.24 604.624 468.22 600.516 471.563 597.577C473.69 595.725 476.044 594.149 478.566 592.888C485.419 589.482 491.608 592.969 498.786 593.926C503.009 594.479 507.293 594.343 511.472 593.524C534.055 588.92 534.722 572.847 544.301 567.291C553.363 562.034 578.202 579.153 596.814 564.993C604.029 561.06 608.327 548.298 614.121 544.206C624.468 536.9 633.361 534.907 637.775 521.269C640.268 513.565 643.608 496.762 631.407 496.579C626.932 498.37 627.329 501.074 627.589 505.324C628.998 528.375 616.23 525.402 603.865 536.203C595.067 543.89 594.655 560.993 574.523 558.078C566.093 557.019 556.941 554.943 548.304 553.573ZM730.384 555.57C721.9 560.753 729.95 573.144 712.193 581.823C707.83 584.01 702.834 584.586 698.087 583.451C692.477 582.111 685.208 578.082 679.431 580.555C676.135 581.966 678.449 587.699 680.282 589.418C681.267 590.342 682.87 591.312 684.068 592.072C692.698 596.297 703.244 597.869 713.256 594.6C726.567 590.255 740.729 574.615 737.605 559.582C736.853 555.965 733.676 555.474 730.384 555.57ZM496.321 264.182C499.346 262.495 500.27 258.232 501.427 255.001C503.964 247.918 506.308 240.363 495.767 240.612C492.908 242.333 492.417 243.105 491.085 246.109C488.19 252.638 483.186 267.444 496.321 264.182ZM327.072 509.854C329.06 507.211 330.362 506.085 330.111 502.753C327.366 498.002 321.223 500.284 317.068 501.482C307.907 499.039 307.04 493.082 297.742 494.033C293.002 501.165 297.999 505.435 304.282 509.18C310.852 513.095 320.712 515.355 327.072 509.854ZM633.108 325.423C636.56 324.159 639.894 321.739 641.423 318.31C642.629 315.571 642.639 312.454 641.453 309.707C638.914 303.76 632.718 301.995 626.772 302.047C619.717 303.983 615.49 310.122 617.791 317.35C618.82 320.653 621.215 323.357 624.371 324.777C627.228 326.051 630.118 326.06 633.108 325.423ZM467.281 161.922C462.656 164.326 440.59 175.467 439.717 180.091C438.661 185.679 437.987 207.628 439.829 212.304C441.173 215.716 466.697 229.597 471.208 229.55C475.652 226.917 498.624 214.396 498.805 210.495C499.158 202.88 500.228 184.431 497.705 177.71C492.567 173.901 473.13 161.766 467.281 161.922ZM548.279 196.167C537.994 197.624 530.778 201.581 524.433 209.952C518.398 217.816 515.778 227.777 517.161 237.593C519.691 255.623 535.668 263.283 552.159 262.04C563.74 259.216 571.072 253.957 577.408 243.684C586.185 229.453 583.795 208.623 568.469 199.888C563.118 196.853 554.333 195.222 548.279 196.167ZM626.93 289.529C630.824 287.412 654.44 275.173 654.772 270.822C655.191 265.328 656.399 245.287 654.157 239.224C650.38 234.303 630.66 223.21 624.993 222.019C620.261 223.341 600.515 234.936 597.1 238.208C594.498 240.701 595.467 266.346 595.672 271.008C599.179 275.806 621.296 289.632 626.93 289.529ZM479.786 284.63C483.803 283.403 484.791 280.072 482.9 276.666C479.514 270.564 474.05 260.224 466.519 259.421C461.022 262.36 460.695 266.408 464.44 271.527C467.481 275.684 471.929 282.446 476.605 284.492C476.968 284.605 479.339 284.629 479.786 284.63ZM499.348 301.997C504.082 297.288 523.24 276.183 504.303 277.454C499.098 281.121 479.799 304.409 499.348 301.997ZM629.786 580.349C637.039 565.878 645.351 566.45 659.393 562.05C664.727 560.378 672.183 551.52 678.564 555.316C684.133 558.629 692.254 570.256 698.783 560.099C699.468 559.033 699.753 556.924 699.142 555.706C695.435 550.827 680.022 547.086 683.74 538.15C684.402 536.559 684.778 535.392 684.287 533.734C682.595 532.424 680.757 532.46 678.619 532.534C672.333 536.469 668.326 543.245 660.948 547.158C655.205 550.273 648.621 552.405 642.412 554.461C627.371 559.44 618.684 569.358 615.285 584.808C614.414 588.768 613.479 595.495 619.181 596.396C628.111 597.807 627.465 586.559 629.786 580.349ZM611.432 405.138C608.62 405.538 604.85 406.973 603.002 409.219C602.761 410.415 602.552 410.694 603.352 412.054C604.845 414.597 611.634 417.373 613.419 419.033C616.981 422.345 617.182 424.042 621.984 426.874C624.746 428.496 627.82 429.518 631.004 429.874C641.851 431.177 660.242 422.011 660.908 441.63C660.973 443.55 658.72 447.662 657.593 449.042C649.882 458.429 644.61 468.384 652.943 479.626C657.896 486.308 664.213 489.18 663.387 498.371C662.747 505.491 654.776 515.948 662.894 519.443C664.818 519.429 667.319 519.26 668.624 517.514C673.517 510.971 675.806 501.016 675.68 493.206C676.972 483.452 662.167 476.971 661.74 469.544C660.961 455.975 678.748 449.443 672.106 432.871C667.68 421.831 659.311 415.921 647.121 416.525C640.376 416.859 632.416 420.362 626.858 415.215C620.655 409.734 620.211 406.175 611.432 405.138ZM546.324 378.859C540.988 382.199 541.473 385.097 538.195 388.223C531.192 394.403 525.686 393.96 522.689 403.832C520.102 412.35 531.066 423.404 522.035 428.112C505.288 436.844 499.367 442.575 492.196 460.48C486.332 455.263 474.318 447.653 474.42 439.575C474.53 430.9 477.602 420.879 470.324 413.772C463.5 407.32 452.354 408.032 444.651 412.395C440.128 414.957 431.354 427.774 435.799 432.789C448.477 438.518 443.693 417.509 460.75 421.504C464.906 425.702 463.004 429.866 462.113 435.157C458.297 457.796 481.804 457.785 485.922 479.165C486.419 481.835 486.671 484.545 486.674 487.262C486.671 491.955 484.868 503.198 491.784 503.198C501.056 503.198 498.978 490.909 499.758 485.283C501.233 474.645 503.138 463.942 508.695 454.649C517.878 438.036 538.761 442.37 538.145 420.567C538.632 416.761 532.84 407.583 535.972 404.747C542.871 398.499 552.668 396.349 553.017 385.09C553.145 380.989 550.048 378.961 546.324 378.859Z"/><path fill="#1E706A" d="M404.159 245.884C409.206 246.791 426.413 257.785 430.548 261.354C431.16 266.392 430.908 284.274 430.624 289.838C426.295 293.272 412.153 300.623 406.21 304.596C402.527 305.203 383.644 292.705 379.54 289.998C378.811 283.636 378.794 266.814 379.375 260.539C383.597 257.387 399.188 248.697 404.159 245.884Z"/><path fill="#1E706A" d="M569.902 301.558C578.255 300.247 581.24 306.037 585.729 311.644C594.46 322.551 592.005 321.563 588.055 331.81C578.957 355.411 580.343 351.072 557.523 352.097C555.263 352.23 552.839 352.04 550.563 351.93C547.381 349.996 538.034 341.612 536.647 337.941C533.927 330.914 539.24 324.618 541.797 318.47C544.11 312.911 544.588 306.174 552.072 305.618C558.688 305.126 563.701 303.94 569.902 301.558Z"/><path fill="#1E706A" d="M465.887 326.122C467.17 326.055 470.68 325.811 471.937 326.494C477.136 329.322 490.425 334.903 492.835 339.914C494.371 343.104 492.854 349.676 493.014 352.983C493.228 357.398 495.987 364.358 494.06 368.217C492.224 371.895 475.033 380.622 471.386 381.526C462.161 381.488 461.002 376.98 455.101 371.185C450.945 367.105 445.051 364.062 443.354 358.661C442.047 354.5 441.743 348.514 443.84 344.697C444.441 343.623 445.193 342.641 446.073 341.782C448.219 339.699 450.96 338.094 453.069 336.096C457.574 331.824 459.544 327.845 465.887 326.122Z"/><path fill="#1E706A" d="M548.892 208.09C577.826 205.3 576.642 241.54 551.403 249.633C546.277 250.058 541.669 249.895 537.046 247.184C533.185 244.928 530.449 241.154 529.505 236.783C526.668 224.245 536.621 210.749 548.892 208.09Z"/><path fill="#1E706A" d="M468.559 175.363C471.724 176.047 483.688 183.447 486.403 185.734C487.185 192.276 486.978 199.096 486.77 205.681C483.044 208.375 473.066 214.15 468.962 216.037C465.616 214.779 454.72 207.745 451.424 205.608C451.041 199.444 451.23 191.358 451.501 185.203C454.689 182.929 464.514 177.736 468.559 175.363Z"/><path fill="#1E706A" d="M624.769 235.892C628.89 236.77 638.651 243.124 642.59 245.614C643.143 251.74 642.993 259.505 642.704 265.659C639.467 268.086 629.419 274.043 625.772 275.743C621.298 274.019 612.495 268.435 608.183 265.741C607.454 258.982 607.213 252.171 608.349 245.453C614.002 241.969 618.929 239.038 624.769 235.892Z"/><path fill="#1E706A" d="M303.048 625.608C306.554 625.438 314.347 627.994 318.119 629C337.009 634.037 353.131 633.127 372.348 631.655C376.373 648.72 381.53 661.458 395.154 673.343C398.996 676.695 404.115 679.438 407.421 683.159C407.861 720.686 414.936 746.244 439.927 775.682C445.472 782.214 452.937 787.75 458.443 794.241L458.988 794.891C422.53 824.494 403.632 865.17 408.72 912.425C410.552 929.449 411.46 938.989 423.358 951.845C407.531 969.063 371.67 982.855 350.167 988.598C323.448 995.735 276.64 1007.12 254.778 985.926C222.36 954.501 243.37 904.023 261.064 873.52C265.198 867.581 270.223 859.146 274.347 852.814C288.618 831.218 302.348 809.268 315.524 786.986C309.744 791.209 298.816 802.982 293.238 808.706L254.89 848.386C227.792 876.486 185.397 923.193 138.349 898.322C125.617 891.591 117.431 873.425 114.691 859.154C105.963 814.823 108.862 754.937 132.781 715.715C146.388 693.401 172.251 672.675 196.243 663.163C204.684 659.841 216.193 651.661 224.81 649.314C250.106 642.422 277.651 631.093 303.048 625.608Z"/><path fill="#1E706A" d="M826.913 251.204C837.882 250.654 854.346 251.248 864.666 253.944C894.112 261.636 955.67 280.412 971.346 306.835C978.003 318.191 979.826 331.743 976.408 344.455C964.681 389.601 901.042 410.426 862.894 427.289C848.425 433.684 829.908 441.583 816.412 449.512C840.706 445.36 868.384 439.208 892.836 433.909C935.181 424.733 1010.99 411.311 1022.38 470.493C1027.98 499.577 998.983 538.181 981.919 559.654C964.843 580.79 947.159 599.59 921.782 610.826C877.819 630.291 811.854 620.049 767.989 602.977C775.694 588.216 779.959 576.924 780.559 559.944C781.017 546.966 779.934 533.323 774.894 521.104C772.929 516.341 769.332 511.085 767.867 506.097C766.48 501.379 766.386 495.697 765.85 490.75C764.473 477.553 759.421 465.007 751.268 454.538C747.238 449.445 735.207 438.991 733.319 435.177C726.932 422.274 724.815 412.323 713.627 401.54C705.759 393.957 699.563 392.491 690.784 387.01C687.517 384.971 679.258 373.214 675.646 369.281C679.536 362.55 685.289 355.999 689.828 349.613C723.18 302.691 765.542 256.383 826.913 251.204Z"/><path fill="#1E706A" d="M735.635 631.224C741.11 631.816 755.606 636.861 761.625 638.662C792.348 647.855 821.642 658.289 848.144 676.909C880.552 699.678 899.068 727.313 905.164 767.199C909.831 803.5 914.356 853.359 894.548 885.622C882.593 905.093 860.021 907.126 840.088 902.583C810.068 895.742 794.438 877.253 773.598 856.748C758.746 842.135 744.266 827.577 730.099 812.288C722.38 804.127 712.731 793.043 703.821 786.702C706.568 792.321 715.599 805.354 719.591 811.683L745.144 852.914C757.101 871.977 765.179 882.784 773.654 903.845C779.71 922.493 782.901 936.553 779.895 956.901C777.802 971.066 771.737 981.06 760.479 989.861C745.786 1001.35 714.836 998.365 696.603 994.919C667.012 989.326 629.597 976.632 605.271 958.741C603.245 957.251 599.135 954.059 597.732 952.04C598.318 950.338 599.696 950.04 600.836 948.763C610.304 938.155 612.412 924.403 613.366 911.509C616.267 872.279 605.502 841.137 579.868 811.15C574.262 804.592 568.72 800.905 562.782 794.271C566.178 790.204 569.943 787.191 573.455 783.444C577.085 779.57 580.601 775.582 584.254 771.679C586.988 779.789 591.425 786.575 598.96 790.692C613.377 798.613 636.716 793.843 644.326 778.439C651.968 762.974 642.565 737.156 637.946 721.478C644.107 721.239 650.001 721.17 656.079 719.996C701.893 711.143 731.009 676.453 735.635 631.224Z"/><path fill="#1E706A" d="M562.725 732.871C566.466 736.942 571.255 744.812 573.971 749.587C570.503 755.625 565.146 761.053 560.447 766.206C530.688 798.929 485.188 813.969 461.046 852.064C450.033 869.343 446.214 891.601 449.091 911.748C450.57 922.11 456.914 931.56 443.334 935.966C432.694 935.757 432.323 926.692 430.733 918.554C420.49 866.132 449.875 823.797 491.667 795.763C506.947 785.514 523.333 774.415 537.432 762.438C548.496 752.845 554.408 744.613 562.725 732.871Z"/><path fill="#1E706A" d="M405.848 567.421C408.764 556.319 389.759 545.165 381.126 542.964C372.846 540.854 356.456 546.389 352.173 537.346C344.603 521.362 360.42 511.036 374.748 513.044C387.84 514.879 400.767 504.998 403.667 493.11C406.181 483.86 406.056 472.271 416.047 467.589C426.15 462.856 438.298 463.722 444.078 474.076C446.124 480.085 446.154 485.716 445.218 491.966C442.437 510.53 444.188 521.937 457.879 535.89C448.81 538.091 441.029 539.862 433.366 545.601C436.208 532.934 432.035 526.066 429.591 513.389C428.772 509.145 431.402 495.611 419.563 500.74C417.783 501.511 417.003 504.617 416.891 506.279C416.952 525.436 431.09 546.164 412.726 562.372C411.443 563.504 407.414 566.695 405.848 567.421Z"/><path fill="#1E706A" d="M557.61 664.392C562.345 664.104 563.464 670.755 565.638 674.287C573.907 687.722 583.478 699.028 597.302 707.009C601.982 709.711 606.569 711.748 611.26 714.281C617.483 723.422 623.266 750.327 625.465 761.762C627.347 771.546 615.788 776.603 608.043 769.737C604.866 764.952 602.369 757.11 599.728 751.626C593.245 738.162 585.499 724.805 575.926 713.299C568.188 704 557.803 696.566 548.617 688.738C543.294 684.201 539.723 681.928 535.417 676.323C539.311 673.471 552.917 666.805 557.61 664.392Z"/><path fill="#1E706A" d="M539.512 803.331C545.926 805.13 568.313 830.07 573.255 837.223C590.108 861.636 596.491 891.777 590.981 920.926C589.237 930.17 586.157 937.794 575.211 935.298C566.709 930.352 571.564 919.852 572.826 911.637C577.483 881.328 565.44 852.209 543.461 831.444C537.322 825.643 530.085 820.772 524.073 814.864L523.524 814.319C526.812 811.088 535.364 805.887 539.512 803.331Z"/><path fill="#1E706A" d="M429.161 691.771C434.466 692.689 441.568 694.738 447.19 695.928C448.906 700.548 449.697 709.049 451.194 714.634C456.912 735.971 479.82 762.781 498.872 773.6L492.481 777.905C490.643 779.235 483.098 784.983 481.742 784.589C478.026 783.51 467.693 773.803 464.927 771.075C442.806 749.256 429.175 723.459 429.161 691.771Z"/><path fill="#1E706A" d="M653.011 631.154C657.591 630.965 666.775 630.541 671.207 631.28C686.079 633.762 698.04 634.43 713.07 633.955C712.961 636.206 712.955 638.682 712.181 640.818C708.732 650.334 663.762 641.792 654.437 642.062C644.195 642.358 634.561 644.618 625.288 648.933C615.25 653.727 594.9 669.257 581.898 664.648C579.566 663.821 578.862 660.489 578.21 658.196C581.493 655.986 590.429 652.307 594.457 650.572C612.311 642.88 633.551 633.421 653.011 631.154Z"/><path fill="#1E706A" d="M462.932 891.139C467.256 891.009 472.034 891.037 476.358 891.138C503.847 891.78 531.852 890.39 559.295 891.245C559.819 895.377 560.913 899.267 559.214 902.871C557.459 903.998 557.412 903.602 554.941 903.672L495.599 903.769C485.605 903.771 471.003 904.257 461.406 903.451C461.269 899.185 460.399 894.122 462.932 891.139Z"/><path fill="#1E706A" d="M472.771 861.033C480.986 860.776 546.933 860.215 549.448 861.961C552.184 863.86 554.033 870.351 554.956 873.482L547.375 873.662L498.392 873.714C488.026 873.721 476.122 874.003 465.966 873.428C467.144 868.981 469.806 864.538 472.771 861.033Z"/><path fill="#1E706A" d="M466.086 712.559C483.095 711.665 500.895 712.656 518.004 712.292C526.257 712.116 535.342 712.151 543.542 712.547C545.94 714.052 550.666 717.869 551.713 720.616C552.335 722.246 551.733 722.807 551.058 724.351C539.37 725.433 519.562 724.487 507.092 724.723C498.938 724.877 477.394 725.161 470.655 724.319C469.11 721.232 467.333 715.941 466.086 712.559Z"/><path fill="#1E706A" d="M622.766 662.983C626.636 663.02 633.313 667.135 637.173 668.75C652.052 674.976 676.972 680.41 692.637 677.085C688.245 681.594 686.234 683.292 680.756 686.619C667.458 693.87 634.043 680.862 621.829 673.789C619.108 672.213 615.865 670.141 613.211 668.374C616.639 666.083 619.055 664.858 622.766 662.983Z"/><path fill="#1E706A" d="M654.752 652.709C671.411 651.244 690.555 659.763 708.664 654.091C706.352 658.905 705.093 661.095 701.565 665.071C697.921 666.52 694.248 666.735 690.381 667.115C672.93 668.857 651.418 663.996 635.618 656.389C641.844 653.643 648.063 653.131 654.752 652.709Z"/><path fill="#1E706A" d="M598.817 674.608C600.084 674.404 601.89 674.048 603.004 674.6C608.073 677.118 612.594 680.765 617.501 683.586C624.191 687.43 631.254 690.485 638.601 692.838C643.858 694.521 649.308 696.777 654.699 697.883L646.79 699.619C641.843 700.191 634.922 700.216 630.005 699.598C614.375 697.497 600.172 689.408 590.391 677.037C593.693 675.805 595.372 675.39 598.817 674.608Z"/><path fill="#1E706A" d="M483.511 742.154C499.755 741.876 521.761 741.681 537.71 742.583C535.269 745.178 533.435 747.045 530.784 749.408C528.432 751.493 527.101 752.611 524.503 754.444C508.292 755.941 493.554 757.727 483.511 742.154Z"/><path fill="#1E706A" d="M500.777 831.057C522.974 830.963 519.614 827.53 535.241 843.391C530.256 843.581 524.892 843.524 519.875 843.562C508.492 843.662 497.108 843.602 485.726 843.382C489.646 839.564 495.992 833.406 500.777 831.057Z"/><path fill="#1E706A" d="M514.54 690.552C515.354 690.551 516.943 690.938 517.813 691.113L517.842 691.978C516.295 692.543 512.456 692.789 510.615 692.955C508.977 693.054 508.745 693.034 507.112 692.825C508.467 691.914 512.703 691.029 514.54 690.552Z"/><path fill="#1E706A" d="M205.251 450.09C197.237 444.906 188.739 442.058 180.641 437.771C135.094 413.653 58.2399 399.21 43.0487 341.919C28.2744 286.199 118.855 263.402 157.875 253.016C189.977 244.471 233.254 257.508 259.888 275.684C291.331 297.199 320.447 334.796 343.072 365.565C333.258 377.374 330.73 376.095 318.43 383.204C311.463 387.182 305.014 392.007 299.231 397.569C288.027 408.138 279.544 421.26 274.505 435.815C270.64 446.953 272.445 449.476 263.793 458.601C243.61 479.887 238.661 517.06 247.64 544.23C248.84 547.859 250.912 552.816 251.315 556.477C253.093 572.618 255.693 585.774 266.881 598.476C216.122 617.699 150.727 633.267 98.7373 611.079C60.1294 594.602 32.3013 553.613 10.3666 519.503C5.65951 512.183 3.80606 503.242 0 496.956L0 459.241C3.29508 455.384 5.62927 449.058 8.84611 445.746C33.2939 420.577 75.2134 423.341 107.105 429.414C131.949 434.146 157.718 439.654 182.429 445.334C189.973 447.067 197.676 448.214 205.251 450.09Z"/></svg>