<?xml version="1.0" encoding="utf-8" ?><svg xmlns="http://www.w3.org/2000/svg" xmlns:xlink="http://www.w3.org/1999/xlink" width="1024" height="1024" viewBox="0 0 1024 1024"><path fill="#1E706A" d="M782.514 183.405C785.676 185.509 789.215 197.392 787.546 201.202C781.007 216.132 759.968 222.221 756.797 239.552C755.396 250.004 759.095 252.726 767.88 255.482C781.449 259.741 801.5 263.923 807.478 246.242C811.208 235.209 810.971 232.532 821.188 225.109C825.527 229.897 832.212 244.362 836.147 250.943C855.725 251.563 868.526 253.884 887.794 260.39C910.609 267.82 962.424 285.529 972.665 308.916C1002.21 376.389 904.116 409.846 858.193 429.155C842.549 435.733 829.812 442.464 816.347 449.407C841.463 445.005 866.488 438.738 891.635 434.164C908.064 431.176 922.909 426.778 939.897 426.116C964.415 425.16 989.283 425.436 1008.55 443.037C1024.28 457.225 1026.36 482.368 1018.67 501.148C1006.96 529.753 985.851 556.456 965.226 579.182C946.401 599.923 923.227 613.661 895.666 619.066C886.258 620.995 876.232 620.545 866.817 621.008C808.548 623.873 756.083 596.654 701.235 581.367C675.469 574.185 648.862 569.823 621.973 568.856C614.981 568.604 607.892 567.947 600.797 568.111C610.69 581.738 669.705 610.026 687.479 616.088C737.636 633.191 792.077 642.751 838.154 670.396C870.279 689.67 895.789 718.666 903.074 756.165C910.23 791.862 914.642 850.91 895.921 883.806C890.989 892.471 878.852 901.802 869.045 903.747C857.407 906.056 851.453 905.039 840.477 902.76C810.106 896.454 796.243 878.895 775.205 858.52C759.842 843.806 744.919 828.641 730.453 813.045C722.759 804.883 713.047 792.857 703.991 787.168C708.878 795.8 715.862 804.305 720.624 813.132C742.014 852.781 777.572 889.497 780.799 936.119C783.055 968.71 769.175 997.138 733.914 997.751C690.7 998.502 629.449 981.313 597.27 952.088C607.325 941.34 611.019 933.68 612.772 918.568C617.508 880.496 607.868 845.177 583.189 815.596C577.237 808.461 568.216 801.314 563.254 794.826L562.798 794.22C564.918 791.156 569.487 787.347 572.16 784.629C576.806 779.906 581.384 775.606 585.102 770.31C599.683 749.536 596.042 751.924 587.972 728.643C586.88 725.49 585.225 721.375 584.811 718.042C584.648 716.728 584.605 713.503 585.564 712.594C591.399 707.062 606.543 703.367 611.365 696.74C615.719 690.757 613.483 672.099 612.639 665.058C611.031 654.217 608.124 642.839 598.873 635.983C586.67 626.941 567.753 629.634 558.87 642.049C553.763 649.187 553.275 656.318 554.868 664.854L520.945 664.935C516.466 669.099 510.139 676.046 507.094 681.167C512.917 682.447 522.735 682.066 529.021 682.062L560.05 682.016C560.117 686.212 560 690.583 559.947 694.793C548.339 694.78 536.73 694.856 525.123 695.023C528.466 699.086 533.201 703.006 536.285 707.409C536.73 708.043 536.752 710.165 536.779 711.018L536.795 711.721C539.229 712.245 552.534 712.157 555.937 712.199C554.455 716.894 552.74 720.285 550.518 724.653C543.219 725.234 532.9 724.961 525.369 724.961C522.629 727.027 510.851 737.883 510.589 740.901L511.338 741.709C513.334 742.263 534.233 742.014 538.381 742.128C534.565 747.35 530.168 750.616 525.23 754.727C518.133 755.458 510.522 755.837 503.363 755.736C494.872 755.616 488.973 748.644 483.623 742.589C484.258 742.58 487.336 742.504 487.77 742.386C493.064 740.941 500.689 729.28 503.906 724.991C495.845 724.803 477.6 725.633 470.677 724.441C468.798 720.798 467.049 716.475 466.097 712.488C474.207 711.676 512.473 713.662 516.367 710.837C517.038 710.35 516.884 710.041 516.983 709.293C515.188 705.633 506.882 698.178 503.625 695.032C492.001 694.537 472.735 695.852 462.305 694.483C461.79 689.836 461.903 686.735 462.108 682.074C469.451 682.08 476.794 682.02 484.136 681.896C488.948 676.944 496.167 669.951 500.368 664.809C489.52 664.695 478.42 664.915 467.487 664.841L467.598 664.08C469.225 652.111 466.94 647.461 459.77 638.257C474.113 628.234 484.992 620.54 497.116 607.677C504.221 600.844 507.483 591.142 516.025 585.8C524.862 580.749 537.569 571.183 546.753 567.876C570.591 559.293 595.132 556.86 595.485 525.185C595.529 521.279 595.633 517.914 592.578 514.758C589.302 513.56 579.952 517.408 576.132 518.597C567.995 521.212 559.744 523.458 551.404 525.328C557.513 521.51 565.452 515.554 571.52 511.209L609.556 483.615C614.924 479.686 623.931 472.268 629.155 469.207C629.512 469.534 629.871 469.857 630.234 470.177C650.356 487.87 669.647 479.934 684.879 461.158L689.155 463.225C697.268 467.054 707.877 468.385 716.484 464.947C727.955 459.95 750.003 442.097 755.924 430.797C765.675 412.189 772.519 408.103 789.974 395.234C825.967 368.698 841.421 355.066 824.387 309.406C830.521 303.117 850.878 288.921 851.868 281.423C852.105 279.625 851.679 277.638 850.524 276.21C849.299 274.697 847.357 273.961 845.463 273.812C843.868 273.686 842.401 273.902 841.055 274.807C837.29 277.338 833.722 280.807 830.257 283.749L807.479 303.169C788.026 319.437 768.496 334.52 749.183 350.503C739.636 357.636 730.051 364.718 720.429 371.749C714.148 376.38 706.985 381.604 701.217 386.859C695.089 392.441 693.316 400.262 686.426 405.754C651.645 433.38 616.317 460.311 580.464 486.53C563.318 499.066 545.106 511.459 528.306 523.958C519.604 523.305 512.071 519.853 501.944 520.031C478.456 520.445 469.13 536.043 451.117 547.373C444.662 551.202 435.905 550.705 429.248 553.389C411.733 560.453 395.429 574.754 381.757 587.495C372.152 596.445 372.43 603.048 372.53 614.849C367.222 623.755 345.66 636.854 336.473 644.162C314.298 661.805 303.837 664.683 303.95 695.127C297.958 702.546 265.819 729.577 264.953 735.674C264.664 737.709 265.546 739.793 266.747 741.388C267.883 742.896 269.471 744.454 271.435 744.598C278.523 745.117 290.668 729.188 295.939 724.841C296.074 724.729 296.211 724.621 296.347 724.511C330.11 740.16 345.296 722.002 368.059 699.279C378.876 688.481 396.425 671.058 409.16 662.99C408.804 666.162 408.499 669.339 408.245 672.521C405.323 711.116 413.281 744.388 439.024 774.411C445.114 781.513 453.065 787.41 458.856 794.251L459.392 794.892C456.063 797.438 452.817 800.089 449.657 802.842C412.658 835.63 398.02 892.77 414.767 939.748C416.098 943.481 420.6 948.775 423.197 951.714C403.728 972.323 363.652 985.964 336.119 992.31C299.64 1000.72 249.224 1006.77 239.533 958.478C230.271 912.325 262.037 872.277 285.213 835.912C295.563 819.673 305.303 803.234 315.539 786.96C307.628 792.88 302.543 799.873 295.288 806.747C265.147 835.304 238.361 872.751 202.846 894.508C188.507 903.293 164.608 907.597 148.466 903.091C137.292 899.972 127.225 891.02 121.82 880.654C104.375 843.706 108.574 783.686 119.086 745.918C130.15 706.163 160.86 680.508 195.557 662.209C192.379 652.423 186.901 644.127 184.102 634.197C188.107 630.743 193.511 628.601 197.971 625.755C205.512 620.943 212.967 615.917 220.405 610.948C248.268 592.09 275.823 572.779 303.058 553.025C308.648 548.917 315.316 543.496 321.085 539.899C325.651 537.052 332.319 546.661 337.855 548.059C342.313 549.185 343.743 549.65 348.66 548.49C361.644 545.427 361.43 534.714 368.894 526.403C371.854 523.106 377.79 521.084 381.901 518.975C398.003 510.712 406.122 495.264 411.573 478.929C400.73 484.767 395.7 497.499 385.843 505.158C378.135 511.315 367.731 513.038 360.318 519.569C354.72 524.502 354.032 535.443 345.609 536.979C339.623 537.822 336.388 530.756 331.614 527.84C321.639 521.748 311.011 529.812 302.754 535.424C295.722 540.203 288.682 545.581 281.648 550.584L245.442 576.136C242.999 577.889 233.59 585.045 231.699 585.47C216.676 569.639 284.125 546.348 277.359 535.036C276.103 534.362 275.675 534.049 274.212 534.168C267.685 534.703 229.827 562.346 225.15 568.576C220.513 574.751 221.757 583.341 222.861 590.417C220.066 593.401 217.406 594.94 214.033 597.219C209.959 583.288 208.357 566.513 220.875 555.866C232.492 545.987 246.761 538.063 259.105 528.964C267.586 522.712 275.674 516.392 284.018 510.038C288.451 506.892 298.065 504.885 303.027 501.293C306.917 498.478 315.573 494.404 317.03 489.364C314.741 482.572 296.167 496.087 290.868 497.931L290.202 498.156C291.687 494.898 294.728 488.046 296.872 485.512C305.99 474.736 323.005 462.648 334.721 454.803C335.73 482.37 323.274 497.397 301.597 512.577C297.564 515.402 288.557 520.223 290.117 525.955C295.276 531.039 311.018 516.485 315.577 513.002C330.842 501.339 340.661 486.958 342.821 467.549C343.122 464.838 342.178 454.43 344.209 452.234C353.718 448.448 352.634 459.491 352.762 464.993C353.199 483.891 344.005 498.602 336.128 514.723C354.675 509.567 353.017 498.698 363.208 487.426C364.757 485.713 381.305 473.684 384.871 470.862C400.7 458.334 412.8 444.976 424.787 428.739C427.799 424.659 431.026 420.653 433.654 416.273C432.279 424.629 432.879 437.49 434.465 445.932C435.409 451.128 438.939 458.801 438.343 464.006C437.069 475.128 423.179 481.083 419.538 492.137C416.329 501.882 420.772 507.38 419.608 516.736C419.22 519.852 411.096 522.439 408.812 523.783C400.903 528.561 392.967 544.318 390.527 552.711C402.935 540.846 414.985 535.767 428.335 526.091C437.273 519.613 428.885 505.859 431.006 498.657C434.098 488.164 449.701 480.025 451.472 467.971C453.69 456.748 448.649 452.886 448.088 442.446C448.074 440.224 451.099 438.05 452.735 436.895C485.095 414.099 516.48 390.545 547.925 366.457C556.543 359.855 570.087 347.169 579.672 342.173C582.947 340.467 596.345 347.928 602.486 348.216C612.096 349.239 618.62 346.597 626.496 341.478C640.797 332.183 645.343 315.388 656.617 304.366C674.621 286.765 696.859 272.747 715.279 255.517C723.558 247.772 724.347 240.413 729.515 231.181C732.696 226.758 747.65 214.981 752.655 210.875C762.846 202.515 772.567 191.297 782.514 183.405ZM620.625 404.938C629.932 402.268 633.276 396.217 641.788 392.913C646.753 390.985 654.463 393.686 659.673 394.192C677.497 396.493 690.635 378.947 686.313 362.356C683.844 352.875 673.139 344.302 662.986 345.185C644.886 347.687 646.401 358.142 634.352 361.391C623.971 364.191 609.982 356.417 599.291 370.613C595.708 375.442 594.186 381.494 595.058 387.443C596.867 400.264 608.159 407.513 620.625 404.938ZM497.979 470.621C505.328 470.665 512.22 469.727 517.867 464.615C524.484 458.648 524.147 449.411 528.905 442.423C533.844 435.168 544.502 434.495 548.83 426.517C556.041 413.223 548.325 397.086 532.418 397.496C531.765 397.515 531.113 397.55 530.462 397.602C513.69 401.085 516.968 414.607 507.691 419.747C493.842 427.421 472.971 429.509 476.899 452.804C478.517 462.401 487.927 469.608 497.979 470.621ZM642.378 537.332C647.952 535.803 651.992 534.42 657.982 533.978C670.288 533.071 682.197 539.703 689.788 526.499C692.829 521.21 692.311 512.654 690.464 507.007C688.478 501.012 684.184 496.056 678.532 493.237C674.017 490.971 670.079 490.623 665.149 491.084C651.897 494.274 645.574 503.125 632.445 507.786C628.338 509.244 615.799 511.942 614.135 513.994C612.638 518.312 616.164 523.055 618.873 526.223C625.246 533.674 631.891 539.964 642.378 537.332ZM297.829 618.162C313.839 618.125 313.322 610.11 322.094 600.488C325.879 596.338 336.525 594.332 339.9 588.599C348.045 575.347 339.414 562.27 324.832 561.196C310.251 562.785 314.056 568.362 304.166 574.468C299.376 577.424 288.225 576.93 283.127 584.023C279.709 588.778 278.544 594.883 279.272 600.509C279.953 605.851 282.737 610.7 287.008 613.98C290.143 616.341 293.963 617.664 297.829 618.162ZM535.215 478.065C530.756 479.656 526.633 482.344 524.953 486.843C521.134 497.072 525.837 501.314 535.285 501.226C550.032 494.85 551.211 476.639 535.215 478.065ZM724.263 318.295C729.627 318.162 733.551 317.277 737.592 313.122C743.354 307.199 742.822 298.462 746.345 291.432C749.024 286.087 750.33 280.549 747.925 274.716C746.101 270.273 742.506 266.793 738.006 265.114C735.574 264.214 732.84 263.777 730.253 264.062C723.248 265.672 719.445 268.122 715.745 274.555C712.79 279.69 708.921 285.345 706.724 290.793C700.837 305.399 709.061 317.563 724.263 318.295ZM677.174 305.624C667.836 308.136 658.411 318.103 670.507 325.525C671.71 326.263 676.189 326.255 677.852 326.299C693.658 324.94 694.714 305.128 677.174 305.624ZM476.336 514.369C485.698 512.961 493.018 506.591 491.354 496.5C490.722 492.649 488.482 489.25 485.193 487.151C482.245 485.24 479.083 484.482 475.645 484.148C470.194 484.94 466.707 486.573 463.141 490.999C458.186 497.15 458.301 506.922 465.044 511.73C468.815 514.418 471.996 514.305 476.336 514.369ZM369.036 582.325C379.91 576.982 378.125 564.189 365.627 565.026C354.296 569.945 356.531 583.698 369.036 582.325ZM570.842 399.949C580.078 395.013 576.158 381.961 567.271 380.522C559.081 385.254 561.159 398.645 570.842 399.949ZM243.293 613.071C225.202 619.332 227.995 639.291 245.361 635.237C263.058 628.596 259.799 611.088 243.293 613.071ZM778.983 280.653C773.668 281.546 768.92 284.5 765.771 288.873C759.431 297.578 762.135 307.826 774.045 308.148C791.337 304.011 797.883 281.895 778.983 280.653ZM716.658 336.582C698.031 343.809 703.092 361.235 716.615 358.873C732.402 356.066 735.029 335.909 716.658 336.582ZM641.706 423.483C645.588 422.478 648.082 422.016 650.321 418.226C653.39 413.032 649.417 410.135 644.342 410.071C632.095 412.63 629.33 424.157 641.706 423.483ZM283.747 639.058C252.171 646.674 257.295 689.4 281.396 682.347C286.66 679.256 300.338 664.66 301.796 658.839C304.896 646.46 296.45 637.935 283.747 639.058ZM332.271 630.862C340.411 626.294 341.49 617.74 330.938 617.533C322.513 622.038 322.12 632.249 332.271 630.862ZM234.83 658.075C229.193 660.1 223.819 663.206 221.621 669.02C217.7 679.39 222.18 682.671 231.727 681.221C239.214 678.688 248.727 673.356 245.94 662.929C244.778 658.582 238.976 657.544 234.83 658.075ZM591.922 423.594C587.969 424.55 586.374 425.198 582.423 427.118C569.992 433.159 558.802 451.851 573.226 461.953C576.779 464.441 581.533 464.533 586.008 464.242C616.181 455.664 619.877 421.198 591.922 423.594Z"/><path fill="#1E706A" d="M665.345 503.139C671.048 502.754 675.294 503.609 677.788 508.989C682.915 520.151 678.125 523.861 667.033 522.269C660.767 521.371 652.982 522.418 646.887 524.271C641.155 525.703 636.92 527.295 632.505 522.232L632.565 521.373C634.749 519.772 642.033 517.37 645.776 515.219C651.229 512.087 660.225 505.063 665.345 503.139Z"/><path fill="#1E706A" d="M424.415 18.1636C424.518 18.1543 424.621 18.145 424.725 18.1357C485.152 15.6862 498.073 90.2925 504.357 135.972C506.579 152.126 509.102 166.66 510.312 182.191C512.4 172.936 513.207 162.578 514.35 153.02C519.189 113.671 520.962 71.122 548.104 39.6563C572.44 11.443 602.708 10.985 629.708 36.0828C642.206 47.7 650.399 59.9797 661.091 72.6697C692.605 110.069 705.169 138.454 706.995 187.535C689.334 192.255 671.334 214.84 654.994 224.939C648.941 229.604 638.824 229.982 632.822 233.251C611.682 244.763 584.322 262.492 574.785 285.127C574.738 285.261 574.692 285.396 574.646 285.531L574.404 286.199C570.46 297.436 555.718 302.335 548.5 312.461C539.259 325.422 542.953 335.466 545.036 349.617C528.147 363.894 506.689 379 488.877 392.631C478.184 400.815 457.626 416.551 446.974 422.756C447.196 414.004 448.881 406.303 451.22 398.105C454.334 387.189 461.82 378.408 457.597 366.877C456.137 362.893 453.405 353.463 449.41 351.127C445.076 348.592 435.694 349.559 431.089 351.245C417.731 356.136 413.027 371.972 407.93 383.622C405.479 380.036 402.664 374.831 400.325 370.987C396.021 363.986 391.53 357.103 386.858 350.343C378.462 338.314 368.868 326.667 360.75 314.665C339.079 282.623 320.072 244.724 314.982 206.18C306.863 144.705 327.856 109.52 365.255 63.5859C379.777 45.7504 399.69 21.0499 424.415 18.1636ZM480.008 377.032C480.928 376.37 483.561 374.576 484.274 373.919C503.816 360.21 520.245 347.814 519.483 321.742C519.271 314.486 517.376 312.253 509.961 312.562C500.728 315.114 485.82 318.053 479.18 324.431C478.313 330.375 478.5 336.048 478.388 342.046C478.232 350.391 477.307 359.78 478.062 368.008C478.348 371.083 479.001 374.113 480.008 377.032Z"/><path fill="#1E706A" d="M504.013 326.889L506.221 327.008C507.918 329.325 505.138 336.285 503.902 338.631C500.081 346.764 497.177 348.908 490.631 354.767C490.573 347.233 490.49 337.758 490.798 330.394C494.635 328.583 499.784 327.753 504.013 326.889Z"/><path fill="#1E706A" d="M504.013 326.889L506.221 327.008C507.918 329.325 505.138 336.285 503.902 338.631C503.811 334.437 503.791 331.067 504.013 326.889Z"/><path fill="#1E706A" d="M578.419 530.622L578.985 530.604L579.554 531.202C579.619 533.664 578.493 535.581 576.994 537.447C564.934 552.47 538.295 548.71 521.209 550.655C494.979 553.364 471.608 565.697 452.03 582.957C448.332 586.218 433.03 598.352 433.634 603.304C435.786 605.142 442.925 600.803 444.978 599.182C471.509 578.233 493.828 558.976 530.196 559.381C516.143 567.818 501.183 578.325 485.716 583.255C461.804 590.644 439.484 606.149 427.145 628.281C421.523 638.365 420.393 636.728 411.292 642.533C385.807 658.79 363.988 680.527 342.79 701.901C341.992 694.819 341.65 689.083 345.332 682.665C352.092 672.04 366.661 663.577 376.506 655.776C379.213 653.631 392.995 644.29 386.319 640.349C380.965 640.125 372.902 647.743 368.503 651.025C352.489 662.975 332.323 674.16 333.028 697.005C333.212 702.969 335.925 709.411 328.988 712.548C321.786 715.803 314.445 715.188 307.126 712.719C310.528 708.867 314.982 706.153 318.868 701.637C318.517 696.414 316.203 688.763 317.546 683.515C320.834 670.662 335.028 662.593 344.614 655.441L367.783 638.305C373.186 634.286 376.597 632.08 381.241 626.79C387.945 619.155 383.812 607.479 387.417 602.262C395.037 591.237 419.038 571.591 431.168 566.775C441.173 563.518 450.554 563.22 459.88 557.759C472.516 550.359 482.191 536.308 497.105 533.349C509.034 530.983 520.763 537.63 532.384 538.859C548.711 540.585 563.155 535.137 578.419 530.622ZM400.587 612.1C405.797 607.559 410.172 602.066 415.413 597.532C420.503 593.128 426.518 589.733 431.662 585.476C435.09 582.641 435.503 577.754 429.475 577.976C420.546 580.846 394.946 600.745 395.304 610.708C396.386 612.889 398.439 612.588 400.587 612.1Z"/><path fill="#1E706A" d="M713.761 202.089C722.718 201.865 726.671 202.036 734.181 207.461C733.068 208.364 730.218 210.777 729.123 211.301C721.036 215.168 716.803 214.99 715.665 225.213C713.695 242.905 698.877 251.664 686.196 261.901C669.911 275.048 651.645 287.032 638.911 303.913C631.587 313.918 628.413 323.927 617.348 331.31C603.968 340.237 596.746 330.758 583.812 328.234C572.584 326.125 566.077 333.759 557.537 339.908C554.777 311.959 570.354 318.892 589.497 315.552C597.157 314.221 604.519 311.533 611.234 307.614C618.124 303.546 625.968 296.447 628.067 288.478C622.468 283.745 618.019 292.026 613.418 295.534C602.069 304.189 591.928 307.28 577.903 308.196C586.312 298.456 595.486 295.439 606.481 290.111C624.109 281.611 640.647 271.935 650.15 254.035C654.158 246.484 657.493 241.959 664.816 237.326C675.278 230.705 684.02 221.299 693.781 213.979C694.733 231.743 688.365 234.037 675.713 244.853C672.37 247.712 659.168 256.513 665.185 261.237C671.756 262.558 691.715 242.801 696.3 237.233C703.529 228.454 702.919 217.758 701.322 207.109C705.274 204.494 709.094 202.836 713.761 202.089Z"/><path fill="#1E706A" d="M566.293 725.39C568.514 728.576 573.149 741.886 575.241 746.086C576.491 748.597 571.139 754.251 569.278 756.495C555.527 773.075 538.699 787.025 520.839 798.979C480.567 824.507 442.53 855.686 448.73 908.672C450.116 920.512 457.984 932.318 442.122 936.122C435.826 935.155 433.14 931.638 431.758 925.381C428.072 908.662 427.981 891.141 431.541 874.515C443.576 818.297 496.038 795.834 536.4 763.225C549.873 752.339 557.59 740.182 566.293 725.39Z"/><path fill="#1E706A" d="M810.521 319.937C818.349 326.637 816.871 349.464 810.423 357.038C799.869 369.435 785.924 378.21 773.383 388.572C766.442 394.087 759.589 399.508 752.333 404.585C744.221 410.259 731.847 413.335 724.431 419.153C731.261 402.914 744.851 399.389 754.773 387.257C755.373 386.524 755.044 384.274 754.436 383.005C747.732 378.508 725.358 402.483 721.1 408.282C710.417 423.011 705.83 433.793 700.513 450.949L690.834 446.984C691.793 442.999 694.444 435.478 695.693 431.499C697.816 424.731 701.886 408.437 705.811 402.933C712.027 394.218 727.275 384.045 736.254 377.436C745.17 370.931 754.03 364.348 762.831 357.689C779.006 345.461 794.907 332.874 810.521 319.937ZM770.219 375.645C777.216 373.688 811.282 348.555 803.682 340.898C802.633 340.638 802.275 340.517 801.206 340.402C795.45 344.051 790.109 350.808 784.661 355.161C779.355 359.4 773.838 363.472 768.789 367.99C766.964 369.622 766.337 371.697 766.964 374.047C768.108 375.412 767.748 375.356 770.219 375.645Z"/><path fill="#1E706A" d="M439.291 650.079C453.864 651.229 449.097 665.851 448.168 675.859C447.001 688.689 448.096 701.624 451.405 714.075C457.804 737.235 479.073 762.076 499.619 773.69C495.005 776.534 491.409 778.769 487.032 781.994C485.373 783.085 483.184 784.308 481.443 785.35C460.109 769.603 441.253 747.406 433.442 721.765C431.743 716.381 430.499 710.864 429.723 705.271C428.144 693.123 428.449 680.495 429.609 668.348C430.344 660.659 430.506 652.526 439.291 650.079Z"/><path fill="#1E706A" d="M539.392 803.394C539.603 803.399 539.813 803.403 540.024 803.408C575.501 829.48 597.883 868.339 592.141 913.546C590.824 923.918 589.619 937.943 575.393 935.567C566.379 930.565 571.274 921.032 572.634 912.452C573.167 908.943 573.505 905.408 573.645 901.862C574.802 876.003 562.773 849.935 543.992 832.373C537.707 826.496 529.114 820.573 523.627 814.296C527.087 810.624 534.855 806.183 539.392 803.394Z"/><path fill="#1E706A" d="M437.531 364.031C439.155 363.914 439.117 363.838 440.647 364.309C443.714 366.944 443.81 370.804 444.653 374.988C443.196 380.13 438.426 388.721 435.797 393.715C421.219 421.409 395.889 454.402 369.785 472.112L365.666 474.804C368.367 458.639 363.166 464.948 377.314 453.367C381.622 449.847 385.692 446.045 389.497 441.988C403.558 427.059 412.692 411.243 421.223 392.711C426.474 381.304 426.382 371.705 437.531 364.031Z"/><path fill="#1E706A" d="M462.893 891.138C494.434 891.013 528.07 890.641 559.459 891.234C559.726 893.865 560.68 900.822 559.495 903.141C559.2 903.719 558.502 903.57 557.563 903.685C537.17 904.219 515.879 903.823 495.404 903.924C487.741 903.962 467.936 904.343 461.515 903.419C461.253 899.615 460.188 893.982 462.893 891.138Z"/><path fill="#1E706A" d="M472.725 861.035C481.576 860.898 545.585 859.915 548.682 861.605C552.157 863.501 554.011 869.879 555.192 873.418C552.38 873.6 549.526 873.62 546.705 873.677C530.879 873.847 515.052 873.899 499.225 873.833C488.647 873.825 476.172 874.104 465.734 873.398C467.18 869.115 469.734 864.433 472.725 861.035Z"/><path fill="#1E706A" d="M578.2 650.543C591.664 649.575 590.663 660.015 593.081 670.745C594.121 675.361 594.287 682.941 593.329 687.51C593.027 688.952 585.235 693.004 583.563 693.936C579.762 696.165 578.151 697.067 574.078 698.63C574.378 687.679 574.369 676.844 572.932 665.962C571.943 658.478 571.768 655.092 578.2 650.543Z"/><path fill="#1E706A" d="M489.572 591.03L489.907 591.302L489.815 592.121C478.383 606.94 453.898 626.02 436.185 632.612C435.851 632.269 436.044 632.522 435.84 631.721C442.385 618.718 452.744 609.909 464.987 602.237C472.7 597.404 481.206 594.52 489.572 591.03Z"/><path fill="#1E706A" d="M644.829 245.644L644.832 246.677C631.881 269.902 613.351 276.903 590.734 287.46C590.59 285.133 594.347 280.767 596.15 279.122C609.952 266.538 626.732 251.188 644.829 245.644Z"/><path fill="#1E706A" d="M682.725 427.461C682.948 429.469 679.096 439.416 677.844 441.884C671.473 454.452 660.989 470.005 645.088 462.047C643.468 460.883 643.227 460.652 642.844 459.083C643.86 456.505 677.881 431.01 682.725 427.461Z"/><path fill="#1E706A" d="M501.09 830.555C519.524 829.779 522.512 829.169 535.122 843.092C529.977 843.608 526.776 843.623 521.625 843.601L485.449 843.431C490.392 838.802 495.273 834.052 501.09 830.555Z"/><path fill="#1E706A" d="M744.393 418.645L744.751 419.135C740.157 428.675 720.137 446.72 710.642 450.795L710.256 450.338C710.147 445.763 716.137 435.079 719.73 432.388C726.223 427.524 736.886 421.128 744.393 418.645Z"/><path fill="#1E706A" d="M204.298 449.426C197.173 445.265 189.159 441.75 181.646 438.244C171.282 433.286 160.795 428.587 150.196 424.152C109.495 407.325 46.4869 385.408 41.8626 333.857C38.8968 300.795 70.0206 284.77 95.6065 273.367C114.009 264.946 133.179 259.229 152.726 253.982C187.058 245.173 223.613 254.016 253.716 271.496C307.459 304.119 333.469 364.444 379.051 405.231C382.636 408.44 387.198 412.311 390.448 415.784C385.774 425.009 372.258 437.936 363.817 443.96C358.14 438.431 354.006 436.421 345.71 436.479C341.455 436.49 337.241 437.303 333.287 438.876C320.293 443.991 300.374 459.886 289.958 469.858C279.873 478.919 277.35 493.719 267.732 502.928C248.303 521.528 217.431 532.913 201.456 554.727C190.979 569.033 195.417 590.331 200.593 605.543C196.734 608.32 181.028 618.764 176.805 619.809C163.337 623.138 139.804 621.875 126.181 619.68C70.6992 610.742 34.585 559.424 7.7611 514.605C4.85808 509.755 2.70913 501.985 0 497.829L0 459.248L0.298767 458.849C3.08378 455.053 5.87198 449.203 8.55818 445.999C17.0659 435.85 34.3678 428.754 47.2229 426.974C74.9657 423.133 102.164 427.674 129.148 434.007C137.748 436.026 147.242 437.315 155.973 439.235C171.645 442.681 188.517 447.119 204.298 449.426Z"/></svg>