<?xml version="1.0" encoding="utf-8" ?><svg xmlns="http://www.w3.org/2000/svg" xmlns:xlink="http://www.w3.org/1999/xlink" width="1024" height="1024" viewBox="0 0 1024 1024"><path fill="#1E706A" d="M520.582 268.15C569.127 265.622 570.15 313.403 613.36 324.066C637.186 329.946 665.022 319.262 685.302 337.252C703.774 353.639 694.315 380.317 695.997 401.535C698.088 429.594 716.748 443 736.771 459.18C743.86 464.908 749.887 474.296 750.744 483.838C752.991 508.88 725.981 523.431 723.334 547.829C720.087 569.318 730.128 576.443 731.094 594.669C731.606 625.277 700.122 613.695 683.889 631.823C662.411 655.808 689.724 682.729 669.724 704.577C657.904 717.489 639.731 714.964 626.01 707.155C612.981 699.741 600.385 690.043 584.706 689.369C552.151 686.692 540.684 722.26 510.234 722.956C487.614 723.245 475.598 705.033 458.197 693.697C440.636 682.256 417.9 680.821 398.347 687.608C389.32 690.779 380.413 695.646 371.036 697.503C341.406 703.369 321.588 683.234 326.272 653.681C327.239 647.582 328.523 640.506 329.186 634.406C330.19 625.181 329.767 616.221 327.087 607.315C324.184 597.436 319.144 588.316 312.325 580.601C300.203 566.887 277.36 554.621 273.875 536.051C267.926 504.357 291.603 494.367 306.949 472.841C317.65 457.169 319.614 439.207 315.565 420.967C312.683 407.533 307.122 396.029 311.014 382.127C315.745 365.235 335.349 365.259 349.788 363.209C367.548 360.687 379.631 348.813 384.551 331.736C386.505 324.954 388.35 316.593 392.644 310.78C403.072 297.821 419.866 304.707 433.4 306.42C440.375 307.304 447.645 307.535 454.341 305.811C483.349 298.342 488.05 272.305 520.582 268.15ZM503.933 703.34C526.681 706.477 535.509 691.216 553.232 681.049C568.257 672.556 590.135 671.21 605.709 678.511C621.425 685.879 632.966 701.149 651.315 688.042C662.488 680.06 659.829 665.772 660.075 654.048C660.375 639.719 665.831 625.7 677.216 616.638C690.468 606.241 707.988 608.051 711.192 586.282C712.161 579.702 710.087 572.233 708.86 565.651C707.084 556.12 707.078 551.972 708.184 542.727C710.206 525.836 721.566 517.392 727.84 504.835C733.572 493.293 731.988 479.46 723.795 469.512C719.813 464.7 711.22 458.243 706.151 453.594C687.116 436.612 676.877 412.766 679.752 387.156C681.093 375.212 680.896 363.361 672.64 353.344C656.201 333.398 628.089 346.846 606.389 338.263C594.079 333.394 583.097 328.037 573.454 318.614C557.791 303.202 546.279 284.411 520.555 287.686C502.979 289.743 496.571 297.439 483.808 308.358C475.44 314.989 464.169 320.679 453.645 322.462C436.262 325.396 416.511 312.49 402.821 329.468C396.412 337.417 395.137 348.863 389.308 357.408C381.526 368.817 369.163 375.695 355.624 377.686C351.205 378.165 346.746 379.272 342.61 380.502C333.199 383.3 324.878 397.535 327.613 406.945C335.519 434.15 335.741 458.796 318.795 483.058C308.459 497.857 286.761 509.759 290.23 530.688C292.789 549.626 307.687 553.838 319.612 565.633C337.455 583.395 348.008 608.486 345 633.804C344.378 639.044 343.178 643.887 342.953 649.206C342.156 668.024 359.396 681.344 377.299 678.491C385.886 677.122 393.52 673.168 401.772 670.633C423.301 663.746 448.849 668.061 467.292 680.96C479.437 689.455 487.839 701.431 503.933 703.34Z"/><path fill="#1E706A" d="M521.581 300.179C538.503 299.062 544.811 307.123 555.051 318.657C558.971 323.019 563.129 327.161 567.506 331.065C579.695 341.764 594.382 349.222 610.212 352.751C616.835 354.17 623.655 354.306 630.494 354.636C640.915 355.139 652.563 352.421 660.875 360.278C671.088 369.933 666.831 383.322 666.693 396.618C666.407 424.097 677.977 445.502 697.875 463.918C703.086 468.741 708.766 472.663 713.849 477.573C718.6 482.163 719.59 489.842 717.432 495.968C714.189 505.178 705.61 512.719 701.349 521.654C694.708 535.583 693.121 550.819 695.545 565.988C696.52 572.085 698.708 578.52 698.511 584.677C698.214 593.927 684.654 597.266 677.647 600.881C673.374 603.091 669.436 605.896 665.952 609.214C654.264 620.347 647.414 635.623 646.875 651.755C646.612 659.008 649.331 673.329 643.29 677.897C635.623 683.697 624.055 673.887 617.576 669.901C606.447 663.056 594.111 660.732 581.154 660.927C561.882 660.82 545.702 668.48 531.151 680.633C522.056 688.23 515.971 691.955 503.789 690.743C490.057 686.238 480.398 672.326 466.66 665.157C445.179 653.811 420.433 651.723 396.774 658.637C383.374 662.553 361.995 675.625 356.153 651.43C355.131 647.2 357.583 639.232 357.997 634.534C360.771 603.077 348.147 572.25 323.707 552.184C316.599 546.319 305.12 539.004 303.205 529.529C300.838 517.819 315.221 507.12 322.244 499.256C326.491 494.451 330.341 489.31 333.758 483.884C347.717 461.816 348.751 433.964 341.745 409.496C336.689 391.836 350.338 391.708 362.379 389.634C379.999 386.599 397.3 372.585 404.858 356.468C410.782 343.836 411.289 329.972 429.606 334.142C459.027 340.838 484.214 327.392 504.923 307.608C509.444 303.289 515.541 301.098 521.581 300.179ZM596.053 556.464C609.319 546.33 617.758 536.371 620.098 519.211C621.998 505.275 618.121 495.841 611.395 484.077C627.16 464.863 635.465 449.963 632.881 423.754C630.881 404.969 621.492 387.751 606.783 375.896C591.818 363.822 573.327 358.307 554.045 360.146C553.984 360.159 553.923 360.173 553.863 360.187C545.781 361.264 537.486 362.981 530.209 366.396C508.476 376.596 491.729 397.74 488.666 421.758C488.093 426.253 488.163 431.237 487.501 435.569C481.261 432.665 475.497 429.724 468.752 427.729C394.433 405.747 328.133 475.853 354.432 548.587C360.825 566.269 368.796 574.831 382.167 587.702C378.138 598.094 373.067 606.531 378.253 617.885C384.507 631.576 400.209 637.272 413.795 630.59C420.026 627.568 424.743 622.117 426.839 615.516C427.626 613.083 428.179 610.066 428.614 607.54C433.196 608.209 439.46 608.096 444.201 608.082C455.594 607.84 460.916 605.461 471.187 602.995C473.368 607.482 475.191 612.226 477.853 616.528C507.618 664.633 578.072 656.774 597.026 603.684C602.742 587.671 600.071 572.536 596.053 556.464ZM447.276 625.963C437.182 635.804 456.251 647.014 465.636 644.993C474.612 638.085 465.026 633.195 458.884 630.167C454.201 627.858 452.973 625.483 447.276 625.963ZM630.294 624.38C628.486 619.294 628.344 617.985 622.399 617.484C616.812 620.703 618.6 624.033 615.021 628.664C611.405 633.342 601.314 631.442 599.932 637.893C598.794 643.205 603.292 645.125 607.637 645.267C619.959 643.583 627.882 636.831 630.294 624.38ZM639.794 525.05C632.913 529.697 618.358 560.79 616.84 569.726C613.612 588.722 626.202 601.46 645.27 601.05C687.245 590.78 661.035 547.063 645.071 525.592C644.3 524.555 641.04 524.89 639.794 525.05ZM651.467 456.563C640.849 462.891 651.695 468.361 657.635 471.316C663.13 474.049 665.639 477.312 667.305 483.091C668.149 485.991 668.617 488.987 668.697 492.007C668.833 500.229 664.814 509.349 676.298 509.24C679.568 506.953 680.329 504.731 681.005 500.755C684.163 482.178 673.887 455.603 651.467 456.563ZM403.79 393.138C376.692 397.793 375.428 427.423 391.024 419.825C393.676 416.135 393.212 412.91 396.443 409.378C400.583 404.851 414.899 406.673 414.094 398.859C413.442 392.537 408.492 392.698 403.79 393.138ZM456.179 355.53C446.686 355.989 438.17 361.511 433.878 369.991C429.586 378.472 430.178 388.604 435.429 396.526C440.68 404.448 449.781 408.94 459.264 408.29C473.721 407.299 484.684 394.85 483.838 380.383C482.992 365.916 470.654 354.829 456.179 355.53Z"/><path fill="#1E706A" d="M436.289 436.204C438.663 436.127 441.178 436.043 443.546 436.104C464.47 436.81 484.269 445.747 498.639 460.972C512.752 476.032 521.085 496.517 520.509 517.212C516.904 518.691 512.943 519.721 509.352 521.232C486.171 530.985 469.108 552.831 468.578 578.461C468.496 582.384 468.634 586.488 468.766 590.515C454.639 595.914 444.911 596.766 429.94 595.185C429.275 595.07 426.118 594.464 425.9 594.121C419.124 583.544 414.262 567.452 405.144 558.74C398.428 552.323 390.686 571.254 388.587 574.927C387.802 574.449 387.047 573.924 386.326 573.356C373.221 563.141 363.06 539.971 361.448 523.506C359.6 502.657 366.014 481.916 379.309 465.75C394.638 447.369 412.753 438.409 436.289 436.204ZM390.2 519.011C390.88 514.499 391.23 509.791 392.227 505.371C397.104 483.748 415.553 467.552 437.741 466.241C441.232 466.138 443.352 466.184 445.825 463.494C447.921 461.214 448.908 458.89 446.201 456.494C442.378 453.111 437.806 453.712 433.177 454.17C370.773 463.31 370.836 540.157 390.2 519.011Z"/><path fill="#1E706A" d="M555.39 372.703C571.979 370.543 591.368 378.291 603.072 389.95C614.157 401.085 620.398 416.147 620.439 431.859C620.397 448.611 613.968 462.392 602.254 474.052C599.967 473.132 594.551 469.751 591.865 468.409C581.108 463.033 569.924 462.753 558.265 464.965C550.006 467.545 540.684 471.608 535.08 478.076C527.527 486.792 528.847 484.216 524.544 475.885C521.358 469.716 516.839 462.181 512.397 456.842C507.383 450.816 502.416 449.302 501.339 440.503C499.241 424.399 503.711 408.127 513.742 395.354C524.664 381.583 538.137 374.604 555.39 372.703ZM525.704 426.414C528.344 424.862 529.916 422.345 530.575 419.695C531.981 414.039 537.859 405.601 543.812 403.935C553.114 401.331 557.049 388.989 545.439 389.561C532.771 393.084 522.461 403.306 518.322 415.835C515.986 422.904 517.738 427.044 525.704 426.414Z"/><path fill="#1E706A" d="M527.954 529.441C557.228 525.835 583.867 546.684 587.4 575.967C590.933 605.249 570.017 631.836 540.725 635.295C511.537 638.743 485.065 617.917 481.545 588.738C478.025 559.558 498.784 533.034 527.954 529.441Z"/><path fill="#1E706A" d="M568.42 476.181C571.232 476.063 574.049 476.204 576.835 476.602C586.751 478.077 594.523 482.863 600.466 490.892C606.614 499.086 609.139 509.44 607.453 519.544C605.591 530.935 598.687 538.968 589.564 545.452C587.24 542.491 584.862 539.573 582.432 536.699C566.975 521.057 554.179 517.155 533.204 516.453C533.325 494.427 545.825 478.159 568.42 476.181Z"/><path fill="#1E706A" d="M401.721 576.235C405.413 579.376 414.077 597.966 415.148 603.295C417.035 612.677 413.218 619.084 403.44 620.939C376.597 619.646 394.976 588.139 401.721 576.235Z"/><path fill="#1E706A" d="M641.838 543.778C645.343 546.352 654.198 566.136 655.071 571.068C656.802 580.854 652.666 586.999 642.615 588.469C616.85 586.365 634.757 555.516 641.838 543.778Z"/><path fill="#1E706A" d="M453.212 368.686C458.035 367.146 463.313 368.326 467.019 371.774C470.726 375.221 472.285 380.4 471.097 385.321C469.909 390.242 466.16 394.14 461.288 395.517C453.93 397.598 446.262 393.394 444.059 386.072C441.855 378.75 445.928 371.013 453.212 368.686Z"/><path fill="#1E706A" d="M424.14 18.1355C437.992 16.3825 452.604 21.5328 463.192 30.3221C491.925 54.1733 498.807 97.6867 503.973 132.541C506.558 149.242 508.688 166.01 510.362 182.828C511.896 176.736 512.618 166.235 513.472 159.528C518.21 124.179 519.163 85.5298 537.559 53.9511C555.037 23.9494 585.844 5.87796 617.919 26.6617C623.587 30.5182 630.38 35.6995 634.932 40.9136C654.533 63.3675 674.534 87.4872 689.616 113.225C695.959 124.049 700.784 139.506 703.547 151.72C707.462 169.025 706.64 189.959 704.626 207.576C699.496 237.22 685.764 271.156 669.967 296.687C667.932 300.24 666.25 303.208 663.904 306.549C652.521 305.674 626.669 307.005 617.982 304.028C584.482 291.792 577.805 253.815 538.099 248.728C501.419 244.028 486.381 257.709 460.575 280.466C450.648 289.221 434.968 286.412 422.583 283.976C392.18 277.997 371.223 292.325 366.071 323.146C364.682 319.778 360.719 314.665 358.535 311.459C355.654 307.162 352.881 302.793 350.219 298.356C309.955 231.55 293.942 153.911 346.402 88.0968C366.018 63.4865 390.759 23.3715 424.14 18.1355Z"/><path fill="#1E706A" d="M825.423 251.275C834.837 250.484 855.859 251.034 864.241 253.653C904.888 266.356 991.775 285.066 976.619 344.308C965.947 386.019 909.934 407.721 874.163 422.754C861.228 428.082 848.438 433.755 835.807 439.765C830.297 442.349 821.969 446 816.925 449.113L816.276 449.519C825.049 448.358 837.901 445.16 846.841 443.27L890.944 434.2C926.229 426.933 974.498 415.9 1005.74 440.628C1035.94 464.539 1021.15 506.007 1002.18 531.868C997.413 538.366 993.741 545.036 988.38 551.758C968.011 580.156 937.707 610.849 902.194 617.751C868.889 624.225 829.714 621.63 797.03 612.418C782.138 608.221 767.253 602.518 752.331 598.099C751.913 580.998 743.906 567.256 743.443 553.904C742.876 537.571 769.698 515.758 770.928 497.822C771.274 492.778 772.116 487.922 771.491 482.745C773.142 447.693 724.666 433.517 718.281 407.67C710.594 376.551 728.639 361.388 705.416 328.724C738.048 288.988 771.505 257.266 825.423 251.275Z"/><path fill="#1E706A" d="M307.702 624.063L308.488 624.05C310.92 627.362 304.942 654.356 305.063 660.386C305.099 667.873 305.617 676.318 308.135 683.43C319.943 716.786 356.346 726.041 387.201 713.854C394.128 711.118 401.316 708.048 408.173 705.787C410.067 711.347 411.176 722.286 413.756 730.128C423.794 760.639 437.951 773.204 458.791 794.55C458.112 795.24 457.322 795.94 456.593 796.546C428.842 819.607 410.017 853.334 408.305 889.745C407.573 905.312 408.437 926.175 415.227 940.713C417.17 944.874 420.251 948.4 423.262 951.856C406.015 969.365 373.859 982.261 350.289 988.528C326.084 994.866 284.862 1004.79 262.382 991.513C224.099 968.894 238.149 912.474 256.47 881.101C263.29 869.301 271.562 857.088 278.988 845.615C291.563 826.604 303.508 807.184 314.804 787.387C308.728 792.488 302.749 798.964 297.24 804.716C280.216 822.491 263.211 840.306 246.052 857.951C235.374 868.932 224.936 880.112 212.201 888.759C202.405 895.481 191.45 900.333 179.889 903.07C101.138 921.259 107.144 818.39 113.596 769.833C124.189 690.107 190.269 658.027 259.808 638.117C275.404 633.652 291.71 627.653 307.702 624.063Z"/><path fill="#1E706A" d="M734.168 631.028C739.181 631.01 753.228 635.854 758.637 637.535C792.519 648.065 823.575 658.413 852.393 679.889C884.477 703.798 900.791 731.765 906.085 771.89C910.398 804.582 913.316 858.607 893.943 886.784C887.363 896.355 875.477 903.317 864.106 904.53C853.952 905.614 848.792 904.692 839.119 902.54C809.466 895.944 794.646 877.448 774.083 857.392C760.414 844.128 747.016 830.588 733.896 816.781C724.016 806.197 715.836 796.107 704.211 787.259C707.351 793.107 713.554 802.03 717.344 808.107C726.249 822.67 735.269 837.162 744.404 851.582C752.625 864.576 761.392 877.545 768.244 891.249C776.244 906.573 780.609 923.533 781.004 940.814C781.74 974.833 765.216 998.291 729.936 997.96C689.349 997.579 626.622 980.574 597.46 951.754C609.451 941.169 612.112 926.882 613.402 911.642C616.553 876.722 605.589 841.994 582.958 815.213C576.565 807.566 568.559 801.311 562.769 794.195C565.332 790.552 575.146 782.009 578.934 777.797C595.298 759.601 602.867 744.365 610.404 721.815C617.65 726.536 625.714 729.989 634.111 732.268C665.382 740.637 696.578 719.744 698.269 686.85C698.876 675.046 694.103 662.309 696.295 651.249C698.342 640.92 713.484 639.419 721.682 636.729C726.409 635.178 729.592 633.628 734.168 631.028Z"/><path fill="#1E706A" d="M577.306 710.075C582.771 709.685 585.233 709.922 590.578 710.91C587.84 727.608 580.749 741.68 570.392 754.833C560.844 766.763 549.876 777.483 537.732 786.756C509.437 808.467 473.372 825.96 456.919 859.807C449.418 875.633 446.691 893.302 449.072 910.654C449.479 913.576 450.203 916.716 450.701 919.628C452.108 927.846 453.647 930.791 445.664 935.323C436.437 937.754 433.358 931.403 431.627 923.516C427.597 905.232 427.878 885.848 433.128 867.825C442.112 836.789 466.604 813.162 492.305 795.22C520.195 775.651 551.862 757.271 566.398 724.809C569.798 717.216 568.295 711.997 577.306 710.075Z"/><path fill="#1E706A" d="M539.357 803.398C544.462 804.259 564.222 825.697 568.418 830.817C571.149 834.162 573.669 837.675 575.961 841.335C591.598 866.222 596.662 894.672 590.46 923.435C588.584 932.137 584.646 937.722 575.15 935.257C566.045 929.975 571.982 919.703 572.726 911.443C573.114 907.144 574.13 902.71 574.028 898.363C573.421 872.396 561.695 848.736 542.86 831.123C536.894 825.443 529.486 820.328 523.925 814.756L523.419 814.244C526.795 810.905 535.025 806.063 539.357 803.398Z"/><path fill="#1E706A" d="M429.795 704.815C435.22 705.399 445.905 708.585 449.652 712.598C452.249 715.38 454.03 723.316 456.269 727.52C465.61 745.058 481.958 763.327 499.099 773.693L492.639 777.931C489.023 780.568 485.343 783.115 481.603 785.571C463.781 773.366 444.994 750.504 436.64 730.851C433.403 723.236 431.067 713.022 429.795 704.815Z"/><path fill="#1E706A" d="M463.951 891.15L524.597 891.158C535.76 891.15 548.298 890.868 559.372 891.301C559.743 893.946 560.738 900.769 559.494 903.046C559.119 903.732 558.695 903.524 557.625 903.666C537.198 903.936 516.769 904.022 496.341 903.924C487.328 903.925 469.772 904.424 461.427 903.453C461.051 898.774 459.649 894.011 463.951 891.15Z"/><path fill="#1E706A" d="M472.705 861.051L519.659 860.974C528.157 860.953 536.597 860.939 545.096 861.084C551.995 861.201 553.474 867.632 554.981 873.431L548.625 873.662C532.709 873.838 516.791 873.91 500.874 873.876C489.556 873.885 476.968 874.105 465.755 873.462C467.039 869.48 469.697 863.976 472.705 861.051Z"/><path fill="#1E706A" d="M483.558 742.142C501.626 741.989 519.695 742.009 537.763 742.202C535.464 745.07 533.952 746.707 531.355 749.321C530.614 749.953 528.488 751.66 527.853 752.199C523.107 756.231 502.431 755.357 496.304 754.376C491.981 750.795 486.614 746.761 483.558 742.142Z"/><path fill="#1E706A" d="M500.255 831.113C507.114 830.881 515.176 830.951 522.028 831.167C527.901 835.132 530.667 838.359 535.516 843.478L521.625 843.5C510.015 843.676 497.01 843.729 485.469 843.314C489.121 839.898 496.107 833.183 500.255 831.113Z"/><path fill="#1E706A" d="M204.752 450.09L204.064 449.634C190.798 440.927 167.573 432.073 152.459 425.234C111.817 406.845 55.3806 391.01 42.8402 341.898C35.3811 311.501 56.8974 291.918 81.77 279.899C105.296 268.531 131.315 258.328 156.912 253.023C230.726 237.726 288.143 290.357 327.956 345.55C314.019 349.626 302.219 353.576 294.807 367.225C279.887 394.701 298.605 417.346 296.686 443.707C295.447 460.713 277.005 473.886 267.263 485.906C259.89 494.902 254.963 505.648 252.956 517.105C251.36 526.667 251.742 534.462 254.416 543.717C261.09 566.812 276.077 574.955 292.219 590.011C279.459 595.115 264.118 599.741 250.978 604.062C235.42 609.179 216.422 615.071 200.315 617.912C169.454 623.356 129.987 624.827 100.794 612.171C69.8487 598.755 47.1096 573.254 28.0846 546.246C22.2756 537.999 16.4529 529.93 11.3147 521.287C8.59167 516.669 6.13609 511.898 3.96006 506.998C3.14185 505.196 0.762088 499.489 0 498.3L0 459.137C2.82968 454.939 5.21472 450.209 8.25609 446.284C15.9944 436.298 32.8082 429.458 44.8951 427.214C76.8745 421.276 110.932 430.33 142.203 436.405C155.701 439.027 168.632 442.086 181.981 445.15C189.65 446.91 197.06 448.138 204.752 450.09Z"/></svg>