<?xml version="1.0" encoding="utf-8" ?><svg xmlns="http://www.w3.org/2000/svg" xmlns:xlink="http://www.w3.org/1999/xlink" width="1024" height="1024" viewBox="0 0 1024 1024"><path fill="#1E706A" d="M711.841 298.217C733.275 297.428 755.969 298.114 777.072 298.082C815.509 298.024 856.468 292.009 881.794 328.012C886.007 334.003 889.928 340.477 893.938 346.435C935.425 408.068 946.594 477.927 937.135 550.785C936.152 558.356 930.703 563.392 924.592 567.2C925.313 579.686 928.002 601.789 926.177 613.34C924.661 622.933 917.36 642.508 913.645 652.003C906.718 669.708 907.308 673.426 908.603 692.229L910.542 720.812C912.434 749.707 913.831 781.974 916.63 810.58L919.939 813.412C921.648 819.473 924.728 836.289 924.8 842.033L924.644 842.064C918.401 843.356 900.178 844.106 893.66 843.821C893.213 836.673 893.901 828.292 894.283 821.065C894.524 816.505 894.751 814.743 898.07 811.907C897.855 801.367 896.639 789.122 895.893 778.5C894.63 758.823 893.256 739.153 891.771 719.492C891.107 710.221 889.915 678.383 887.701 671.833C881.903 654.68 864.476 631.665 860.652 613.048C859.56 607.729 859.066 597.123 858.692 591.465L856.573 559.277C853.622 516.354 851.56 472.03 847.989 429.397C842.897 428.324 838.5 427.339 835.413 422.604C833.551 419.782 832.927 416.32 833.687 413.025C834.769 408.514 837.438 406.41 841.08 404.156C848.202 403.624 859.133 405.693 867.633 405.864C864.997 401.012 861.709 395.706 858.86 390.905C853.63 389.891 847.568 388.799 842.251 389.413C834.913 390.265 828.241 394.078 823.782 399.969C819.377 405.899 817.614 414.088 818.979 421.327C820.822 431.107 825.938 435.309 833.431 440.564C835.355 482.154 839.241 523.894 841.755 565.459C842.931 584.91 845.174 605.177 844.885 624.62C844.647 640.647 845.584 657.749 844.473 673.624C843.678 681.311 840.563 688.342 835.061 693.824C828.611 700.21 819.913 703.811 810.837 703.853C801.769 703.793 793.1 700.114 786.756 693.633C780.004 686.82 777.064 679.007 776.994 669.536C776.93 660.88 776.941 652.196 776.947 643.545L777.002 582.502L760.48 582.499C760.498 583.026 760.513 583.553 760.525 584.08C760.879 602.611 760.578 622.038 760.573 640.625L760.62 739.75L760.607 788.66C760.638 804.863 763.437 823.658 751.313 836.104C744.884 842.786 736.026 846.585 726.754 846.636C717.957 846.755 709.479 843.347 703.214 837.172C694.872 828.889 693.015 820.591 692.893 809.333C698.72 807.214 704.027 804.954 709.665 802.401C728.206 794.005 745.718 788.476 750.714 766.019C753.09 755.438 751.163 744.347 745.359 735.187C737.715 723.386 728.015 719.549 715.086 716.695C708.4 704.296 698.559 683.051 693.351 669.662C692.48 667.423 692.828 650.578 692.836 646.906L692.903 604.132L692.86 455.504L692.905 410.506C692.936 402.6 693.298 391.492 692.774 383.89C689.515 393.031 684.924 416.215 682.48 426.752L662.045 515.868C659.113 528.932 656.114 544.439 651.913 557.117C650.65 560.93 645.835 564.528 642.557 566.822C643.069 541.217 632.243 527.649 607.132 522.847C610.591 509.637 613.666 494.354 616.74 480.888L637.497 390.63C640.938 376.119 643.75 358.805 648.615 344.999C658.526 316.878 683.189 300.314 711.841 298.217ZM896.061 651.662L896.695 652.162C897.528 650.604 901.542 637.63 902.595 634.899C904.303 630.464 909.762 615.95 910.249 611.8C911.739 599.112 908.871 583.174 908.999 569.958C903.055 568.408 900.984 567.223 895.736 563.941C893.994 564.015 891.637 564.039 889.96 564.25C884.263 564.652 878.557 564.923 872.848 565.063L872.955 565.683C875.044 578.462 874.517 598.995 876.755 610.979C878.322 619.368 891.455 642.61 896.061 651.662ZM872.049 549.097C874.354 548.977 877.306 548.908 879.542 548.608C882.332 548.45 885.196 548.32 887.976 548.116C888.251 537.293 889.523 526.456 889.84 515.571C890.401 496.292 889.027 476.932 886.233 457.855C885.43 452.373 882.091 435.836 879.069 431.658C877.251 430.702 877.867 430.986 875.485 431.22C871.81 431.507 868.125 431.67 864.439 431.71C866.151 460.678 868.023 489.637 870.053 518.585C870.599 527.654 871.957 540.421 872.049 549.097Z"/><path fill="#1E706A" d="M206.823 298.218C224.605 297.726 242.788 298.068 260.585 298.039C283.963 298.214 309.919 295.393 329.893 310.445C373.135 343.032 389.068 404.762 398.884 454.744C381.9 452.808 364.308 450.493 347.346 448.896C340.382 420.396 335.924 404.839 321.491 379.191C322.384 398.426 321.309 418.346 321.819 437.635C321.98 443.707 321.932 450.343 321.658 456.405C308.03 470.464 308.349 486.628 321.476 500.899C322.747 520.137 321.271 543.924 321.826 563.582C321.996 569.607 322.16 596.163 321.394 600.698C304.517 620.723 292.894 649.566 289.336 675.393C282.976 721.56 294.182 760.822 321.572 797.786C322.21 812.052 323.483 825.535 313.128 836.658C307.34 842.874 299.283 846.483 290.791 846.664C282.257 846.858 274.011 843.573 267.948 837.564C263.12 832.832 259.949 826.667 258.906 819.988C257.93 813.815 258.296 801.047 258.3 794.411L258.348 749.676C258.383 694.197 258.892 637.784 258.26 582.393C252.727 582.584 247.173 582.294 241.638 582.092C241.704 582.665 241.801 583.422 241.806 583.995C241.964 600.794 241.902 617.692 241.904 634.483L241.92 732.912L241.955 788.505C241.956 791.639 242.004 794.789 241.957 797.922C241.733 812.921 243.949 825.275 232.888 837.006C227.116 843.104 219.135 846.626 210.741 846.78C202.255 846.822 194.094 843.523 188.022 837.596C181.541 831.283 178.646 822.772 178.471 813.881L178.51 524.156L178.486 430.43C178.503 413.866 178.26 396.444 178.696 379.935C173.88 386.416 168.648 398.952 165.527 406.671C152.663 438.481 147.742 473.259 146.061 507.354C145.527 518.174 145.817 530.134 145.487 541.195C151.131 547.745 153.672 550.683 156.884 560.116C159.426 567.582 161.025 585.984 147.219 583.994C139.789 582.922 139.741 569.988 138.689 564.779C138.317 562.933 137.044 560.574 135.963 558.545C125.735 564.786 117.371 564.796 107.342 558.345C101.251 569.403 102.662 576.908 102.674 589.104L102.727 621.013L102.729 763.449L102.772 808.083C102.802 817.101 102.974 826.28 102.627 835.295C102.338 838.107 102.364 841.608 100.383 843.813C97.008 847.571 90.8342 847.682 87.1664 844.339C84.0348 841.485 84.1837 837.128 84.1578 833.236L84.1287 647.913L84.1063 597.481C84.0641 575.781 81.2011 558.211 97.6538 541.523C94.4638 482.184 103.107 417.345 129.222 363.421C145.028 330.783 167.875 301.021 206.823 298.218Z"/><path fill="#1E706A" d="M475.671 439.695C486.323 438.638 498.586 442.175 506.948 448.938C525.372 463.84 524.755 480.764 526.614 502.179C527.699 514.669 528.669 528.163 530.108 540.459C546.251 540.147 562.771 540.476 578.983 540.35C588.885 540.65 599.144 539.651 608.952 541.114C618.246 542.5 625.19 551.683 625.224 560.753C625.201 566.594 622.85 572.185 618.692 576.287C610.78 584.189 594.083 581.96 583.419 581.95L533.882 581.942C534.37 592.272 535.918 602.339 536.08 612.975C566.377 613.375 596.928 612.484 627.231 613.265C630.189 613.476 632.882 614.105 635.68 615.074C652.392 620.861 657.567 636.077 664.474 650.789C668.237 658.627 671.949 666.491 675.61 674.378L704.838 735.886C716.556 732.75 725.848 736.219 732.019 746.721C740.821 767.942 725.3 777.599 708.248 783.784C701.864 786.099 694.393 791.525 687.806 792.528C672.017 794.932 663.925 784.387 658.672 771.435C643.435 741.056 629.724 710.076 614.317 680C578.976 679.094 543.199 680.206 507.831 679.858C500.138 679.782 491.624 680.321 484.154 678.909C462.222 674.763 446.863 655.777 445.28 633.829C442.638 603.746 440.447 574.003 438.046 544.152L435.11 506.939C434.504 499.052 433.326 487.512 434.147 479.827C435.142 471.114 438.545 462.849 443.974 455.962C452.506 445.353 462.555 441.174 475.671 439.695Z"/><path fill="#1E706A" d="M339.322 466.1C346.883 465.661 366.066 468.75 374.248 469.535C384.258 470.77 394.32 471.899 404.274 473.445C418.626 475.675 417.133 487.828 417.997 498.966L420.143 525.992C421.524 542.996 424.341 565.502 424.999 581.851C422.866 582.703 420.057 583.53 417.833 584.179C399.801 589.443 383.718 598.174 369.648 610.871C346.436 632.021 332.567 661.52 331.086 692.888C329.396 724.918 340.628 756.287 362.266 779.965C384.804 804.509 415.315 819.76 448.78 820.986C481.374 822.041 513.016 809.901 536.539 787.315C563.032 762.327 574.583 732.213 575.506 696.37L601.064 696.431C601.11 709.157 600.276 715.94 598.129 728.267C596.741 735.079 595.179 740.982 592.747 747.532C578.792 785.858 549.957 816.928 512.779 833.702C477.349 849.631 437.017 850.708 400.787 836.694C363.461 822.392 333.397 793.767 317.282 757.187C301.689 721.777 300.855 681.612 314.966 645.586C326.781 615.736 348.242 590.697 375.934 574.455C383.233 570.144 389.915 567.199 397.613 563.783C395.144 542.063 393.813 519.011 391.925 497.092C383.898 496.486 339.708 491.999 334.717 489.069C332.122 487.546 330.309 484.315 329.601 481.468C328.786 478.186 329.232 474.348 331.059 471.471C333.01 468.4 335.882 466.921 339.322 466.1Z"/><path fill="#1E706A" d="M245.012 165.682C278.337 162.865 307.637 187.593 310.461 220.918C313.285 254.242 288.564 283.548 255.24 286.379C221.906 289.211 192.589 264.481 189.764 231.146C186.939 197.811 211.676 168.5 245.012 165.682Z"/><path fill="#1E706A" d="M766.072 165.635C799.45 164.225 827.657 190.13 829.087 223.508C830.516 256.885 804.627 285.107 771.25 286.556C737.846 288.005 709.596 262.091 708.166 228.686C706.735 195.281 732.666 167.046 766.072 165.635Z"/><path fill="#1E706A" d="M479.093 324.605C507.382 321.68 532.718 342.163 535.785 370.437C538.853 398.711 518.498 424.151 490.24 427.36C461.779 430.593 436.118 410.061 433.029 381.584C429.939 353.108 450.601 327.55 479.093 324.605Z"/></svg>