<?xml version="1.0" encoding="utf-8" ?><svg xmlns="http://www.w3.org/2000/svg" xmlns:xlink="http://www.w3.org/1999/xlink" width="1024" height="1024" viewBox="0 0 1024 1024"><path fill="#1E706A" d="M506.293 27.2218C526.181 26.8276 539.623 29.4033 557.28 39.3856C578.007 51.1944 593.173 70.7776 599.42 93.8001C613.086 144.625 583.143 192.401 533.022 205.791C532.458 232.357 532.967 261.006 532.968 287.754L532.925 487.481C520.671 496.871 512.039 504.724 502.604 517.05C498.511 522.603 495.175 527.618 491.412 533.412C490.576 526.482 491.028 507.016 491.03 499.36L491.039 431.261L491.059 205.524C478.35 202.884 464.865 196.355 454.927 188.092C390.832 134.802 423.549 34.1415 506.293 27.2218Z"/><path fill="#1E706A" d="M239.355 288.748C224.624 286.669 209.716 285.207 195.114 282.352C155.753 274.658 117.867 257.342 93.1591 224.747C62.8467 184.758 53.1808 132.433 49.8114 83.5681C48.9702 71.3693 47.8139 53.8459 49.533 42.0959C50.2174 37.4182 52.0313 31.9633 56.0947 29.1473C65.819 22.4086 124.894 33.5499 138.593 36.5651C188.018 47.4438 243.193 68.4946 271.758 112.949C293.272 146.431 296.989 184.264 298.746 222.969C299.224 233.5 298.349 244.107 300.092 254.549C303.028 272.133 314.621 285.286 322.839 300.486C333.148 319.434 340.115 340.017 343.434 361.331C347.285 385.797 346.886 415.5 346.836 440.376L346.952 514.896C347.066 553.035 342.036 595.529 380.017 618.321C396.256 628.066 414.393 631.315 432.127 637.252C483.903 652.869 522.788 688.383 530.433 743.846C532.724 760.461 533.571 780.784 532.545 797.571C532.335 801.009 514.33 812.254 510.685 815.84C502.968 823.431 497.656 829.968 491.154 838.445C490.994 822.813 490.962 807.181 491.059 791.548C491.09 759.76 491.2 726.324 466.71 702.38C444.351 680.519 394.787 665.35 363.97 665.874C337.357 666.326 304.778 678.463 286.084 697.723C281.103 702.82 277.481 709.085 275.551 715.945C272.653 725.896 273.05 736.287 271.928 746.769C267.95 783.908 263.326 822.239 234.745 849.625C218.557 865.136 183.985 874.933 173.825 846.474C172.043 841.483 171.027 833.215 170.916 827.805C154.849 839.665 128.467 858.016 107.498 855.581C99.7983 854.687 90.3129 848.538 86.1972 842.026C72.8999 820.989 93.0238 796.199 106.668 781.028C109.757 777.593 113.316 774.269 115.898 770.906C95.013 765.137 80.5712 757.794 87.3907 731.499C92.0867 715.462 105.112 702.449 119.437 695.066C146.2 681.27 180.741 679.04 210.219 679.16C241.641 679.287 243.48 680.645 267.606 659.355C281.31 647.262 312.556 631.945 330.502 628.553C322.262 617.575 316.18 605.105 311.718 592.185C308.902 584.03 308.226 575.692 305.855 568.471C299.705 549.734 277.324 536.197 258.486 533.822C247.953 532.494 234.477 532.919 223.382 532.926L165.989 532.965C154.85 570.603 132.913 586.226 104.439 611.432C86.3093 627.481 65.2187 631.476 50.0497 608.194C39.1164 591.413 57.9286 569.313 58.402 552.886C54.8989 551.219 51.3916 549.676 47.8761 548.056C31.685 540.597 9.12269 538.963 2.33733 519.565C1.42718 516.963 0.900958 514.355 0 511.76L0 506.132C1.13219 503.235 1.58714 500.487 2.5939 497.406C5.03602 489.932 11.4737 484.202 18.4705 480.956C31.0579 475.814 45.5663 472.145 58.5678 467.681C52.7467 453.88 43.2147 431.714 49.2086 417.125C52.3651 409.443 58.9605 403.821 66.5917 400.837C73.6583 398.073 81.0465 398.476 87.9197 401.586C100.694 407.365 137.524 441.757 147.065 453.726C153.406 461.681 158.721 470.194 162.242 479.775C163.609 483.498 164.631 487.386 166.074 491.067L217.977 491.015C253.453 490.994 272.829 489.78 305.261 507.434C304.467 480.285 305.414 451.744 305.076 424.484C304.797 402.002 305.975 388.219 302.31 365.896C297.531 336.787 288.382 324.533 275.378 299.388C264.277 277.923 254.013 258.11 241.23 237.435C220.212 203.515 194.965 172.407 166.097 144.858C159.762 138.89 147.764 127.82 140.765 123.023C145.734 131.477 152.305 140.573 157.924 148.686C163.715 157.117 169.441 165.592 175.102 174.11C191.352 198.454 206.554 223.48 220.67 249.121C226.283 259.305 236.316 277.64 239.355 288.748Z"/><path fill="#1E706A" d="M491.158 642.446C486.928 559.203 517.733 500.034 601.583 478.732C620.784 472.434 654.751 469.032 667.264 451.987C680.232 434.321 677.497 401.8 678.172 380.566C678.602 367.042 678.439 353.008 679.079 339.497C680.937 300.311 697.168 261.85 722.911 232.383C730.155 224.094 738.215 216.77 745.849 208.899C755.691 198.75 768.058 188.802 773.257 175.328C777.328 164.692 774.62 152.867 772.987 142.031C768.342 114.054 771.192 87.4651 788.687 64.1329C800.624 48.213 822.747 31.2502 842.933 27.4413C849.646 26.1747 858.499 27.9934 863.735 32.3606C873.935 40.868 876.105 50.7848 877.737 62.9898C888.762 56.7057 895.365 52.7947 907.932 48.5531C926.517 42.2808 951.121 39.1475 958.792 62.7066C962.728 74.7946 955.224 94.6777 949.803 105.706C947.415 110.563 942.527 116.617 939.527 121.748C944.679 123.528 949.712 125.23 954.144 128.478C984.768 150.921 952.308 188.654 932.629 204.402C914.072 219.113 890.679 226.344 867.056 224.67C854.364 223.765 839.786 220.736 826.666 219.322C847.717 194.585 864.896 166.433 868.926 133.497C869.475 129.006 869.265 106.791 859.181 115.077C858.801 115.389 850.78 135.312 849.4 138.153C834.127 169.584 814.092 197.213 790.035 222.506C782.036 230.904 773.232 239.342 765.006 247.591C740.699 272.273 724.829 299.861 721.102 334.757C719.464 350.098 719.947 364.905 719.972 380.274C746.183 364.836 768.657 364.422 797.656 364.396C808.768 364.33 819.88 364.394 830.991 364.589C831.297 350.862 829.014 309.544 833.394 299.233C835.287 294.775 838.456 292.009 842.99 290.295C844.95 289.554 846.795 289.342 848.872 289.247C858.667 288.798 868.608 289.114 878.419 289.114L931.651 289.131L980.352 289.108C989.02 289.103 997.711 289.015 1006.36 289.212C1012 289.341 1016.53 291.588 1019.97 296.044C1022.01 298.701 1022.81 301.074 1024 304.172L1024 468.262C1018.71 478.53 1015.04 481.922 1003.55 481.937C967.016 481.982 930.487 481.978 893.957 481.974L863.016 481.969C859.436 481.968 850.103 482.161 847.054 481.654C842.84 480.942 838.966 478.896 836.002 475.818C829.973 469.616 831.278 452.257 831.253 443.905L831.166 406L799.402 405.972C781.063 405.968 763.361 405.005 746.312 413.139C732.429 419.763 722.285 429.853 716.817 444.343C714.579 450.274 713.301 456.239 710.815 462.253C706.178 473.439 698.627 483.177 688.948 490.453C649.965 519.373 593.426 511.951 558.516 546.207C532.294 571.936 532.941 605.44 532.932 638.751C532.979 654.975 532.938 671.198 532.809 687.421C527.116 676.516 513.62 661.117 504.356 653.007C500.472 649.607 495.618 646.528 491.598 642.855L491.158 642.446Z"/><path fill="#1E706A" d="M509.172 1024C503.405 1022.13 498.611 1020.36 495.092 1014.92C492.978 1011.65 491.367 1006.91 491.214 1002.97C490.721 990.279 491.223 977.482 491.054 964.779C491.264 941.332 490.049 918.511 492.567 895.219C493.444 886.619 495.378 878.16 498.325 870.033C507.55 845.145 526.296 824.949 550.429 813.898C572.279 803.947 592.689 804.606 615.435 803.716C635.846 802.917 657.222 787.364 663.958 768.223C669.759 752.858 668.191 733.71 669.261 717.176C671.608 680.615 694.091 648.391 727.597 633.571C747.185 624.689 767.764 623.899 788.919 624.07C791.747 624.092 798.746 624.745 800.837 623.389C800.965 622.231 800.821 622.034 800.662 620.938C799.019 609.635 809.174 607.926 817.913 606.49C833.114 603.992 849.46 603.279 864.54 600.207C867.627 599.577 871.803 589.837 873.388 586.597L884.803 563.174C888.098 556.249 895.345 536.147 906.152 543.288C913.193 547.941 916.42 560.322 920.329 567.509C923.586 573.497 926.498 579.29 929.325 585.485C931.242 589.687 933.763 596.085 936.379 599.671C936.542 599.73 936.704 599.793 936.869 599.849C949.058 604.004 996.294 603.301 1001.52 613.183C1002.85 615.71 1003.07 618.469 1002.22 621.191C998.611 632.813 960.219 659.814 959.234 669.103C958.8 673.198 960.328 678.081 961.107 682.108C963.074 692.277 969.272 719.245 967.723 728.221C967.192 731.301 965.681 734.395 962.737 735.8C959.446 737.37 954.949 736.197 951.775 734.895C939.428 729.833 927.546 722.11 915.747 715.814C911.223 713.401 906.623 710.769 901.77 709.093L901.071 709.294C895.458 710.941 888.509 715.268 883.27 718.205C875.707 722.519 868.078 726.719 860.387 730.802C856.535 732.828 852.481 735.213 848.227 736.253C845.754 736.857 843.056 736.872 840.729 735.726C838.303 734.532 836.699 732.231 835.929 729.685C833.186 720.622 844.076 680.52 844.054 666.18C839.302 665.301 823.104 665.55 816.98 665.525C804.985 665.443 792.988 665.481 780.993 665.64C773.598 665.732 764.743 665.538 757.602 666.912C749.286 668.544 741.387 671.846 734.384 676.617C709.66 693.721 709.329 719.98 709.812 746.771C709.899 751.612 708.494 757.712 707.946 762.609C702.039 803.619 668.359 836.887 627.634 843.468C613.844 845.696 599.198 844.697 585.291 846.516C560.035 849.686 539.119 867.187 534.365 892.581C532.369 903.24 532.935 918.68 532.936 929.906L532.961 980.507C532.971 992.163 535.156 1008.72 526.592 1017.69C523.311 1021.13 519.22 1022.51 514.858 1024L509.172 1024Z"/></svg>