<?xml version="1.0" encoding="utf-8" ?><svg xmlns="http://www.w3.org/2000/svg" xmlns:xlink="http://www.w3.org/1999/xlink" width="1024" height="1024" viewBox="0 0 1024 1024"><path fill="#1E706A" d="M810.292 200.782C814.21 204.986 833.593 244.172 836.774 250.866C844.691 251.04 856.514 251.349 864.015 253.664C904.382 266.12 992.62 285.344 976.657 344.565C964.391 390.072 902.391 409.872 863.994 426.973C848.726 433.773 830.707 441.072 816.328 449.559C838.667 445.341 860.985 440.228 883.776 435.65C917.634 428.85 954.511 419.009 988.783 430.938C1001.83 435.48 1014.03 445.89 1019.43 458.645C1024.81 470.936 1023.67 492.048 1017.63 504.038C997.008 544.983 963.309 593.258 919.919 611.914C893.27 623.371 858.984 622.323 830.712 619.341C812.449 617.415 792.505 610.942 775.207 605.518C757.158 599.956 739.322 593.728 721.734 586.846C731.42 570.267 740.064 551.634 747.755 534.035C761.31 503.339 773.152 471.915 783.229 439.908C791.544 414.154 796.878 391.368 807.798 365.866C813.504 352.775 820.727 340.401 829.32 328.996C833.489 323.463 838.04 317.818 842.571 312.415C849.04 304.701 862.974 297.997 856.377 285.713C854.202 281.665 851.384 280.05 847.13 278.71C840.98 280.049 836.341 282.252 831.065 285.61C818.145 293.835 805.32 301.866 794.069 312.359C764.043 340.363 745 374.448 733.65 413.665C731.569 420.689 729.311 427.7 727.634 434.834C726.702 438.798 725.637 444.313 730.958 445.426C737.478 444.059 740.162 428.242 742.094 421.8C752.228 388.015 766.792 356.205 791.443 330.41C798.523 323.001 804.882 317.901 812.37 311.21C788.428 343.796 777.758 373.767 766.741 412.496C762.206 428.7 757.639 444.318 751.572 459.998C740.218 489.342 716.619 504.421 688.574 515.905C700.844 506.156 712.91 492.882 720.665 479.273C722.688 475.722 727.844 464.773 722.351 462.649C715.368 463.364 712.063 473.871 708.347 479.236C699.605 491.779 688.81 502.756 676.416 511.706C656.883 525.825 635.734 527.684 613.315 534.116C575.547 545.117 548.475 561.319 521.201 589.124C510.849 599.678 472.846 647.726 463.792 650.641C402.585 670.342 327.252 661.498 266.694 688.289C256.841 692.648 248.721 697.092 239.643 701.382C244.357 697.323 248.307 692.302 252.816 687.991C262.693 678.549 274.328 669.667 286.047 662.637C298.097 655.409 311.29 648.47 325.105 645.485C336.824 642.953 350.332 643.283 362.296 643.724C380.238 644.385 435.167 650.641 448.173 643.688C449.546 642.954 450.803 641.825 451.097 640.217C451.379 638.677 450.757 637.001 449.626 635.942C446.84 633.333 431.3 636.007 426.893 636.249C403.566 637.53 380.234 633 356.887 632.844C375.675 626.265 396.758 622.289 410.05 605.785C413.119 601.974 419.356 596.442 417.618 591.082C411.627 584.022 405.125 597.405 401.445 600.466C383.098 615.725 357.492 621.012 335.122 628.687C291.624 643.217 237.401 673.628 214.984 718.425C212.585 723.218 222.029 737.371 228.31 735.277C239.423 731.573 250.148 723.201 260.76 717.317C266.031 714.368 271.473 711.736 277.057 709.436C312.791 694.319 350.345 691.859 388.372 687.677C394.557 686.997 400.68 686.146 406.903 685.919C407.633 689.78 407.546 694.224 407.803 698.174C409.698 727.264 421.16 754.938 440.914 776.489C446.714 782.816 453.379 788.413 459.031 794.844C454.327 798.836 449.518 802.757 445.154 807.223C412.083 841.063 400.723 888.459 412.583 933.878C414.395 940.817 418.533 946.657 423.67 951.56C408.82 967.608 376.071 981.638 354.65 987.468C317.329 997.625 252.852 1014.1 240.19 961.329C229.006 914.715 260.599 873.636 284.471 836.946C295.141 820.561 305.402 803.912 315.245 787.017C308.974 791.978 301.307 800.642 295.508 806.582L258.095 845.532C246.457 857.738 233.154 871.874 220.623 882.65C203.002 897.803 171.68 910.287 148.277 903.053C103.115 889.093 108.837 813.554 112.37 777.765C116.347 737.477 133.938 703.178 166.918 679.734C175.75 673.423 182.539 668.098 192.986 664.661C240.79 644.383 277.259 604.576 296.285 556.574C302.931 539.811 308.041 522.227 313.47 504.999C315.762 497.676 318.288 490.428 321.045 483.267C322.3 479.959 326.917 471.348 324.34 468.564C316.654 460.26 309.968 482.946 308.19 487.614C301.569 504.997 297.25 523.218 291.098 540.747C276.84 581.638 252.493 614.428 217.068 639.295C225.133 628.934 233.427 618.93 239.763 607.277C252.069 584.642 261.129 559.35 269.312 534.995C284.34 490.27 300.804 450.334 331.212 413.431C379.586 354.76 447.927 316.212 520.49 295.776C576.231 280.077 634.203 277.676 690.231 263.83C716.826 257.257 742.784 247.215 766.598 233.703C768.278 232.749 774.344 228.458 775.55 228.325C774.733 230.045 764.824 238.971 762.576 240.837C748.071 252.883 730.521 263.885 713.195 271.328C701.922 276.3 690.544 279.034 678.803 282.674C673.734 284.246 653.339 284.798 653.923 292.383C653.994 293.293 655.841 296.536 656.742 296.516C666.415 296.308 676.518 293.67 685.993 291.531C737.771 277.997 782.918 247.183 810.292 200.782ZM614.721 413.541C632.723 407.133 633.127 396.242 649.585 389.748C669.636 381.838 680.1 356.998 672.47 336.955C663.729 313.214 640.54 301.244 616.23 303.143C596.336 306.67 580.106 314.233 567.614 331.132C549.202 356.038 553.959 388.904 579.367 406.936C589.865 414.386 602.026 416.32 614.721 413.541ZM411.13 454.374C422.652 452.352 434.019 446.774 441.104 437.09C447.456 428.407 446.948 417.336 453.308 409.103C456.843 404.526 464.653 402.428 469.718 399.932C483.296 393.708 493.06 383.509 490.195 367.31C487.302 350.944 471.872 344.199 456.822 346.118C427.382 351.67 405.711 366.813 388.684 391.155C375.696 409.723 368.778 435.171 390.877 449.92C396.785 453.863 404.185 454.882 411.13 454.374ZM628.59 510.521C646.221 509.896 666.987 500.127 678.982 487.256C687.951 477.632 697.719 460.638 697.19 447.072C696.896 439.299 693.467 431.975 687.684 426.771C681.475 421.192 673.43 418.129 665.036 419.123C655.753 421.069 648.355 424.29 643.571 433.055C638.52 442.308 637.155 452.312 624.948 454.742C613.459 457.03 602.797 461.295 597.741 472.926C595.443 478.211 594.811 484.071 595.93 489.725C599.229 505.752 614.035 510.958 628.59 510.521ZM530.316 496.204C535.928 500.347 540.737 502.104 548.005 501.023C553.68 500.135 558.746 496.967 562.029 492.254C565.254 487.621 565.93 482.577 565.101 477.056C564.105 470.417 558.697 465.829 557.332 459.718C556.419 455.623 557.566 448.94 557.696 444.546C558.03 433.271 550.589 422.755 541.453 416.769C534.215 412.03 525.515 410.052 516.94 411.195C504.421 412.839 491.952 416.843 483.901 427.243C477.222 435.941 474.419 447.007 476.153 457.837C478.446 472.896 493.077 486.457 508.498 485.657C523.515 484.879 521.325 487.447 530.316 496.204ZM732.053 352.257C745.552 351.072 754.22 339.165 752.581 325.972C751.556 317.304 746.993 309.446 739.972 304.26C733.068 299.071 722.423 295.58 713.798 296.672C706.879 297.36 701.297 299.74 696.678 305.118C689.906 313.003 689.549 324.184 697.879 331.047C701.199 333.782 706.298 334.186 709.839 336.544C718.466 343.309 718.751 351.697 732.053 352.257ZM321.523 621.216C329.639 617.809 331.935 613.713 337.581 607.488C339.84 604.998 343.112 602.955 345.469 600.237C346.705 598.816 347.687 597.193 348.371 595.439C350.681 589.527 350.389 582.914 347.567 577.228C344.777 571.452 339.717 567.091 333.592 565.183C330.482 564.225 326.428 563.766 323.19 564.189C287.407 568.292 282.085 625.61 321.523 621.216ZM444.619 605.729C470.078 603.61 497.834 590.983 516.516 573.577C520.544 569.824 518.809 564.332 512.649 564.44C505.438 568.891 499.065 574.85 491.253 579.474C479.366 586.51 468.285 590.88 454.718 593.805C450.31 594.879 445.532 595.308 441.305 596.957C436.95 598.856 438.877 606.47 444.619 605.729ZM704.492 402.701C713.368 401.697 719.747 393.684 718.737 384.809C717.728 375.934 709.712 369.559 700.837 370.574C691.969 371.587 685.6 379.596 686.609 388.464C687.618 397.332 695.623 403.705 704.492 402.701ZM526.978 357.033C536.289 354.642 540.476 346.598 537.936 337.416C536.84 333.355 534.062 329.954 530.3 328.07C526.804 326.302 524.526 326.486 520.798 326.653C511.777 329.855 507.234 339.092 510.705 348.068C512.135 351.801 515.059 354.766 518.771 356.249C521.379 357.318 524.205 357.322 526.978 357.033ZM455.115 442.914C449.039 448.092 449.339 460.439 453.003 466.881C454.448 467.626 456.037 468.493 457.512 469.123C459.407 467.618 461.063 466.364 461.135 463.447C461.258 458.406 462.781 447.808 459.454 443.87C458.447 442.677 456.487 442.866 455.115 442.914ZM549.304 315.159C553.095 314.411 562.443 313.193 563.955 310.06C566.507 304.768 560.701 302.637 556.549 303.12C551.955 304.212 540.306 305.969 540.745 311.889C543.13 315.715 545.246 315.654 549.304 315.159ZM347.6 457.41C358.511 450.368 368.01 431.896 347.033 434.069C339.211 438.39 337.876 441.194 334.797 449.337C337.106 455.602 340.63 459.182 347.6 457.41ZM575.648 526.803C581.322 523.16 588.022 507.981 576.299 506.438C571.698 509.537 564.531 528.678 575.648 526.803ZM464.62 571.564C479.021 566.349 489.58 558.286 496.563 544.317C505.616 526.208 497.285 504.705 479.038 496.491C469.737 492.304 459.44 493.512 450.219 497.198C440.68 501.079 433.013 508.901 421.803 504.494C412.525 500.847 410.209 493.392 404.779 486.39C395.584 474.535 382.69 470.726 368.282 472.134C360.256 473.638 355.494 474.869 348.871 479.966C314.967 506.058 335.194 562.081 379.416 554.563C389.552 552.839 400.349 542.226 410.545 548.446C415.376 551.369 417.919 557.511 421.041 562.018C430.848 576.172 449.762 576.239 464.62 571.564ZM713.342 436.886C719.33 432.832 723.129 415.509 713.128 415.323C707.586 419.309 703.494 435.263 713.342 436.886ZM376.745 571.78C372.387 572.538 368.774 575.58 367.284 579.745C365.795 583.909 366.658 588.553 369.545 591.903C372.432 595.254 376.897 596.794 381.236 595.936C387.839 594.631 392.162 588.255 390.932 581.638C389.701 575.02 383.376 570.625 376.745 571.78ZM486.763 333.896C489.448 332.743 497.41 329.966 498.179 327.088C499.551 321.952 496.658 320.202 491.847 320.535C487.401 322.222 478.068 325.595 479.467 331.965C481.243 334.274 484.181 334.168 486.763 333.896ZM437.677 487.348C446.939 478.265 426.462 472.764 421.776 472.973C414.623 483.499 429.999 488.441 437.677 487.348ZM523.088 542.592C526.808 547.336 527.483 547.621 533.467 547.737C541.19 542.866 555.439 519.168 535.335 521.002C528.372 527.294 521.76 532.627 523.088 542.592ZM770.204 300.134C778.244 293.018 767.672 283.938 759.364 285.004C751.344 292.51 764.981 300.233 770.204 300.134ZM596.83 432.996C589.806 435.689 586.067 437.96 582.514 445.165C579.906 450.453 580.744 456.361 588.037 454.942C590.694 452.402 591.461 449.302 593.599 446.517C595.802 443.646 604.231 442.043 603.857 437.619C603.488 433.253 600.305 432.826 596.83 432.996ZM524.69 381.076C521.957 382.312 520.515 382.871 519.398 385.654C520.323 392.799 534.702 392.081 538.449 398.123C539.799 400.299 542.715 402.039 545.346 402.417C560.596 398.284 536.64 380.01 524.69 381.076ZM481.887 604.539C472.768 608.04 464.706 611.061 454.938 612.747C450.568 613.502 438.085 612.871 436.287 617.473C434.233 622.731 438.124 624.57 442.879 624.437C453.437 623.888 463.237 621.923 473.506 618.914C478.155 617.551 495.697 612.401 486.051 604.843C485.21 604.184 483.907 604.289 482.84 604.417L481.887 604.539Z"/><path fill="#1E706A" d="M368.898 485.569C379.313 484.031 377.568 494.367 368.421 496.729C362.468 498.265 356.615 505.083 356.492 511.197C356.449 513.313 355.18 515.274 353.417 516.787C338.761 519.029 349.058 499.207 354.085 494.381C359.156 489.511 362.052 487.503 368.898 485.569Z"/><path fill="#1E706A" d="M618.65 318.161C623.096 317.942 630.483 318.607 629.659 324.87C623.631 333.002 602.223 321.057 585.758 351.73C583.835 353.878 582.172 354.375 579.531 353.396C575.287 349.135 579.226 341.877 581.999 337.891C590.076 326.278 605.268 320.508 618.65 318.161Z"/><path fill="#1E706A" d="M577.605 360.536C584.332 362.125 585.658 371.076 578.202 372.956C571.051 371.428 569.827 363.023 577.605 360.536Z"/><path fill="#1E706A" d="M510.524 423.114C514.745 422.814 518.825 422.184 519.71 427.581C518.52 433.687 507.687 433.819 503.335 438.272C499.249 442.453 500.028 447.984 496.933 452.288C482.419 458.147 487.96 431.533 510.524 423.114Z"/><path fill="#1E706A" d="M699.706 620.385C718.722 625.5 737.641 630.972 756.451 636.8C777.041 643.214 795.798 648.822 815.293 658.059C864.718 681.48 898.875 714.313 905.988 770.721C913.041 826.655 917.005 929.418 829.071 899.829C808.958 893.062 795.568 878.787 781.036 864.357C763.765 847.978 747.395 831.231 731.139 813.816C722.794 804.877 713.514 793.857 703.851 786.59C707.849 794.013 715.584 804.946 720.372 812.562L750.073 860.523C766.515 886.381 778.806 905.325 780.919 937.016C783.059 969.134 768.991 997.589 733.35 997.964C690.688 998.413 628.77 981.355 597.233 951.989L597.849 951.391C611.854 937.758 612.877 920.862 613.517 902.367C614.743 866.909 601.75 835.928 578.059 809.828C573.194 804.468 567.687 799.872 562.535 794.579C565.1 790.374 573.066 783.907 576.815 780.003C596.126 760.022 610.064 733.068 613.192 705.367C614.603 688.757 613.721 689.855 628.224 682.828C656.291 669.229 681.006 644.627 699.706 620.385Z"/><path fill="#1E706A" d="M423.38 18.1281C437.053 16.9321 449.529 20.1633 460.624 28.3162C489.65 49.6439 497.687 92.1737 502.944 125.608C504.876 137.492 506.583 149.411 508.064 161.36C508.908 168.29 509.548 176.879 510.596 183.472C518.076 141.646 514.962 94.8841 536.252 56.1019C544.293 41.4532 560.925 23.1843 577.747 19.1288C615.465 10.0362 640.569 46.5156 660.725 71.9682C679.345 95.484 694.077 114.882 701.847 145.085C708.938 172.65 707.81 208.888 697.374 235.905C695.856 239.836 672.758 243.783 667.61 244.905C633.413 252.489 593.402 256.913 558.211 263.221C507.253 272.298 458.162 289.793 412.948 314.988C400.394 322.043 389.707 330.003 377.745 337.041C372.911 332.388 368.154 325.289 364.202 319.847C315.11 252.256 288.534 161.278 345.332 89.4308C364.332 65.3967 390.639 23.3577 423.38 18.1281Z"/><path fill="#1E706A" d="M592.928 689.127C593.857 694.756 591.16 710.72 589.797 716.296C585.648 733.275 578.155 746.277 566.825 759.43C558.413 769.17 549.053 778.048 538.883 785.935C500.447 815.325 455.505 834.766 448.737 887.822C448.267 891.948 448.478 896.265 448.389 900.366C448.284 905.195 449.174 910.494 449.974 915.04C451.247 922.279 455.011 933.337 444.86 935.53C440.941 936.376 438.941 935.79 435.691 933.669C428.212 925.37 428.401 895.121 429.647 884.123C432.921 852.807 454.17 824.142 478.618 805.266C521.808 771.92 566.035 755.845 573.812 695.032C578.378 692.791 587.45 690.946 592.928 689.127Z"/><path fill="#1E706A" d="M539.25 803.438C541.486 803.388 545.255 807.169 546.919 808.62C564.615 824.044 579.986 842.459 587.613 865.046C593.651 882.929 594.565 906.008 590.377 924.463C588.38 933.266 583.846 937.525 574.831 935.263C567.936 931.008 570.264 923.117 571.816 916.281C578.82 885.431 566.316 853.25 543.568 832.025C537.065 825.957 530.012 820.277 523.218 814.522C526.404 810.996 534.918 806.096 539.25 803.438Z"/><path fill="#1E706A" d="M434.784 679.067C451.661 678.375 446.257 690.589 448.846 703.001C449.514 706.204 449.949 708.795 450.763 712.032C456.858 736.289 478.092 761.296 499.307 773.603C495.578 776.06 491.9 778.59 488.272 781.194C486.378 782.627 483.75 784.228 481.714 785.549C470.911 779.201 454.339 760.336 446.839 749.829C434.967 733.197 425.643 703.77 429.483 683.377C431.55 681.132 432.054 680.412 434.784 679.067Z"/><path fill="#1E706A" d="M694.381 549.497L694.598 549.668L694.507 550.203C684.084 557.968 673.745 567.904 663.223 576.129C641.869 592.82 620.609 609.51 596.913 622.849C574.523 635.454 551.13 646.133 527.524 656.211C517.714 660.399 507.204 663.998 497.701 668.582L497.347 668.086C500.97 665.619 504.846 663.823 508.149 661.59C517.403 654.975 527.692 649.192 536.924 642.636C579.752 612.219 625.537 587.798 671.52 562.659C679.021 558.558 687.169 554.114 694.381 549.497Z"/><path fill="#1E706A" d="M699.239 558.506L699.295 559.094C697.962 561.439 692.673 566.647 690.634 569.1C683.569 577.604 676.74 585.807 669.254 593.95C634.677 631.556 598.346 652.91 549.131 666.249C540.414 668.557 531.661 670.729 522.875 672.764C517.56 673.959 510.619 675.119 505.69 676.822L504.989 677.07C505.058 676.842 505.126 676.615 505.195 676.387C515.67 671.617 531.718 665.254 541.744 660.88C560.708 652.605 580.79 643.794 598.393 633.675C623.186 619.423 647.654 601.682 669.614 583.45C677.389 576.994 692.583 565.377 699.239 558.506Z"/><path fill="#1E706A" d="M502.507 650.713C536.013 618.774 566.365 591.136 609.058 571.822C625.843 564.229 643.263 558.404 660.557 552.126C662.887 551.28 687.721 541.252 687.85 541.254C685.191 544.835 639.992 568.839 632.938 572.5C593.19 593.127 556.353 616.944 519.5 642.318C516.107 644.654 509.733 649.018 506.043 650.8L502.507 650.713Z"/><path fill="#1E706A" d="M701.601 571.94L702.96 572.544C698.268 581.55 690.87 592.384 684.908 600.76C660.291 635.343 629.436 661.114 588.742 674.528C570.61 680.504 552.834 683.292 533.896 685.183C526.691 685.903 519.802 686.862 512.498 687L512.5 685.476C526.676 681.112 544.611 678.368 560.021 673.69C602.679 660.74 635.284 642.615 666.742 610.562C679.561 597.499 689.538 585.292 701.601 571.94Z"/><path fill="#1E706A" d="M663.833 537.055C667.631 537.484 669.357 535.804 671.083 536.484L671.536 537.182C654.952 543.859 637.129 549.373 620.451 555.996C590.175 568.019 566.153 581.467 541.293 602.58C529.522 612.576 519.011 622.068 507.689 632.697C501.485 638.521 490.657 648.284 483.85 652.96L483.19 653.409C498.935 637.255 511.929 620.211 527.206 603.717C568.269 559.38 607.388 549.232 663.833 537.055Z"/><path fill="#1E706A" d="M463.038 891.078C494.086 891.152 528.681 890.403 559.467 891.2C559.868 893.826 560.603 901.343 559.522 903.599L558.53 903.779L495.422 903.922C487.163 903.928 468.788 904.428 461.562 903.462C461.136 899.346 460.012 894.298 463.038 891.078Z"/><path fill="#1E706A" d="M468.055 712.248C488.185 711.468 508.978 712.499 529.178 712.096C537.746 711.926 547.575 711.843 556.07 712.448C555.042 716.613 553.674 719.165 551.687 722.897C551.32 723.358 550.901 723.83 550.374 724.114C547.967 725.409 477.292 725.582 470.733 724.38C469.391 721.606 466.017 715.26 466.827 712.51L468.055 712.248Z"/><path fill="#1E706A" d="M472.485 861.059C476.111 860.927 480.187 860.892 483.805 860.969C505.39 861.425 527.602 860.207 549.124 861.097C552.128 864.821 553.838 868.966 555.071 873.527L549.125 873.695C532.992 873.876 516.858 873.933 500.724 873.867C489.549 873.864 476.714 874.155 465.724 873.455C467.177 869.286 469.613 864.407 472.485 861.059Z"/><path fill="#1E706A" d="M483.131 742.047C501.244 742.036 520.266 741.743 538.305 742.249C535.889 744.904 533.715 747.125 531.148 749.64C528.574 751.568 527.404 752.77 524.496 754.685C517.254 755.153 503.703 755.231 496.65 754.705C492.026 751.116 486.782 746.613 483.131 742.047Z"/><path fill="#1E706A" d="M499.703 831.069C507.193 830.913 514.686 830.92 522.176 831.09C527.119 834.205 531.58 839.255 535.615 843.545C531.393 843.666 526.798 843.517 522.547 843.462C511.079 843.59 496.904 843.895 485.58 843.292C489.043 839.563 495.537 833.892 499.703 831.069Z"/><path fill="#1E706A" d="M663.833 537.055C666.413 536.242 684.01 531.372 685.246 531.771C683.336 532.612 673.4 536.688 671.536 537.182L671.083 536.484C669.357 535.804 667.631 537.484 663.833 537.055Z"/><path fill="#1E706A" d="M506.043 650.8C501.894 653.45 497.719 656.061 493.52 658.631L493.212 658.398C493.234 658.301 501.674 651.398 502.507 650.713L506.043 650.8Z"/><path fill="#1E706A" d="M512.498 687C509.428 687.407 505.703 688.038 502.691 687.945C505.99 686.793 509.09 686.206 512.5 685.476L512.498 687Z"/><path fill="#1E706A" d="M701.601 571.94C702.879 570.345 705.172 567.302 706.53 565.959L707.212 566.028L706.933 565.564L707.471 565.55L707.279 565.266L707.628 565.273L707.147 565.468L707.303 566.049L706.761 565.867L706.977 566.646C705.653 568.622 704.313 570.588 702.96 572.544L701.601 571.94Z"/><path fill="#1E706A" d="M204.096 449.722C158.497 421.355 57.0352 402.426 43.1799 343.327C40.2088 330.654 41.3746 317.72 48.3237 306.531C64.3301 280.76 124.653 260.159 154.185 253.556C188.853 245.804 226.213 253.78 256.029 272.868C283.03 290.153 304.662 315.582 324.236 340.656C330.683 348.915 336.721 357.775 343.597 365.659C315.213 393.742 297.592 414.589 278.213 450.339C251.544 499.536 243.813 555.188 214.242 602.569C211.092 607.557 207.368 613.17 203.055 617.147C167.263 626.036 115.702 624.017 84.6185 603.822C54.9823 584.567 28.2179 550.198 10.6207 520.081C8.02249 515.722 5.70162 511.204 3.67193 506.554C2.85252 504.711 0.91864 499.757 0 498.313L0 459.074L0.269856 458.694C2.71715 455.183 5.32776 449.426 7.97799 446.527C32.6341 419.556 77.5386 423.417 110.258 429.892C141.533 436.081 172.916 442.91 204.096 449.722Z"/></svg>