<svg xmlns="http://www.w3.org/2000/svg" width="256" height="256" viewBox="710 5 280 280">
  <path fill="#1E6F6A" d="M846.9 36.1615C864.577 35.1268 865.096 62.5337 866.744 74.4074C870.06 60.1934 866.276 40.1181 885.284 35.9302C896.267 38.7505 906.563 53.4024 910.122 63.5781C917.146 83.6647 899.373 104.011 889.089 119.766C883.985 127.612 879.36 135.759 875.238 144.163C896.18 131.207 905.001 104.653 925.82 91.3361C938.189 83.4236 975.201 92.118 970.993 109.883C968.571 120.11 945.645 127.883 936.078 132.671C946.003 130.637 970.834 122.297 979.028 131.4C987.304 140.594 974.071 158.275 966.718 164.89C947.336 182.326 922.219 166.654 901.235 161.587C894.187 159.868 889.066 159.302 881.87 158.842C889.921 164.126 898.56 168.453 907.612 171.735C928.584 179.491 953.603 181.398 955.946 209.377C956.669 218.011 957.242 237.219 944.753 237.332C931.763 237.45 918.958 219.122 910.14 210.773C912.541 215.052 916.357 221.4 919.14 225.649C927.263 238.052 934.985 260.471 910.211 256.658C898.152 254.802 883.417 248.596 878.537 236.085C873.592 223.41 874.745 209.008 873.493 195.645C872.053 179.136 862.741 165.766 879.786 154.104C890.942 149.621 907.456 143.94 917.852 137.94C906.593 141.247 894.227 143.448 883.006 147.012C873.134 150.148 871.545 155.071 867.905 163.83C863.87 173.434 861.329 183.6 860.37 193.974C857.332 224.571 862.217 250.106 823.591 256.572C817.307 257.624 808.485 257.955 806.793 249.961C803.992 236.728 817.005 222.577 822.919 211.409C813.738 219.507 801.775 238.185 788.258 237.112C785.505 236.917 782.954 235.599 781.202 233.467C776.871 228.285 776.709 218.066 777.302 211.685C779.834 184.421 797.685 180.407 820.459 173.608C828.193 171.299 843.873 164.371 850.166 159.076C824.164 160.014 806.007 174.928 780.832 172.378C766.675 170.944 741.197 140.739 756.602 129.544C764.716 123.648 787.91 130.554 797.013 132.809C787.038 126.466 772.812 123.806 765.029 114.522C761.666 110.509 761.802 106.803 762.354 102.046C762.702 101.501 763.08 100.975 763.484 100.471C768.293 94.3503 782.109 89.2576 789.776 88.3319C814.442 85.3534 824.868 109.792 838.498 125.629C846.396 134.806 849.319 137.545 858.724 144.952C854.585 137.089 849.707 128.506 844.871 120.914C833.259 102.916 814.146 82.6821 824.759 59.6735C828.723 51.0785 837.793 39.5443 846.9 36.1615ZM870.898 99.4918C869.453 106.093 868.794 110.493 869.096 117.313C869.205 119.777 869.587 123.646 869.523 125.963C870.929 143.61 864.468 152.13 853.896 165.288C848.085 172.521 843.34 182.546 837.709 190.279L833.36 196.518C835.134 195.076 837.38 193.437 838.68 191.613C853.953 175.953 876.838 152.528 873.822 129.265C870.937 107.024 869.587 104.24 881.021 83.7581C875.163 89.3891 873.824 91.9011 870.898 99.4918ZM884.167 85.3576C887.959 82.4067 887.356 78.5868 882.322 77.5303C880.02 79.7529 878.914 81.3088 880.701 84.3015C882.119 85.2742 882.476 85.2392 884.167 85.3576ZM881.498 105.765C878.496 108.032 875.522 111.221 875.072 115.097L875.359 115.313L875.499 114.943C879.645 109.276 882.901 111.602 883.473 107.927C882.867 106.604 882.769 106.464 881.498 105.765ZM898.394 195.215L899.006 195.063C895.271 189.502 879.561 163.889 876.36 161.136C875.401 162.424 873.455 164.885 873.996 166.357C876.923 174.325 892.762 189.339 898.394 195.215ZM853.556 153.731C856.438 152.596 858.846 151.636 861.056 149.304L862.323 147.265L861.978 146.787C860.282 147.457 859.172 147.993 857.551 148.836C849.925 147.27 842.429 145.052 834.919 143.064C830.214 141.819 821.945 139.208 817.184 139.036C823.961 142.57 846.253 152.3 853.556 153.731ZM881.769 97.2201C879.408 99.718 874.76 104.351 874.167 107.661L874.671 108.044L875.25 107.553L875.024 107.387C875.388 107.149 875.652 106.952 875.865 106.568C880.614 99.8326 883.161 103.516 885.185 99.374C884.678 97.9568 883.266 97.2947 881.769 97.2201Z"/>
  <path fill="#1E6F6A" d="M866.799 93.2214C865.359 91.9189 864.792 91.4683 863.74 89.8463C863.652 88.1984 863.459 88.7562 864.287 87.6023L865.274 87.5993C868.323 89.3174 867.531 92.1232 868.063 94.8752C868.25 95.8432 869.532 98.8756 869.964 99.9188L870.898 99.4918C869.453 106.093 868.794 110.493 869.096 117.313C869.205 119.777 869.587 123.646 869.523 125.963C866.582 123.017 869.236 111.498 867.566 107.476C866.138 104.039 862.337 100.416 859.825 97.4524C859.978 95.8593 859.733 96.3276 860.545 95.2375C863.099 95.8 863.992 98.9067 866.276 98.7699C867.117 97.4021 866.836 94.9344 866.799 93.2214Z"/>
  <path fill="#1E6F6A" d="M881.769 97.2201C883.266 97.2947 884.678 97.9568 885.185 99.374C883.161 103.516 880.614 99.8326 875.865 106.568C875.652 106.952 875.388 107.149 875.024 107.387L875.25 107.553L874.671 108.044L874.167 107.661C874.76 104.351 879.408 99.718 881.769 97.2201Z"/>
  <path fill="#1E6F6A" d="M881.498 105.765C882.769 106.464 882.867 106.604 883.473 107.927C882.901 111.602 879.645 109.276 875.499 114.943L875.359 115.313L875.072 115.097C875.522 111.221 878.496 108.032 881.498 105.765Z"/>
  <path fill="#1E6F6A" d="M833.36 196.518L837.709 190.279L838.68 191.613C837.38 193.437 835.134 195.076 833.36 196.518Z"/>
</svg>
