<?xml version="1.0" encoding="utf-8" ?><svg xmlns="http://www.w3.org/2000/svg" xmlns:xlink="http://www.w3.org/1999/xlink" width="2114" height="987" viewBox="0 0 2114 987"><path fill="#1E706A" transform="matrix(2.08687 0 0 2.08668 0 -0.000488281)" d="M846.9 36.1615C864.577 35.1268 865.096 62.5337 866.744 74.4074C870.06 60.1934 866.276 40.1181 885.284 35.9302C896.267 38.7505 906.563 53.4024 910.122 63.5781C917.146 83.6647 899.373 104.011 889.089 119.766C883.985 127.612 879.36 135.759 875.238 144.163C896.18 131.207 905.001 104.653 925.82 91.3361C938.189 83.4236 975.201 92.118 970.993 109.883C968.571 120.11 945.645 127.883 936.078 132.671C946.003 130.637 970.834 122.297 979.028 131.4C987.304 140.594 974.071 158.275 966.718 164.89C947.336 182.326 922.219 166.654 901.235 161.587C894.187 159.868 889.066 159.302 881.87 158.842C889.921 164.126 898.56 168.453 907.612 171.735C928.584 179.491 953.603 181.398 955.946 209.377C956.669 218.011 957.242 237.219 944.753 237.332C931.763 237.45 918.958 219.122 910.14 210.773C912.541 215.052 916.357 221.4 919.14 225.649C927.263 238.052 934.985 260.471 910.211 256.658C898.152 254.802 883.417 248.596 878.537 236.085C873.592 223.41 874.745 209.008 873.493 195.645C872.053 179.136 862.741 165.766 879.786 154.104C890.942 149.621 907.456 143.94 917.852 137.94C906.593 141.247 894.227 143.448 883.006 147.012C873.134 150.148 871.545 155.071 867.905 163.83C863.87 173.434 861.329 183.6 860.37 193.974C857.332 224.571 862.217 250.106 823.591 256.572C817.307 257.624 808.485 257.955 806.793 249.961C803.992 236.728 817.005 222.577 822.919 211.409C813.738 219.507 801.775 238.185 788.258 237.112C785.505 236.917 782.954 235.599 781.202 233.467C776.871 228.285 776.709 218.066 777.302 211.685C779.834 184.421 797.685 180.407 820.459 173.608C828.193 171.299 843.873 164.371 850.166 159.076C824.164 160.014 806.007 174.928 780.832 172.378C766.675 170.944 741.197 140.739 756.602 129.544C764.716 123.648 787.91 130.554 797.013 132.809C787.038 126.466 772.812 123.806 765.029 114.522C761.666 110.509 761.802 106.803 762.354 102.046C762.702 101.501 763.08 100.975 763.484 100.471C768.293 94.3503 782.109 89.2576 789.776 88.3319C814.442 85.3534 824.868 109.792 838.498 125.629C846.396 134.806 849.319 137.545 858.724 144.952C854.585 137.089 849.707 128.506 844.871 120.914C833.259 102.916 814.146 82.6821 824.759 59.6735C828.723 51.0785 837.793 39.5443 846.9 36.1615ZM870.898 99.4918C869.453 106.093 868.794 110.493 869.096 117.313C869.205 119.777 869.587 123.646 869.523 125.963C870.929 143.61 864.468 152.13 853.896 165.288C848.085 172.521 843.34 182.546 837.709 190.279L833.36 196.518C835.134 195.076 837.38 193.437 838.68 191.613C853.953 175.953 876.838 152.528 873.822 129.265C870.937 107.024 869.587 104.24 881.021 83.7581C875.163 89.3891 873.824 91.9011 870.898 99.4918ZM884.167 85.3576C887.959 82.4067 887.356 78.5868 882.322 77.5303C880.02 79.7529 878.914 81.3088 880.701 84.3015C882.119 85.2742 882.476 85.2392 884.167 85.3576ZM881.498 105.765C878.496 108.032 875.522 111.221 875.072 115.097L875.359 115.313L875.499 114.943C879.645 109.276 882.901 111.602 883.473 107.927C882.867 106.604 882.769 106.464 881.498 105.765ZM898.394 195.215L899.006 195.063C895.271 189.502 879.561 163.889 876.36 161.136C875.401 162.424 873.455 164.885 873.996 166.357C876.923 174.325 892.762 189.339 898.394 195.215ZM853.556 153.731C856.438 152.596 858.846 151.636 861.056 149.304L862.323 147.265L861.978 146.787C860.282 147.457 859.172 147.993 857.551 148.836C849.925 147.27 842.429 145.052 834.919 143.064C830.214 141.819 821.945 139.208 817.184 139.036C823.961 142.57 846.253 152.3 853.556 153.731ZM881.769 97.2201C879.408 99.718 874.76 104.351 874.167 107.661L874.671 108.044L875.25 107.553L875.024 107.387C875.388 107.149 875.652 106.952 875.865 106.568C880.614 99.8326 883.161 103.516 885.185 99.374C884.678 97.9568 883.266 97.2947 881.769 97.2201Z"/><path fill="#1E706A" transform="matrix(2.08687 0 0 2.08668 0 -0.000488281)" d="M866.799 93.2214C865.359 91.9189 864.792 91.4683 863.74 89.8463C863.652 88.1984 863.459 88.7562 864.287 87.6023L865.274 87.5993C868.323 89.3174 867.531 92.1232 868.063 94.8752C868.25 95.8432 869.532 98.8756 869.964 99.9188L870.898 99.4918C869.453 106.093 868.794 110.493 869.096 117.313C869.205 119.777 869.587 123.646 869.523 125.963C866.582 123.017 869.236 111.498 867.566 107.476C866.138 104.039 862.337 100.416 859.825 97.4524C859.978 95.8593 859.733 96.3276 860.545 95.2375C863.099 95.8 863.992 98.9067 866.276 98.7699C867.117 97.4021 866.836 94.9344 866.799 93.2214Z"/><path fill="#1E706A" transform="matrix(2.08687 0 0 2.08668 0 -0.000488281)" d="M881.769 97.2201C883.266 97.2947 884.678 97.9568 885.185 99.374C883.161 103.516 880.614 99.8326 875.865 106.568C875.652 106.952 875.388 107.149 875.024 107.387L875.25 107.553L874.671 108.044L874.167 107.661C874.76 104.351 879.408 99.718 881.769 97.2201Z"/><path fill="#1E706A" transform="matrix(2.08687 0 0 2.08668 0 -0.000488281)" d="M881.498 105.765C882.769 106.464 882.867 106.604 883.473 107.927C882.901 111.602 879.645 109.276 875.499 114.943L875.359 115.313L875.072 115.097C875.522 111.221 878.496 108.032 881.498 105.765Z"/><path fill="#1E706A" transform="matrix(2.08687 0 0 2.08668 0 -0.000488281)" d="M833.36 196.518L837.709 190.279L838.68 191.613C837.38 193.437 835.134 195.076 833.36 196.518Z"/><path fill="#1E706A" transform="matrix(2.08687 0 0 2.08668 0 -0.000488281)" d="M772.249 310.836C777.321 303.111 781.794 296.73 790.295 292.569C799.568 288.03 815.587 287.555 825.142 291.169C848.938 300.17 847.234 323.03 847.156 343.736L847.117 376.472C847.122 380.349 846.674 388.769 848.213 392.021C850.827 393.731 857.771 393.339 861.196 393.359L861.524 407.731L800.379 407.718C800.297 402.932 800.308 398.146 800.411 393.361C804.44 393.285 807.967 393.261 811.988 392.75C813.367 373.337 811.491 351.495 812.263 331.932C812.473 326.62 810.759 318.153 806.444 314.686C796.941 306.675 776.226 312.637 775.097 325.874C773.956 339.244 774.728 353.668 774.606 367.168C774.533 375.338 774.368 384.867 775.172 392.881C779.058 393.254 783.559 393.222 787.507 393.287C787.645 398.404 787.69 402.571 787.486 407.712L772.239 407.724L728.351 407.672C728.172 403 728.316 398.077 728.377 393.383C732.435 393.333 735.813 393.258 739.846 392.9C739.916 391.094 739.971 389.287 740.012 387.479C740.435 367.697 740.505 345.503 739.374 325.633C738.879 316.934 732.014 310.919 723.089 311.196C708.178 311.659 701.266 321.791 702.305 335.916C702.744 355.048 702.053 374.009 702.487 392.977C706.644 393.155 710.938 393.138 715.108 393.175C715.187 397.973 715.165 402.881 715.19 407.689L654.417 407.685L654.457 393.366C657.706 393.319 665.026 393.615 667.403 391.891C669.146 386.175 667.642 331.482 668.014 321.82C668.079 320.132 667.439 315.843 666.876 314.025C664.629 312.167 657.612 312.092 654.381 311.852C654.276 307.51 654.392 302.894 654.428 298.531C659.988 297.183 697.973 289.044 700.943 289.718C702.386 292.309 701.921 306.935 701.976 311.008C710.81 297.496 715.839 290.963 732.863 289.116C751.575 287.857 765.732 291.974 772.249 310.836Z"/><path fill="#1E706A" transform="matrix(2.08687 0 0 2.08668 0 -0.000488281)" d="M96.8139 249.56C97.9854 249.457 99.1593 249.384 100.334 249.34C116.948 248.753 127.172 252.26 139.014 263.354C138.677 260.479 138.787 254.994 138.764 251.913C147.39 251.654 156.859 251.856 165.547 251.87L165.505 298.766C156.843 298.81 148.18 298.809 139.518 298.762C138.742 291.855 139.443 283.019 135.74 276.926C127.458 263.301 95.2689 263.029 85.2328 274.181C81.4662 278.362 79.5919 283.912 80.0526 289.521C81.6001 310.268 111.471 309.838 127.16 314.735C137.968 317.487 146.383 320.57 155.124 327.748C174.12 343.348 173.967 374.239 158.507 392.214C148.879 403.409 131.87 408.801 117.349 409.88C115.61 410.052 113.864 410.133 112.117 410.124C96.4672 410.089 86.2428 406.695 75.4288 395.812C75.1696 399.67 75.1559 403.686 75.0888 407.564C66.5806 407.794 57.5294 407.653 48.9811 407.66C48.9744 394.212 49.5923 374.042 48.6721 361.194C57.452 361.146 66.2321 361.154 75.0118 361.218C75.0615 369.684 75.1331 381.458 82.6354 387.095C91.5403 393.639 104.46 394.459 114.954 393.47C128.14 392.227 140.014 382.583 137.843 368.194C134.843 348.315 106.001 348.181 91.1027 343.523C82.1586 341.12 75.1251 337.837 67.689 332.408C47.7895 318.013 42.6678 288 58.197 268.548C68.36 255.818 81.2118 251.396 96.8139 249.56Z"/><path fill="#1E706A" transform="matrix(2.08687 0 0 2.08668 0 -0.000488281)" d="M97.7001 65.0122C113.75 63.2054 127.148 67.1851 138.536 78.4977C138.549 74.7534 138.596 71.0093 138.676 67.2658C147.544 67.1688 156.413 67.1654 165.281 67.2556C165.887 79.2123 165.894 101.738 165.228 113.667C156.465 113.757 147.703 113.78 138.94 113.734C139.006 110.76 138.947 107.784 138.764 104.814C137.413 83.3591 122.611 81.0067 104.374 81.2997C91.0567 81.5136 78.2028 90.9845 79.7654 105.352C81.9783 125.698 116.013 126.232 131.532 131.49C151.31 138.191 167.335 148.293 169.053 171.082C172.128 204.293 148.419 223.348 117.35 225.844C99.0426 227.416 87.4166 223.645 75.2009 210.358C75.0192 214.67 75.0707 219.234 75.0499 223.569C66.3378 223.681 57.6247 223.69 48.9124 223.594C49.148 208.304 48.9549 192.476 48.9287 177.149L75.0742 177.087C74.6681 186.022 75.5476 196.578 83.2344 202.573C95.0896 211.82 122.664 212.165 132.797 200.083C136.381 195.744 138.101 190.162 137.581 184.557C136.273 169.477 121.845 166.344 109.547 163.358C104.179 162.071 98.8376 160.674 93.5271 159.166C71.3275 152.678 51.5864 140.775 49.5117 115.501C46.9698 84.5345 68.6075 67.242 97.7001 65.0122Z"/><path fill="#1E706A" transform="matrix(2.08687 0 0 2.08668 0 -0.000488281)" d="M160.354 154.152C161.52 156.006 160.737 159.917 160.47 162.159C159.42 159.508 159.402 156.816 160.354 154.152Z"/><path fill="#1E706A" transform="matrix(2.08687 0 0 2.08668 0 -0.000488281)" d="M507.998 127.466C514.707 117.076 519.912 108.938 532.935 106.418C543.676 104.34 556.767 104.835 566.122 110.994C582.47 121.758 581.239 143.898 581.237 160.979L581.225 190.11C581.227 195.847 581.031 203.074 581.948 208.609C586.575 209.175 590.486 209.185 595.118 209.245L595.487 223.558C583.604 223.694 566.838 224.19 555.323 223.576C548.525 223.803 541.542 223.667 534.725 223.608C534.807 218.851 534.83 214.094 534.795 209.336L541.354 209.057C542.922 208.983 545.061 209.08 546.295 208.239C547.827 203.696 546.792 155.506 546.578 147.24C546.521 145.036 545.312 137.953 544.076 135.731C542.214 132.384 539.212 129.88 535.4 128.831C529.439 127.191 522.529 128.146 517.128 131.086C514.161 132.701 510.786 135.92 509.911 139.145C509.355 141.197 508.537 147.02 508.574 148.828C508.722 156.28 507.756 205.023 509.284 208.109C511.807 209.33 518.335 209.027 521.302 209.029C521.398 213.828 521.57 218.807 521.431 223.59C502.06 223.806 480.076 224.086 460.799 223.619C460.967 218.861 461.008 214.099 460.923 209.338C464.965 209.178 470.091 209.12 474.04 208.746C474.821 199.575 474.445 181.95 474.343 172.278C474.211 159.645 474.804 143.304 474.185 131.001C469.634 129.377 465.77 129.002 460.969 128.542L460.912 115.262C470.105 113.54 479.26 111.629 488.374 109.529C493.157 108.459 502.865 106.057 507.379 105.853C508.206 110.785 507.975 122.007 507.998 127.466Z"/><path fill="#1E706A" transform="matrix(2.08687 0 0 2.08668 0 -0.000488281)" d="M575.055 289.127C606.645 285.612 633.27 303.575 635.963 336.278C636.27 340.001 637.649 346.426 635.729 349.79C633.647 351.266 612.825 350.668 608.437 350.665L560.421 350.751C560.408 354.936 560.794 359.114 561.574 363.226C567.264 391.886 597.312 396.892 616.414 376.254C618.17 374.358 619.704 371.806 621.134 369.621L625.28 372.5L633.736 377.516C620.043 412.909 572.858 419.328 544.852 397.738C519.718 378.362 517.774 332.14 537.332 308.343C546.924 296.672 560.138 290.698 575.055 289.127ZM560.499 336.056L584.28 336.061L600.04 336.005C600.059 323.013 598.925 304.418 581.422 304.762C580.094 304.795 578.767 304.854 577.442 304.939C562.379 309.342 561.148 322.467 560.499 336.056Z"/><path fill="#1E706A" transform="matrix(2.08687 0 0 2.08668 0 -0.000488281)" d="M384.175 105.549C399.95 103.228 419.527 109.126 430.38 121.034C442.454 134.28 445.156 149.027 444.503 166.451C434.154 167.17 417.97 166.645 407.273 166.669C396.442 166.694 379.338 167.156 368.912 166.207C368.768 178.55 371.664 192.824 382.691 199.914C393.782 207.045 408.878 205.941 418.982 197.594C423.362 193.976 425.45 190.654 428.523 185.998C430.447 186.895 432.693 188.206 434.586 189.244C436.749 190.356 439.306 191.889 441.454 193.108C424.795 236.748 359.398 236.647 339.534 196.052C324.538 165.405 334.111 119.995 369.577 108.711C374.668 107.091 378.94 106.348 384.175 105.549ZM368.915 152.118C376.533 152.059 384.151 152.046 391.769 152.08L408.006 152.05C407.71 138.259 407.329 120.342 388.31 121.111C387.462 121.147 386.615 121.201 385.769 121.274C370.614 125.707 370.02 138.874 368.915 152.118Z"/><path fill="#1E706A" transform="matrix(2.08687 0 0 2.08668 0 -0.000488281)" d="M659.1 105.568C661.092 105.379 663.091 105.271 665.092 105.243C685.575 105.154 705.038 113.344 713.605 132.891C718.74 144.606 719.115 154.057 719.156 166.529C703.034 167.475 685.642 166.203 669.382 166.685C661.314 166.925 651.53 166.87 643.517 166.329C643.733 178.247 645.964 192.302 656.435 199.547C667.885 207.472 685.173 205.691 695.377 196.471C699.006 193.192 700.957 190.415 703.734 186.47L708.987 189.197C711.428 190.639 713.688 191.807 716.205 193.096C713.234 204.374 701.895 215.967 691.452 220.715C669.133 231.179 638.046 226.259 621.744 207.17C600.712 182.542 603.493 133.943 631.587 115.203C640.875 109.008 648.239 106.892 659.1 105.568ZM643.947 152.045L663.916 152.083L683.201 152.055C682.956 138.464 682.375 121.931 664.66 120.913C647.602 122.372 644.015 137.585 643.947 152.045Z"/><path fill="#1E706A" transform="matrix(2.08687 0 0 2.08668 0 -0.000488281)" d="M184.857 291.065C205.288 291.214 225.72 291.229 246.152 291.11C246.225 296.315 246.216 301.521 246.125 306.726L232.99 307.299C239.825 328.944 250.204 350.45 256.253 372.875C261.119 359.772 265.512 347.015 270.817 333.964C273.284 327.897 279.354 313.341 280.593 307.885C278.808 306.351 270.385 306.702 267.562 306.68C267.24 301.621 267.309 296.245 267.286 291.155C279.163 290.466 297.96 291.112 310.374 291.129C310.667 296.145 310.545 301.448 310.518 306.491C306.87 306.709 303.22 306.902 299.57 307.07C297.03 311.75 291.091 327.905 288.67 333.897L267.827 384.556C258.822 405.852 248.49 443.064 225.861 452.533C215.631 456.814 194.92 456.189 187.565 446.407C173.315 427.457 195.994 405.587 213.859 421.23C218.588 425.463 215.687 435.927 214.926 441.957C218.696 440.898 221.851 439.532 224.904 437.058C231.295 431.878 236.187 421.937 236.868 413.777C236.99 412.312 236.675 410.977 236.231 409.596C232.943 399.368 197.817 309.533 196.362 308.024C194.12 305.699 187.501 305.995 184.341 305.809C184.181 303.094 183.502 292.6 184.857 291.065Z"/><path fill="#1E706A" transform="matrix(2.08687 0 0 2.08668 0 -0.000488281)" d="M917.374 289.141C931.688 287.061 942.656 290.266 952.564 300.554C952.939 296.906 953.024 295.028 952.908 291.367C959.456 291.045 967.384 291.29 974.15 291.179C974.684 301.565 974.246 315.151 974.114 325.723C966.919 325.801 959.943 325.886 952.753 325.658C952.055 319.96 951.153 313.884 946.449 309.891C938.354 303.021 920.883 302.483 913.437 310.582C911.791 312.373 910.471 315.954 910.956 318.33C914.124 333.203 938.654 333.542 950.938 338.152C964.931 343.402 976.453 351.7 978.058 367.956C980.486 392.538 962.45 407.375 939.282 409.718C938.292 409.817 937.3 409.901 936.308 409.969C922.334 410.906 912.697 407.569 902.441 398.602L902.14 407.644C894.906 407.76 887.67 407.755 880.436 407.628C880.422 401.589 879.964 377.002 881.162 372.954C883.835 371.591 897.969 372.26 901.948 372.331C903.144 378.978 901.879 383.469 907.627 388.265C914.15 393.708 922.538 394.605 930.654 394.151C938.988 393.685 948.032 388.809 946.676 379.253C944.595 364.591 922.752 364.768 911.683 360.732C902.223 357.838 894.431 353.27 887.732 345.893C877.7 334.845 878.289 315.488 887.352 304.03C894.282 295.27 906.255 290.258 917.374 289.141Z"/><path fill="#1E706A" transform="matrix(2.08687 0 0 2.08668 0 -0.000488281)" d="M360.354 289.132C374.763 287.083 385.797 290.28 395.756 300.692C396.108 298.132 396.112 294.082 396.182 291.384C402.803 291.172 409.919 291.325 416.582 291.359C417.345 298.924 417.004 317.804 416.713 325.782C409.706 325.825 402.609 325.94 395.617 325.626C395.147 319.365 394.535 314.464 389.532 309.878C382.244 303.196 363.868 302.33 357.216 310.071C355.248 312.337 354.313 315.321 354.636 318.305C355.037 322.296 358.108 326.406 361.634 328.187C377.297 336.1 395.719 334.778 409.773 346.548C416.43 352.081 420.581 360.061 421.291 368.69C423.464 393.703 404.02 407.883 380.988 409.876C379.919 409.971 378.848 410.036 377.776 410.07C364.677 410.466 355.273 407.552 345.862 398.686C345.812 401.663 345.626 404.515 345.438 407.483C338.999 407.911 330.66 407.693 324.075 407.69L324.094 372.308C330.791 372.129 338.991 372.066 345.607 372.502C346.054 378.739 346.123 384.185 350.998 388.547C360.938 397.441 391.952 397.75 390.099 379.054C388.698 364.914 366.084 364.571 356.104 360.927C340.997 356.501 326.039 346.689 324.193 329.833C321.671 306.808 338.302 291.418 360.354 289.132Z"/><path fill="#1E706A" transform="matrix(2.08687 0 0 2.08668 0 -0.000488281)" d="M257.686 66.1812C271.106 62.7448 285.154 60.4921 298.67 57.3451C300.912 56.8232 303.404 56.3096 305.67 55.9379C306.738 72.4434 304.52 205.875 306.898 208.027C309.05 209.975 316.522 209.281 319.475 209.313L319.512 223.59L265.091 223.689L257.825 223.627C258.082 219.446 257.997 213.437 257.833 209.335L264.445 209.165C266.537 209.02 268.908 208.913 270.966 208.649C272.418 172.915 270.553 136.201 271.332 100.404C271.467 94.1818 271.42 87.5068 271.233 81.2807C267.113 79.8005 262.165 78.971 257.808 78.4106C257.764 74.3851 257.653 70.1907 257.686 66.1812Z"/><path fill="#1E706A" transform="matrix(2.08687 0 0 2.08668 0 -0.000488281)" d="M257.833 209.335L264.445 209.165C264.236 212.381 263.47 221.137 265.091 223.689L257.825 223.627C258.082 219.446 257.997 213.437 257.833 209.335Z"/><path fill="#1E706A" transform="matrix(2.08687 0 0 2.08668 0 -0.000488281)" d="M467.6 259.965C473.402 259.678 479.315 259.757 485.13 259.763L485.151 267.3C485.139 275.264 485.212 283.229 485.369 291.192C493.231 291.003 502.696 290.951 510.506 291.365C510.847 296.423 510.577 302.151 510.458 307.265C502.329 307.679 493.392 307.551 485.217 307.567L485.185 355.385C485.183 361.184 483.809 384.767 487.858 388.952C491.262 392.472 505.229 390.36 510.501 389.796C510.602 395.074 510.617 399.725 510.441 405.01C497.436 409.927 468.629 412.32 457.567 401.619C448.647 392.989 451.059 372.989 451.067 361.464L451.121 307.247C444.482 307.613 441.018 307.726 434.321 307.207L434.274 291.866C442.376 291.422 449.494 291.787 455.111 284.568C459.312 279.167 461.788 272.672 464.541 266.448C465.424 264.465 466.524 261.782 467.6 259.965Z"/><path fill="#1E706A" transform="matrix(2.08687 0 0 2.08668 0 -0.000488281)" d="M467.6 259.965C473.402 259.678 479.315 259.757 485.13 259.763L485.151 267.3C481.374 267.611 468.97 266.693 464.541 266.448C465.424 264.465 466.524 261.782 467.6 259.965Z"/><path fill="#1E706A" transform="matrix(2.08687 0 0 2.08668 0 -0.000488281)" d="M231.501 106.019L233.139 106.081C235.687 108.931 232.298 195.535 234.695 208.418C238.788 209.25 243.628 209.215 247.836 209.255L247.933 223.616L188.33 223.642L186.744 223.536C185.352 221.719 185.986 212.042 186.017 209.206C190.394 209.111 194.769 208.944 199.14 208.706C200.086 201.424 200.434 133.345 198.544 130.998C196.903 128.959 188.611 128.74 186.117 128.523L186.123 115.096C190.449 114.157 195.371 113.52 199.843 112.632L231.501 106.019Z"/><path fill="#1E706A" transform="matrix(2.08687 0 0 2.08668 0 -0.000488281)" d="M206.012 132.999C207.921 135.255 206.347 199.667 206.709 207.55C206.729 207.986 206.276 209.047 206.056 209.482C202.985 204.408 205.431 145.243 204.905 136.797C204.843 135.796 205.475 133.955 206.012 132.999Z"/><path fill="#1E706A" transform="matrix(2.08687 0 0 2.08668 0 -0.000488281)" d="M214.162 53.7045C225.157 52.5329 235.021 60.4944 236.2 71.4914C237.378 82.4884 229.426 92.3609 218.433 93.5476C207.429 94.7355 197.548 86.7714 196.368 75.7636C195.188 64.7559 203.157 54.8772 214.162 53.7045Z"/></svg>